<svg width="480" height="320" viewBox="0 0 480 320" fill="none" xmlns="http://www.w3.org/2000/svg">
<g clip-path="url(#clip0_383_2)">
<rect x="-3" y="-3" width="486" height="326" rx="5" fill="#112452"/>
<g opacity="0.4" filter="url(#filter0_f_383_2)">
<ellipse cx="55" cy="57.5" rx="55" ry="57.5" transform="matrix(1 0 0 -1 357 174)" fill="#356DF2"/>
</g>
<g opacity="0.4" filter="url(#filter1_f_383_2)">
<ellipse cx="41" cy="42.5" rx="41" ry="42.5" transform="matrix(1 0 0 -1 33 216)" fill="#356DF2"/>
</g>
<g opacity="0.5" filter="url(#filter2_f_383_2)">
<ellipse cx="18.5" cy="19.5" rx="18.5" ry="19.5" transform="matrix(1 0 0 -1 221 235.586)" fill="#356DF2"/>
</g>
<path d="M448.952 126.89C448.952 125.724 447.936 124.609 446.367 123.582C442.713 121.189 441.379 116.21 443.347 112.31C444.192 110.636 444.38 109.24 443.797 108.23C443.214 107.22 441.911 106.685 440.038 106.579C435.678 106.334 432.033 102.689 431.787 98.3286C431.682 96.4558 431.147 95.1529 430.137 94.5696C429.127 93.9865 427.731 94.1746 426.056 95.0196C422.157 96.9874 417.178 95.6531 414.785 91.9993C413.757 90.4306 412.642 89.4142 411.476 89.4142C410.31 89.4142 409.195 90.4306 408.168 91.9993C405.775 95.6531 400.796 96.9874 396.896 95.0196C395.222 94.1746 393.826 93.9865 392.816 94.5696C391.806 95.1529 391.271 96.4558 391.165 98.3286C390.92 102.689 387.275 106.334 382.914 106.579C381.042 106.685 379.739 107.22 379.155 108.23C378.572 109.24 378.761 110.636 379.605 112.31C381.573 116.21 380.239 121.189 376.585 123.582C375.016 124.609 374 125.724 374 126.89C374 128.057 375.016 129.171 376.585 130.199C380.239 132.592 381.573 137.571 379.605 141.471C378.761 143.145 378.572 144.541 379.155 145.551C379.739 146.561 381.042 147.096 382.914 147.201C387.275 147.447 390.92 151.092 391.165 155.452C391.271 157.325 391.806 158.628 392.816 159.211C393.826 159.794 395.222 159.606 396.896 158.761C400.796 156.793 405.774 158.127 408.167 161.781C409.195 163.35 410.31 164.367 411.476 164.367C412.643 164.367 413.757 163.35 414.785 161.781C417.178 158.127 422.157 156.793 426.056 158.761C427.731 159.606 429.127 159.794 430.137 159.211C431.147 158.628 431.682 157.325 431.787 155.452C432.033 151.092 435.678 147.447 440.038 147.201C441.911 147.096 443.214 146.561 443.797 145.551C444.38 144.541 444.192 143.145 443.347 141.471C441.379 137.571 442.713 132.592 446.367 130.199C447.936 129.171 448.952 128.057 448.952 126.89Z" stroke="#4479F7" stroke-width="2.46" stroke-miterlimit="10"/>
<path d="M406.811 112.894C406.811 115.471 404.722 117.56 402.146 117.56C399.569 117.56 397.48 115.471 397.48 112.894C397.48 110.318 399.569 108.229 402.146 108.229C404.722 108.229 406.811 110.318 406.811 112.894Z" stroke="#4479F7" stroke-width="2.46" stroke-miterlimit="10"/>
<path d="M425.471 140.885C425.471 143.462 423.382 145.55 420.806 145.55C418.229 145.55 416.141 143.462 416.141 140.885C416.141 138.309 418.229 136.22 420.806 136.22C423.382 136.22 425.471 138.309 425.471 140.885Z" stroke="#4479F7" stroke-width="2.46" stroke-miterlimit="10"/>
<path d="M425.471 108.23L397.48 145.55" stroke="#4479F7" stroke-width="2.46" stroke-miterlimit="10"/>
<path d="M101.313 181.18C101.313 180.318 100.562 179.494 99.4018 178.734C96.7011 176.966 95.7152 173.285 97.1696 170.403C97.7941 169.166 97.9331 168.134 97.5022 167.388C97.0711 166.641 96.1081 166.245 94.7239 166.168C91.5008 165.986 88.8069 163.292 88.6254 160.069C88.5475 158.685 88.1519 157.722 87.4054 157.291C86.6589 156.86 85.6271 156.999 84.3894 157.623C81.5073 159.078 77.8272 158.092 76.0582 155.391C75.2988 154.231 74.4748 153.48 73.6129 153.48C72.751 153.48 71.927 154.231 71.1676 155.391C69.3986 158.092 65.7186 159.078 62.8364 157.623C61.5988 156.999 60.567 156.86 59.8205 157.291C59.074 157.722 58.6783 158.685 58.6004 160.069C58.4189 163.292 55.725 165.986 52.502 166.168C51.1178 166.245 50.1547 166.641 49.7236 167.388C49.2927 168.134 49.4318 169.166 50.0562 170.403C51.5106 173.285 50.5247 176.966 47.824 178.734C46.6643 179.494 45.9131 180.318 45.9131 181.18C45.9131 182.042 46.6643 182.866 47.8239 183.625C50.5246 185.394 51.5106 189.074 50.0562 191.957C49.4318 193.194 49.2927 194.226 49.7236 194.972C50.1546 195.719 51.1178 196.115 52.5017 196.192C55.725 196.374 58.419 199.068 58.6005 202.291C58.6785 203.675 59.074 204.638 59.8205 205.069C60.567 205.5 61.5988 205.361 62.8364 204.737C65.7185 203.282 69.3985 204.268 71.1673 206.969C71.9269 208.129 72.7509 208.88 73.6129 208.88C74.475 208.88 75.2989 208.129 76.0586 206.969C77.8273 204.268 81.5074 203.282 84.3894 204.737C85.6271 205.361 86.6589 205.5 87.4054 205.069C88.1519 204.638 88.5474 203.675 88.6253 202.291C88.8068 199.068 91.5008 196.374 94.7241 196.192C96.1081 196.115 97.0712 195.719 97.5022 194.972C97.9331 194.226 97.7941 193.194 97.1696 191.957C95.7152 189.074 96.7013 185.394 99.4019 183.625C100.562 182.866 101.313 182.042 101.313 181.18Z" stroke="#4479F7" stroke-width="2.46" stroke-miterlimit="10"/>
<path d="M70.1648 170.835C70.1648 172.739 68.6209 174.283 66.7167 174.283C64.8124 174.283 63.2686 172.739 63.2686 170.835C63.2686 168.931 64.8124 167.387 66.7167 167.387C68.6209 167.387 70.1648 168.931 70.1648 170.835Z" stroke="#4479F7" stroke-width="2.46" stroke-miterlimit="10"/>
<path d="M83.9568 191.524C83.9568 193.428 82.4129 194.972 80.5087 194.972C78.6044 194.972 77.0605 193.428 77.0605 191.524C77.0605 189.619 78.6044 188.075 80.5087 188.075C82.4129 188.075 83.9568 189.619 83.9568 191.524Z" stroke="#4479F7" stroke-width="2.46" stroke-miterlimit="10"/>
<path d="M83.9572 167.387L63.2686 194.972" stroke="#4479F7" stroke-width="2.46" stroke-miterlimit="10"/>
<g opacity="0.4" filter="url(#filter3_f_383_2)">
<ellipse cx="55" cy="57.5" rx="55" ry="57.5" transform="matrix(1 0 0 -1 -19 80.5859)" fill="#356DF2"/>
</g>
<g opacity="0.4" filter="url(#filter4_f_383_2)">
<circle cx="41" cy="41" r="41" transform="matrix(1 0 0 -1 280 337)" fill="#356DF2"/>
</g>
<rect x="100.5" y="249.5" width="279" height="41" rx="9.5" fill="#040E32"/>
<rect x="100.5" y="249.5" width="279" height="41" rx="9.5" stroke="#4479F7"/>
<path d="M154.203 269.188V273.531C154.042 273.745 153.789 273.979 153.445 274.234C153.107 274.484 152.656 274.701 152.094 274.883C151.531 275.065 150.831 275.156 149.992 275.156C149.279 275.156 148.625 275.036 148.031 274.797C147.438 274.552 146.924 274.195 146.492 273.727C146.065 273.258 145.734 272.688 145.5 272.016C145.266 271.339 145.148 270.568 145.148 269.703V268.914C145.148 268.055 145.255 267.289 145.469 266.617C145.688 265.94 146 265.367 146.406 264.898C146.812 264.43 147.302 264.076 147.875 263.836C148.453 263.591 149.107 263.469 149.836 263.469C150.768 263.469 151.539 263.625 152.148 263.938C152.763 264.245 153.237 264.672 153.57 265.219C153.904 265.766 154.115 266.391 154.203 267.094H152.281C152.219 266.698 152.096 266.344 151.914 266.031C151.737 265.719 151.482 265.474 151.148 265.297C150.82 265.115 150.393 265.023 149.867 265.023C149.414 265.023 149.016 265.109 148.672 265.281C148.328 265.453 148.042 265.706 147.812 266.039C147.589 266.372 147.419 266.779 147.305 267.258C147.19 267.737 147.133 268.284 147.133 268.898V269.703C147.133 270.328 147.198 270.883 147.328 271.367C147.464 271.852 147.656 272.26 147.906 272.594C148.161 272.927 148.471 273.18 148.836 273.352C149.201 273.518 149.612 273.602 150.07 273.602C150.518 273.602 150.885 273.565 151.172 273.492C151.458 273.414 151.685 273.323 151.852 273.219C152.023 273.109 152.156 273.005 152.25 272.906V270.648H149.883V269.188H154.203ZM163.82 273.445V275H157.781V273.445H163.82ZM158.336 263.625V275H156.375V263.625H158.336ZM163.031 268.375V269.906H157.781V268.375H163.031ZM163.781 263.625V265.188H157.781V263.625H163.781ZM174.445 263.625V275H172.484L167.383 266.852V275H165.422V263.625H167.383L172.5 271.789V263.625H174.445ZM184.227 273.445V275H178.188V273.445H184.227ZM178.742 263.625V275H176.781V263.625H178.742ZM183.438 268.375V269.906H178.188V268.375H183.438ZM184.188 263.625V265.188H178.188V263.625H184.188ZM185.828 263.625H189.852C190.716 263.625 191.453 263.755 192.062 264.016C192.672 264.276 193.138 264.661 193.461 265.172C193.789 265.677 193.953 266.302 193.953 267.047C193.953 267.615 193.849 268.115 193.641 268.547C193.432 268.979 193.138 269.344 192.758 269.641C192.378 269.932 191.924 270.159 191.398 270.32L190.805 270.609H187.188L187.172 269.055H189.883C190.352 269.055 190.742 268.971 191.055 268.805C191.367 268.638 191.602 268.411 191.758 268.125C191.919 267.833 192 267.505 192 267.141C192 266.745 191.922 266.401 191.766 266.109C191.615 265.812 191.38 265.586 191.062 265.43C190.745 265.268 190.341 265.188 189.852 265.188H187.789V275H185.828V263.625ZM192.32 275L189.648 269.891L191.703 269.883L194.414 274.898V275H192.32ZM200.336 265.141L196.938 275H194.883L199.164 263.625H200.477L200.336 265.141ZM203.18 275L199.773 265.141L199.625 263.625H200.945L205.242 275H203.18ZM203.016 270.781V272.336H196.828V270.781H203.016ZM210.211 263.625V275H208.266V263.625H210.211ZM213.781 263.625V265.188H204.727V263.625H213.781ZM222.727 273.445V275H216.688V273.445H222.727ZM217.242 263.625V275H215.281V263.625H217.242ZM221.938 268.375V269.906H216.688V268.375H221.938ZM222.688 263.625V265.188H216.688V263.625H222.688ZM235.031 271.297H236.984C236.922 272.042 236.714 272.706 236.359 273.289C236.005 273.867 235.508 274.323 234.867 274.656C234.227 274.99 233.448 275.156 232.531 275.156C231.828 275.156 231.195 275.031 230.633 274.781C230.07 274.526 229.589 274.167 229.188 273.703C228.786 273.234 228.479 272.669 228.266 272.008C228.057 271.346 227.953 270.607 227.953 269.789V268.844C227.953 268.026 228.06 267.286 228.273 266.625C228.492 265.964 228.805 265.398 229.211 264.93C229.617 264.456 230.104 264.094 230.672 263.844C231.245 263.594 231.888 263.469 232.602 263.469C233.508 263.469 234.273 263.635 234.898 263.969C235.523 264.302 236.008 264.763 236.352 265.352C236.701 265.94 236.914 266.615 236.992 267.375H235.039C234.987 266.885 234.872 266.466 234.695 266.117C234.523 265.768 234.268 265.503 233.93 265.32C233.591 265.133 233.148 265.039 232.602 265.039C232.154 265.039 231.763 265.122 231.43 265.289C231.096 265.456 230.818 265.701 230.594 266.023C230.37 266.346 230.201 266.745 230.086 267.219C229.977 267.688 229.922 268.224 229.922 268.828V269.789C229.922 270.362 229.971 270.883 230.07 271.352C230.174 271.815 230.331 272.214 230.539 272.547C230.753 272.88 231.023 273.138 231.352 273.32C231.68 273.503 232.073 273.594 232.531 273.594C233.089 273.594 233.539 273.505 233.883 273.328C234.232 273.151 234.495 272.893 234.672 272.555C234.854 272.211 234.974 271.792 235.031 271.297ZM247.836 269V269.625C247.836 270.484 247.724 271.255 247.5 271.938C247.276 272.62 246.956 273.201 246.539 273.68C246.128 274.159 245.633 274.526 245.055 274.781C244.477 275.031 243.836 275.156 243.133 275.156C242.435 275.156 241.797 275.031 241.219 274.781C240.646 274.526 240.148 274.159 239.727 273.68C239.305 273.201 238.977 272.62 238.742 271.938C238.513 271.255 238.398 270.484 238.398 269.625V269C238.398 268.141 238.513 267.372 238.742 266.695C238.971 266.013 239.294 265.432 239.711 264.953C240.133 264.469 240.63 264.102 241.203 263.852C241.781 263.596 242.419 263.469 243.117 263.469C243.82 263.469 244.461 263.596 245.039 263.852C245.617 264.102 246.115 264.469 246.531 264.953C246.948 265.432 247.268 266.013 247.492 266.695C247.721 267.372 247.836 268.141 247.836 269ZM245.875 269.625V268.984C245.875 268.349 245.812 267.789 245.688 267.305C245.568 266.815 245.388 266.406 245.148 266.078C244.914 265.745 244.625 265.495 244.281 265.328C243.938 265.156 243.549 265.07 243.117 265.07C242.685 265.07 242.299 265.156 241.961 265.328C241.622 265.495 241.333 265.745 241.094 266.078C240.859 266.406 240.68 266.815 240.555 267.305C240.43 267.789 240.367 268.349 240.367 268.984V269.625C240.367 270.26 240.43 270.823 240.555 271.312C240.68 271.802 240.862 272.216 241.102 272.555C241.346 272.888 241.638 273.141 241.977 273.312C242.315 273.479 242.701 273.562 243.133 273.562C243.57 273.562 243.958 273.479 244.297 273.312C244.635 273.141 244.922 272.888 245.156 272.555C245.391 272.216 245.568 271.802 245.688 271.312C245.812 270.823 245.875 270.26 245.875 269.625ZM256.18 263.625H258.133V271.227C258.133 272.091 257.945 272.815 257.57 273.398C257.195 273.982 256.685 274.422 256.039 274.719C255.398 275.01 254.682 275.156 253.891 275.156C253.073 275.156 252.344 275.01 251.703 274.719C251.062 274.422 250.557 273.982 250.188 273.398C249.823 272.815 249.641 272.091 249.641 271.227V263.625H251.594V271.227C251.594 271.773 251.688 272.224 251.875 272.578C252.062 272.927 252.328 273.185 252.672 273.352C253.016 273.518 253.422 273.602 253.891 273.602C254.359 273.602 254.763 273.518 255.102 273.352C255.445 273.185 255.711 272.927 255.898 272.578C256.086 272.224 256.18 271.773 256.18 271.227V263.625ZM264.586 270.758H261.625V269.203H264.586C265.102 269.203 265.518 269.12 265.836 268.953C266.154 268.786 266.385 268.557 266.531 268.266C266.682 267.969 266.758 267.63 266.758 267.25C266.758 266.891 266.682 266.555 266.531 266.242C266.385 265.924 266.154 265.669 265.836 265.477C265.518 265.284 265.102 265.188 264.586 265.188H262.227V275H260.266V263.625H264.586C265.466 263.625 266.214 263.781 266.828 264.094C267.448 264.401 267.919 264.828 268.242 265.375C268.565 265.917 268.727 266.536 268.727 267.234C268.727 267.969 268.565 268.599 268.242 269.125C267.919 269.651 267.448 270.055 266.828 270.336C266.214 270.617 265.466 270.758 264.586 270.758ZM279.555 269V269.625C279.555 270.484 279.443 271.255 279.219 271.938C278.995 272.62 278.674 273.201 278.258 273.68C277.846 274.159 277.352 274.526 276.773 274.781C276.195 275.031 275.555 275.156 274.852 275.156C274.154 275.156 273.516 275.031 272.938 274.781C272.365 274.526 271.867 274.159 271.445 273.68C271.023 273.201 270.695 272.62 270.461 271.938C270.232 271.255 270.117 270.484 270.117 269.625V269C270.117 268.141 270.232 267.372 270.461 266.695C270.69 266.013 271.013 265.432 271.43 264.953C271.852 264.469 272.349 264.102 272.922 263.852C273.5 263.596 274.138 263.469 274.836 263.469C275.539 263.469 276.18 263.596 276.758 263.852C277.336 264.102 277.833 264.469 278.25 264.953C278.667 265.432 278.987 266.013 279.211 266.695C279.44 267.372 279.555 268.141 279.555 269ZM277.594 269.625V268.984C277.594 268.349 277.531 267.789 277.406 267.305C277.286 266.815 277.107 266.406 276.867 266.078C276.633 265.745 276.344 265.495 276 265.328C275.656 265.156 275.268 265.07 274.836 265.07C274.404 265.07 274.018 265.156 273.68 265.328C273.341 265.495 273.052 265.745 272.812 266.078C272.578 266.406 272.398 266.815 272.273 267.305C272.148 267.789 272.086 268.349 272.086 268.984V269.625C272.086 270.26 272.148 270.823 272.273 271.312C272.398 271.802 272.581 272.216 272.82 272.555C273.065 272.888 273.357 273.141 273.695 273.312C274.034 273.479 274.419 273.562 274.852 273.562C275.289 273.562 275.677 273.479 276.016 273.312C276.354 273.141 276.641 272.888 276.875 272.555C277.109 272.216 277.286 271.802 277.406 271.312C277.531 270.823 277.594 270.26 277.594 269.625ZM290.539 263.625V275H288.578L283.477 266.852V275H281.516V263.625H283.477L288.594 271.789V263.625H290.539ZM303.578 271.297H305.531C305.469 272.042 305.26 272.706 304.906 273.289C304.552 273.867 304.055 274.323 303.414 274.656C302.773 274.99 301.995 275.156 301.078 275.156C300.375 275.156 299.742 275.031 299.18 274.781C298.617 274.526 298.135 274.167 297.734 273.703C297.333 273.234 297.026 272.669 296.812 272.008C296.604 271.346 296.5 270.607 296.5 269.789V268.844C296.5 268.026 296.607 267.286 296.82 266.625C297.039 265.964 297.352 265.398 297.758 264.93C298.164 264.456 298.651 264.094 299.219 263.844C299.792 263.594 300.435 263.469 301.148 263.469C302.055 263.469 302.82 263.635 303.445 263.969C304.07 264.302 304.555 264.763 304.898 265.352C305.247 265.94 305.461 266.615 305.539 267.375H303.586C303.534 266.885 303.419 266.466 303.242 266.117C303.07 265.768 302.815 265.503 302.477 265.32C302.138 265.133 301.695 265.039 301.148 265.039C300.701 265.039 300.31 265.122 299.977 265.289C299.643 265.456 299.365 265.701 299.141 266.023C298.917 266.346 298.747 266.745 298.633 267.219C298.523 267.688 298.469 268.224 298.469 268.828V269.789C298.469 270.362 298.518 270.883 298.617 271.352C298.721 271.815 298.878 272.214 299.086 272.547C299.299 272.88 299.57 273.138 299.898 273.32C300.227 273.503 300.62 273.594 301.078 273.594C301.635 273.594 302.086 273.505 302.43 273.328C302.779 273.151 303.042 272.893 303.219 272.555C303.401 272.211 303.521 271.792 303.578 271.297ZM316.383 269V269.625C316.383 270.484 316.271 271.255 316.047 271.938C315.823 272.62 315.503 273.201 315.086 273.68C314.674 274.159 314.18 274.526 313.602 274.781C313.023 275.031 312.383 275.156 311.68 275.156C310.982 275.156 310.344 275.031 309.766 274.781C309.193 274.526 308.695 274.159 308.273 273.68C307.852 273.201 307.523 272.62 307.289 271.938C307.06 271.255 306.945 270.484 306.945 269.625V269C306.945 268.141 307.06 267.372 307.289 266.695C307.518 266.013 307.841 265.432 308.258 264.953C308.68 264.469 309.177 264.102 309.75 263.852C310.328 263.596 310.966 263.469 311.664 263.469C312.367 263.469 313.008 263.596 313.586 263.852C314.164 264.102 314.661 264.469 315.078 264.953C315.495 265.432 315.815 266.013 316.039 266.695C316.268 267.372 316.383 268.141 316.383 269ZM314.422 269.625V268.984C314.422 268.349 314.359 267.789 314.234 267.305C314.115 266.815 313.935 266.406 313.695 266.078C313.461 265.745 313.172 265.495 312.828 265.328C312.484 265.156 312.096 265.07 311.664 265.07C311.232 265.07 310.846 265.156 310.508 265.328C310.169 265.495 309.88 265.745 309.641 266.078C309.406 266.406 309.227 266.815 309.102 267.305C308.977 267.789 308.914 268.349 308.914 268.984V269.625C308.914 270.26 308.977 270.823 309.102 271.312C309.227 271.802 309.409 272.216 309.648 272.555C309.893 272.888 310.185 273.141 310.523 273.312C310.862 273.479 311.247 273.562 311.68 273.562C312.117 273.562 312.505 273.479 312.844 273.312C313.182 273.141 313.469 272.888 313.703 272.555C313.938 272.216 314.115 271.802 314.234 271.312C314.359 270.823 314.422 270.26 314.422 269.625ZM321.648 275H319.219L319.234 273.445H321.648C322.352 273.445 322.94 273.292 323.414 272.984C323.893 272.677 324.253 272.237 324.492 271.664C324.737 271.091 324.859 270.409 324.859 269.617V269C324.859 268.385 324.789 267.841 324.648 267.367C324.513 266.893 324.31 266.495 324.039 266.172C323.773 265.849 323.445 265.604 323.055 265.438C322.669 265.271 322.224 265.188 321.719 265.188H319.172V263.625H321.719C322.474 263.625 323.164 263.753 323.789 264.008C324.414 264.258 324.953 264.62 325.406 265.094C325.865 265.568 326.216 266.135 326.461 266.797C326.706 267.458 326.828 268.198 326.828 269.016V269.617C326.828 270.435 326.706 271.174 326.461 271.836C326.216 272.497 325.865 273.065 325.406 273.539C324.948 274.008 324.401 274.37 323.766 274.625C323.135 274.875 322.43 275 321.648 275ZM320.305 263.625V275H318.344V263.625H320.305ZM336.242 273.445V275H330.203V273.445H336.242ZM330.758 263.625V275H328.797V263.625H330.758ZM335.453 268.375V269.906H330.203V268.375H335.453ZM336.203 263.625V265.188H330.203V263.625H336.203Z" fill="white"/>
<path d="M92.0186 46.5156H95.8145V58.7285C95.8145 60.1504 95.5098 61.348 94.9004 62.3213C94.2995 63.2946 93.4658 64.0267 92.3994 64.5176C91.3415 65.0085 90.1227 65.2539 88.7432 65.2539C87.3636 65.2539 86.1364 65.0085 85.0615 64.5176C83.9951 64.0267 83.1572 63.2946 82.5479 62.3213C81.9469 61.348 81.6465 60.1504 81.6465 58.7285V46.5156H85.4551V58.7285C85.4551 59.5579 85.5863 60.235 85.8486 60.7598C86.111 61.2845 86.4876 61.6696 86.9785 61.915C87.4779 62.1605 88.0661 62.2832 88.7432 62.2832C89.4372 62.2832 90.0254 62.1605 90.5078 61.915C90.9987 61.6696 91.3711 61.2845 91.625 60.7598C91.8874 60.235 92.0186 59.5579 92.0186 58.7285V46.5156ZM102.302 54.1963V65H98.6455V51.2637H102.073L102.302 54.1963ZM101.769 57.6494H100.778C100.778 56.6338 100.91 55.7197 101.172 54.9072C101.434 54.0863 101.802 53.388 102.276 52.8125C102.75 52.2285 103.313 51.7842 103.965 51.4795C104.625 51.1663 105.361 51.0098 106.174 51.0098C106.817 51.0098 107.405 51.1029 107.938 51.2891C108.472 51.4753 108.929 51.7715 109.31 52.1777C109.699 52.584 109.995 53.1214 110.198 53.79C110.41 54.4587 110.516 55.2754 110.516 56.2402V65H106.834V56.2275C106.834 55.6182 106.749 55.1442 106.58 54.8057C106.411 54.4671 106.161 54.2301 105.831 54.0947C105.509 53.9508 105.112 53.8789 104.638 53.8789C104.147 53.8789 103.719 53.9762 103.355 54.1709C103 54.3656 102.704 54.6364 102.467 54.9834C102.238 55.3219 102.065 55.7197 101.946 56.1768C101.828 56.6338 101.769 57.1247 101.769 57.6494ZM117.155 45.5V65H113.486V45.5H117.155ZM119.593 58.2715V58.0049C119.593 56.9977 119.737 56.071 120.024 55.2246C120.312 54.3698 120.731 53.6292 121.281 53.0029C121.831 52.3766 122.508 51.89 123.312 51.543C124.117 51.1875 125.039 51.0098 126.08 51.0098C127.121 51.0098 128.048 51.1875 128.86 51.543C129.673 51.89 130.354 52.3766 130.904 53.0029C131.463 53.6292 131.886 54.3698 132.174 55.2246C132.462 56.071 132.605 56.9977 132.605 58.0049V58.2715C132.605 59.2702 132.462 60.1969 132.174 61.0518C131.886 61.8981 131.463 62.6387 130.904 63.2734C130.354 63.8997 129.677 64.3864 128.873 64.7334C128.069 65.0804 127.146 65.2539 126.105 65.2539C125.064 65.2539 124.138 65.0804 123.325 64.7334C122.521 64.3864 121.84 63.8997 121.281 63.2734C120.731 62.6387 120.312 61.8981 120.024 61.0518C119.737 60.1969 119.593 59.2702 119.593 58.2715ZM123.249 58.0049V58.2715C123.249 58.847 123.3 59.3844 123.401 59.8838C123.503 60.3831 123.664 60.8232 123.884 61.2041C124.112 61.5765 124.409 61.8685 124.772 62.0801C125.136 62.2917 125.581 62.3975 126.105 62.3975C126.613 62.3975 127.049 62.2917 127.413 62.0801C127.777 61.8685 128.069 61.5765 128.289 61.2041C128.509 60.8232 128.67 60.3831 128.771 59.8838C128.882 59.3844 128.937 58.847 128.937 58.2715V58.0049C128.937 57.4463 128.882 56.9215 128.771 56.4307C128.67 55.9313 128.505 55.4912 128.276 55.1104C128.056 54.721 127.764 54.4163 127.4 54.1963C127.036 53.9762 126.596 53.8662 126.08 53.8662C125.564 53.8662 125.124 53.9762 124.76 54.1963C124.404 54.4163 124.112 54.721 123.884 55.1104C123.664 55.4912 123.503 55.9313 123.401 56.4307C123.3 56.9215 123.249 57.4463 123.249 58.0049ZM140.527 62.3975C140.976 62.3975 141.374 62.3128 141.721 62.1436C142.068 61.9658 142.339 61.7204 142.533 61.4072C142.736 61.0856 142.842 60.709 142.851 60.2773H146.291C146.283 61.2422 146.024 62.1012 145.517 62.8545C145.009 63.5993 144.327 64.1875 143.473 64.6191C142.618 65.0423 141.661 65.2539 140.604 65.2539C139.537 65.2539 138.606 65.0762 137.811 64.7207C137.023 64.3652 136.368 63.8743 135.843 63.248C135.318 62.6133 134.924 61.877 134.662 61.0391C134.4 60.1927 134.269 59.2871 134.269 58.3223V57.9541C134.269 56.9808 134.4 56.0752 134.662 55.2373C134.924 54.391 135.318 53.6546 135.843 53.0283C136.368 52.3936 137.023 51.8984 137.811 51.543C138.598 51.1875 139.52 51.0098 140.578 51.0098C141.704 51.0098 142.69 51.2256 143.536 51.6572C144.391 52.0889 145.06 52.7067 145.542 53.5107C146.033 54.3063 146.283 55.25 146.291 56.3418H142.851C142.842 55.8848 142.745 55.4701 142.559 55.0977C142.381 54.7253 142.118 54.429 141.771 54.209C141.433 53.9805 141.014 53.8662 140.515 53.8662C139.981 53.8662 139.546 53.9805 139.207 54.209C138.868 54.429 138.606 54.7337 138.42 55.123C138.234 55.5039 138.103 55.9398 138.026 56.4307C137.959 56.9131 137.925 57.4209 137.925 57.9541V58.3223C137.925 58.8555 137.959 59.3675 138.026 59.8584C138.094 60.3493 138.221 60.7852 138.407 61.166C138.602 61.5469 138.868 61.8473 139.207 62.0674C139.546 62.2874 139.986 62.3975 140.527 62.3975ZM152.067 45.4873V65H148.411V45.4873H152.067ZM160.726 51.2637L154.759 58.0684L151.56 61.3057L150.227 58.665L152.766 55.4404L156.333 51.2637H160.726ZM156.93 65L152.867 58.6523L155.394 56.4434L161.145 65H156.93ZM171.542 46.5156L175.401 54.9453L179.261 46.5156H183.412L177.331 58.2715V65H173.472V58.2715L167.378 46.5156H171.542ZM183.45 58.2715V58.0049C183.45 56.9977 183.594 56.071 183.882 55.2246C184.17 54.3698 184.589 53.6292 185.139 53.0029C185.689 52.3766 186.366 51.89 187.17 51.543C187.974 51.1875 188.896 51.0098 189.938 51.0098C190.979 51.0098 191.905 51.1875 192.718 51.543C193.53 51.89 194.212 52.3766 194.762 53.0029C195.32 53.6292 195.743 54.3698 196.031 55.2246C196.319 56.071 196.463 56.9977 196.463 58.0049V58.2715C196.463 59.2702 196.319 60.1969 196.031 61.0518C195.743 61.8981 195.32 62.6387 194.762 63.2734C194.212 63.8997 193.535 64.3864 192.73 64.7334C191.926 65.0804 191.004 65.2539 189.963 65.2539C188.922 65.2539 187.995 65.0804 187.183 64.7334C186.379 64.3864 185.697 63.8997 185.139 63.2734C184.589 62.6387 184.17 61.8981 183.882 61.0518C183.594 60.1969 183.45 59.2702 183.45 58.2715ZM187.106 58.0049V58.2715C187.106 58.847 187.157 59.3844 187.259 59.8838C187.36 60.3831 187.521 60.8232 187.741 61.2041C187.97 61.5765 188.266 61.8685 188.63 62.0801C188.994 62.2917 189.438 62.3975 189.963 62.3975C190.471 62.3975 190.907 62.2917 191.271 62.0801C191.634 61.8685 191.926 61.5765 192.146 61.2041C192.367 60.8232 192.527 60.3831 192.629 59.8838C192.739 59.3844 192.794 58.847 192.794 58.2715V58.0049C192.794 57.4463 192.739 56.9215 192.629 56.4307C192.527 55.9313 192.362 55.4912 192.134 55.1104C191.914 54.721 191.622 54.4163 191.258 54.1963C190.894 53.9762 190.454 53.8662 189.938 53.8662C189.421 53.8662 188.981 53.9762 188.617 54.1963C188.262 54.4163 187.97 54.721 187.741 55.1104C187.521 55.4912 187.36 55.9313 187.259 56.4307C187.157 56.9215 187.106 57.4463 187.106 58.0049ZM206.835 61.7119V51.2637H210.491V65H207.051L206.835 61.7119ZM207.241 58.8936L208.32 58.8682C208.32 59.7822 208.215 60.6328 208.003 61.4199C207.791 62.1986 207.474 62.8757 207.051 63.4512C206.628 64.0182 206.094 64.4626 205.451 64.7842C204.808 65.0973 204.05 65.2539 203.179 65.2539C202.51 65.2539 201.892 65.1608 201.325 64.9746C200.767 64.7799 200.284 64.4795 199.878 64.0732C199.48 63.6585 199.167 63.1296 198.938 62.4863C198.718 61.8346 198.608 61.0518 198.608 60.1377V51.2637H202.265V60.1631C202.265 60.5693 202.311 60.9121 202.404 61.1914C202.506 61.4707 202.646 61.6992 202.823 61.877C203.001 62.0547 203.208 62.1816 203.445 62.2578C203.691 62.334 203.962 62.3721 204.258 62.3721C205.011 62.3721 205.604 62.2197 206.035 61.915C206.475 61.6104 206.784 61.1956 206.962 60.6709C207.148 60.1377 207.241 59.5452 207.241 58.8936ZM216.94 54.2598V65H213.284V51.2637H216.725L216.94 54.2598ZM221.079 51.1748L221.016 54.5645C220.838 54.5391 220.622 54.5179 220.368 54.501C220.123 54.4756 219.898 54.4629 219.695 54.4629C219.179 54.4629 218.73 54.5306 218.35 54.666C217.977 54.793 217.664 54.9834 217.41 55.2373C217.165 55.4912 216.979 55.8001 216.852 56.1641C216.733 56.528 216.665 56.9427 216.648 57.4082L215.912 57.1797C215.912 56.291 216.001 55.4743 216.179 54.7295C216.356 53.9762 216.615 53.3203 216.953 52.7617C217.3 52.2031 217.723 51.7715 218.223 51.4668C218.722 51.1621 219.293 51.0098 219.937 51.0098C220.14 51.0098 220.347 51.0267 220.559 51.0605C220.77 51.0859 220.944 51.124 221.079 51.1748ZM235.184 65H231.159L231.185 62.0293H235.184C236.182 62.0293 237.024 61.805 237.71 61.3564C238.396 60.8994 238.912 60.235 239.259 59.3633C239.614 58.4915 239.792 57.4378 239.792 56.2021V55.3008C239.792 54.3529 239.69 53.5192 239.487 52.7998C239.293 52.0804 239.001 51.4753 238.611 50.9844C238.222 50.4935 237.744 50.1253 237.177 49.8799C236.61 49.626 235.958 49.499 235.222 49.499H231.083V46.5156H235.222C236.457 46.5156 237.587 46.7272 238.611 47.1504C239.644 47.5651 240.537 48.1618 241.29 48.9404C242.043 49.7191 242.623 50.6501 243.029 51.7334C243.444 52.8083 243.651 54.0059 243.651 55.3262V56.2021C243.651 57.514 243.444 58.7116 243.029 59.7949C242.623 60.8783 242.043 61.8092 241.29 62.5879C240.545 63.3581 239.652 63.9548 238.611 64.3779C237.579 64.7926 236.436 65 235.184 65ZM233.317 46.5156V65H229.509V46.5156H233.317ZM250.05 51.2637V65H246.381V51.2637H250.05ZM246.152 47.6836C246.152 47.1504 246.339 46.7103 246.711 46.3633C247.083 46.0163 247.583 45.8428 248.209 45.8428C248.827 45.8428 249.322 46.0163 249.694 46.3633C250.075 46.7103 250.266 47.1504 250.266 47.6836C250.266 48.2168 250.075 48.6569 249.694 49.0039C249.322 49.3509 248.827 49.5244 248.209 49.5244C247.583 49.5244 247.083 49.3509 246.711 49.0039C246.339 48.6569 246.152 48.2168 246.152 47.6836ZM260.485 61.9023V55.7832C260.485 55.3431 260.413 54.9665 260.27 54.6533C260.126 54.3317 259.901 54.082 259.597 53.9043C259.3 53.7266 258.915 53.6377 258.441 53.6377C258.035 53.6377 257.684 53.7096 257.388 53.8535C257.091 53.9889 256.863 54.1878 256.702 54.4502C256.541 54.7041 256.461 55.0046 256.461 55.3516H252.805C252.805 54.7676 252.94 54.2132 253.211 53.6885C253.482 53.1637 253.875 52.7025 254.392 52.3047C254.908 51.8984 255.521 51.5811 256.232 51.3525C256.952 51.124 257.756 51.0098 258.645 51.0098C259.711 51.0098 260.659 51.1875 261.488 51.543C262.318 51.8984 262.969 52.4316 263.443 53.1426C263.926 53.8535 264.167 54.7422 264.167 55.8086V61.6865C264.167 62.4398 264.214 63.0576 264.307 63.54C264.4 64.014 264.535 64.4287 264.713 64.7842V65H261.019C260.841 64.6276 260.705 64.1621 260.612 63.6035C260.528 63.0365 260.485 62.4694 260.485 61.9023ZM260.968 56.6338L260.993 58.7031H258.949C258.467 58.7031 258.048 58.7581 257.692 58.8682C257.337 58.9782 257.045 59.1348 256.816 59.3379C256.588 59.5326 256.419 59.7611 256.309 60.0234C256.207 60.2858 256.156 60.5736 256.156 60.8867C256.156 61.1999 256.228 61.4834 256.372 61.7373C256.516 61.9827 256.723 62.1774 256.994 62.3213C257.265 62.4567 257.582 62.5244 257.946 62.5244C258.496 62.5244 258.975 62.4144 259.381 62.1943C259.787 61.9743 260.1 61.7035 260.32 61.3818C260.549 61.0602 260.667 60.7555 260.676 60.4678L261.641 62.0166C261.505 62.3636 261.319 62.7233 261.082 63.0957C260.854 63.4681 260.562 63.8193 260.206 64.1494C259.851 64.471 259.423 64.7376 258.924 64.9492C258.424 65.1523 257.832 65.2539 257.146 65.2539C256.275 65.2539 255.483 65.0804 254.772 64.7334C254.07 64.3779 253.511 63.8913 253.097 63.2734C252.69 62.6471 252.487 61.9362 252.487 61.1406C252.487 60.4212 252.623 59.7822 252.894 59.2236C253.164 58.665 253.562 58.1953 254.087 57.8145C254.62 57.4251 255.285 57.1331 256.08 56.9385C256.876 56.7354 257.798 56.6338 258.848 56.6338H260.968ZM270.642 54.1074V65H266.973V51.2637H270.413L270.642 54.1074ZM270.134 57.6494H269.118C269.118 56.693 269.232 55.8128 269.461 55.0088C269.698 54.1963 270.041 53.4938 270.489 52.9014C270.946 52.3005 271.509 51.835 272.178 51.5049C272.846 51.1748 273.621 51.0098 274.501 51.0098C275.11 51.0098 275.669 51.1029 276.177 51.2891C276.685 51.4668 277.12 51.7503 277.484 52.1396C277.857 52.5205 278.145 53.0199 278.348 53.6377C278.551 54.2471 278.652 54.9792 278.652 55.834V65H274.996V56.2402C274.996 55.6139 274.911 55.1315 274.742 54.793C274.573 54.4544 274.332 54.2174 274.019 54.082C273.714 53.9466 273.346 53.8789 272.914 53.8789C272.44 53.8789 272.025 53.9762 271.67 54.1709C271.323 54.3656 271.035 54.6364 270.807 54.9834C270.578 55.3219 270.409 55.7197 270.299 56.1768C270.189 56.6338 270.134 57.1247 270.134 57.6494ZM278.31 57.2305L277.002 57.3955C277.002 56.4984 277.112 55.6647 277.332 54.8945C277.561 54.1243 277.895 53.4473 278.335 52.8633C278.784 52.2793 279.338 51.8265 279.998 51.5049C280.658 51.1748 281.42 51.0098 282.283 51.0098C282.943 51.0098 283.544 51.1071 284.086 51.3018C284.628 51.488 285.089 51.7884 285.47 52.2031C285.859 52.6094 286.155 53.1426 286.358 53.8027C286.57 54.4629 286.676 55.2712 286.676 56.2275V65H283.007V56.2275C283.007 55.5928 282.922 55.1104 282.753 54.7803C282.592 54.4417 282.355 54.209 282.042 54.082C281.737 53.9466 281.373 53.8789 280.95 53.8789C280.51 53.8789 280.125 53.9678 279.795 54.1455C279.465 54.3148 279.19 54.5518 278.97 54.8564C278.75 55.1611 278.585 55.5166 278.475 55.9229C278.365 56.3206 278.31 56.7565 278.31 57.2305ZM288.923 58.2715V58.0049C288.923 56.9977 289.067 56.071 289.354 55.2246C289.642 54.3698 290.061 53.6292 290.611 53.0029C291.161 52.3766 291.839 51.89 292.643 51.543C293.447 51.1875 294.369 51.0098 295.41 51.0098C296.451 51.0098 297.378 51.1875 298.19 51.543C299.003 51.89 299.684 52.3766 300.234 53.0029C300.793 53.6292 301.216 54.3698 301.504 55.2246C301.792 56.071 301.936 56.9977 301.936 58.0049V58.2715C301.936 59.2702 301.792 60.1969 301.504 61.0518C301.216 61.8981 300.793 62.6387 300.234 63.2734C299.684 63.8997 299.007 64.3864 298.203 64.7334C297.399 65.0804 296.477 65.2539 295.436 65.2539C294.395 65.2539 293.468 65.0804 292.655 64.7334C291.851 64.3864 291.17 63.8997 290.611 63.2734C290.061 62.6387 289.642 61.8981 289.354 61.0518C289.067 60.1969 288.923 59.2702 288.923 58.2715ZM292.579 58.0049V58.2715C292.579 58.847 292.63 59.3844 292.731 59.8838C292.833 60.3831 292.994 60.8232 293.214 61.2041C293.442 61.5765 293.739 61.8685 294.103 62.0801C294.466 62.2917 294.911 62.3975 295.436 62.3975C295.943 62.3975 296.379 62.2917 296.743 62.0801C297.107 61.8685 297.399 61.5765 297.619 61.2041C297.839 60.8232 298 60.3831 298.102 59.8838C298.212 59.3844 298.267 58.847 298.267 58.2715V58.0049C298.267 57.4463 298.212 56.9215 298.102 56.4307C298 55.9313 297.835 55.4912 297.606 55.1104C297.386 54.721 297.094 54.4163 296.73 54.1963C296.367 53.9762 295.926 53.8662 295.41 53.8662C294.894 53.8662 294.454 53.9762 294.09 54.1963C293.734 54.4163 293.442 54.721 293.214 55.1104C292.994 55.4912 292.833 55.9313 292.731 56.4307C292.63 56.9215 292.579 57.4463 292.579 58.0049ZM307.763 54.1963V65H304.106V51.2637H307.534L307.763 54.1963ZM307.229 57.6494H306.239C306.239 56.6338 306.37 55.7197 306.633 54.9072C306.895 54.0863 307.263 53.388 307.737 52.8125C308.211 52.2285 308.774 51.7842 309.426 51.4795C310.086 51.1663 310.822 51.0098 311.635 51.0098C312.278 51.0098 312.866 51.1029 313.399 51.2891C313.933 51.4753 314.39 51.7715 314.771 52.1777C315.16 52.584 315.456 53.1214 315.659 53.79C315.871 54.4587 315.977 55.2754 315.977 56.2402V65H312.295V56.2275C312.295 55.6182 312.21 55.1442 312.041 54.8057C311.872 54.4671 311.622 54.2301 311.292 54.0947C310.97 53.9508 310.573 53.8789 310.099 53.8789C309.608 53.8789 309.18 53.9762 308.816 54.1709C308.461 54.3656 308.165 54.6364 307.928 54.9834C307.699 55.3219 307.526 55.7197 307.407 56.1768C307.289 56.6338 307.229 57.1247 307.229 57.6494ZM326.869 62.0039V45.5H330.551V65H327.237L326.869 62.0039ZM318.186 58.2969V58.0303C318.186 56.9808 318.304 56.0286 318.541 55.1738C318.778 54.3105 319.125 53.57 319.582 52.9521C320.039 52.3343 320.602 51.8561 321.271 51.5176C321.939 51.179 322.701 51.0098 323.556 51.0098C324.36 51.0098 325.062 51.179 325.663 51.5176C326.272 51.8561 326.789 52.3385 327.212 52.9648C327.644 53.5827 327.991 54.3148 328.253 55.1611C328.515 55.999 328.706 56.9173 328.824 57.916V58.5C328.706 59.4564 328.515 60.3451 328.253 61.166C327.991 61.987 327.644 62.7064 327.212 63.3242C326.789 63.9336 326.272 64.4076 325.663 64.7461C325.054 65.0846 324.343 65.2539 323.53 65.2539C322.675 65.2539 321.914 65.0804 321.245 64.7334C320.585 64.3864 320.026 63.8997 319.569 63.2734C319.121 62.6471 318.778 61.9108 318.541 61.0645C318.304 60.2181 318.186 59.2956 318.186 58.2969ZM321.842 58.0303V58.2969C321.842 58.8639 321.884 59.3929 321.969 59.8838C322.062 60.3747 322.21 60.8105 322.413 61.1914C322.625 61.5638 322.896 61.8558 323.226 62.0674C323.564 62.2705 323.975 62.3721 324.457 62.3721C325.083 62.3721 325.6 62.2324 326.006 61.9531C326.412 61.6654 326.721 61.2718 326.933 60.7725C327.153 60.2731 327.28 59.6976 327.313 59.0459V57.3828C327.288 56.8496 327.212 56.3714 327.085 55.9482C326.966 55.5166 326.789 55.1484 326.552 54.8438C326.323 54.5391 326.035 54.3021 325.688 54.1328C325.35 53.9635 324.948 53.8789 324.482 53.8789C324.008 53.8789 323.602 53.9889 323.264 54.209C322.925 54.4206 322.65 54.7126 322.438 55.085C322.235 55.4574 322.083 55.8975 321.981 56.4053C321.888 56.9046 321.842 57.4463 321.842 58.0303ZM350.825 58.8682H354.621C354.545 60.1123 354.202 61.2168 353.593 62.1816C352.992 63.1465 352.15 63.8997 351.066 64.4414C349.992 64.9831 348.697 65.2539 347.182 65.2539C345.997 65.2539 344.935 65.0508 343.995 64.6445C343.056 64.2298 342.252 63.6374 341.583 62.8672C340.923 62.097 340.419 61.166 340.072 60.0742C339.725 58.9824 339.552 57.7594 339.552 56.4053V55.123C339.552 53.7689 339.729 52.5459 340.085 51.4541C340.449 50.3538 340.965 49.4186 341.634 48.6484C342.311 47.8783 343.119 47.2858 344.059 46.8711C344.998 46.4564 346.048 46.249 347.207 46.249C348.747 46.249 350.047 46.5283 351.104 47.0869C352.171 47.6455 352.996 48.4157 353.58 49.3975C354.173 50.3792 354.528 51.4964 354.646 52.749H350.838C350.796 52.0042 350.647 51.3737 350.394 50.8574C350.14 50.3327 349.755 49.9391 349.238 49.6768C348.73 49.4059 348.053 49.2705 347.207 49.2705C346.572 49.2705 346.018 49.389 345.544 49.626C345.07 49.863 344.672 50.2227 344.351 50.7051C344.029 51.1875 343.788 51.7969 343.627 52.5332C343.475 53.2611 343.398 54.1159 343.398 55.0977V56.4053C343.398 57.3617 343.47 58.2038 343.614 58.9316C343.758 59.651 343.978 60.2604 344.274 60.7598C344.579 61.2507 344.968 61.623 345.442 61.877C345.925 62.1224 346.505 62.2451 347.182 62.2451C347.977 62.2451 348.633 62.1182 349.149 61.8643C349.666 61.6104 350.059 61.2337 350.33 60.7344C350.609 60.235 350.774 59.613 350.825 58.8682ZM356.31 58.2715V58.0049C356.31 56.9977 356.453 56.071 356.741 55.2246C357.029 54.3698 357.448 53.6292 357.998 53.0029C358.548 52.3766 359.225 51.89 360.029 51.543C360.833 51.1875 361.756 51.0098 362.797 51.0098C363.838 51.0098 364.765 51.1875 365.577 51.543C366.39 51.89 367.071 52.3766 367.621 53.0029C368.18 53.6292 368.603 54.3698 368.891 55.2246C369.178 56.071 369.322 56.9977 369.322 58.0049V58.2715C369.322 59.2702 369.178 60.1969 368.891 61.0518C368.603 61.8981 368.18 62.6387 367.621 63.2734C367.071 63.8997 366.394 64.3864 365.59 64.7334C364.786 65.0804 363.863 65.2539 362.822 65.2539C361.781 65.2539 360.854 65.0804 360.042 64.7334C359.238 64.3864 358.557 63.8997 357.998 63.2734C357.448 62.6387 357.029 61.8981 356.741 61.0518C356.453 60.1969 356.31 59.2702 356.31 58.2715ZM359.966 58.0049V58.2715C359.966 58.847 360.017 59.3844 360.118 59.8838C360.22 60.3831 360.381 60.8232 360.601 61.2041C360.829 61.5765 361.125 61.8685 361.489 62.0801C361.853 62.2917 362.298 62.3975 362.822 62.3975C363.33 62.3975 363.766 62.2917 364.13 62.0801C364.494 61.8685 364.786 61.5765 365.006 61.2041C365.226 60.8232 365.387 60.3831 365.488 59.8838C365.598 59.3844 365.653 58.847 365.653 58.2715V58.0049C365.653 57.4463 365.598 56.9215 365.488 56.4307C365.387 55.9313 365.222 55.4912 364.993 55.1104C364.773 54.721 364.481 54.4163 364.117 54.1963C363.753 53.9762 363.313 53.8662 362.797 53.8662C362.281 53.8662 361.84 53.9762 361.477 54.1963C361.121 54.4163 360.829 54.721 360.601 55.1104C360.381 55.4912 360.22 55.9313 360.118 56.4307C360.017 56.9215 359.966 57.4463 359.966 58.0049ZM379.682 62.0039V45.5H383.363V65H380.05L379.682 62.0039ZM370.998 58.2969V58.0303C370.998 56.9808 371.117 56.0286 371.354 55.1738C371.59 54.3105 371.938 53.57 372.395 52.9521C372.852 52.3343 373.414 51.8561 374.083 51.5176C374.752 51.179 375.513 51.0098 376.368 51.0098C377.172 51.0098 377.875 51.179 378.476 51.5176C379.085 51.8561 379.601 52.3385 380.024 52.9648C380.456 53.5827 380.803 54.3148 381.065 55.1611C381.328 55.999 381.518 56.9173 381.637 57.916V58.5C381.518 59.4564 381.328 60.3451 381.065 61.166C380.803 61.987 380.456 62.7064 380.024 63.3242C379.601 63.9336 379.085 64.4076 378.476 64.7461C377.866 65.0846 377.155 65.2539 376.343 65.2539C375.488 65.2539 374.726 65.0804 374.058 64.7334C373.397 64.3864 372.839 63.8997 372.382 63.2734C371.933 62.6471 371.59 61.9108 371.354 61.0645C371.117 60.2181 370.998 59.2956 370.998 58.2969ZM374.654 58.0303V58.2969C374.654 58.8639 374.697 59.3929 374.781 59.8838C374.874 60.3747 375.022 60.8105 375.226 61.1914C375.437 61.5638 375.708 61.8558 376.038 62.0674C376.377 62.2705 376.787 62.3721 377.27 62.3721C377.896 62.3721 378.412 62.2324 378.818 61.9531C379.225 61.6654 379.534 61.2718 379.745 60.7725C379.965 60.2731 380.092 59.6976 380.126 59.0459V57.3828C380.101 56.8496 380.024 56.3714 379.897 55.9482C379.779 55.5166 379.601 55.1484 379.364 54.8438C379.136 54.5391 378.848 54.3021 378.501 54.1328C378.162 53.9635 377.76 53.8789 377.295 53.8789C376.821 53.8789 376.415 53.9889 376.076 54.209C375.738 54.4206 375.463 54.7126 375.251 55.085C375.048 55.4574 374.896 55.8975 374.794 56.4053C374.701 56.9046 374.654 57.4463 374.654 58.0303ZM392.542 65.2539C391.476 65.2539 390.519 65.0846 389.673 64.7461C388.826 64.3991 388.107 63.9209 387.515 63.3115C386.931 62.7021 386.482 61.9954 386.169 61.1914C385.856 60.3789 385.699 59.5156 385.699 58.6016V58.0938C385.699 57.0527 385.847 56.1006 386.144 55.2373C386.44 54.374 386.863 53.625 387.413 52.9902C387.972 52.3555 388.649 51.8688 389.444 51.5303C390.24 51.1833 391.137 51.0098 392.136 51.0098C393.109 51.0098 393.972 51.1706 394.726 51.4922C395.479 51.8138 396.109 52.2708 396.617 52.8633C397.133 53.4557 397.523 54.1667 397.785 54.9961C398.048 55.8171 398.179 56.7311 398.179 57.7383V59.2617H387.261V56.8242H394.586V56.5449C394.586 56.0371 394.493 55.5843 394.307 55.1865C394.129 54.7803 393.858 54.4587 393.494 54.2217C393.13 53.9847 392.665 53.8662 392.098 53.8662C391.615 53.8662 391.201 53.972 390.854 54.1836C390.507 54.3952 390.223 54.6914 390.003 55.0723C389.791 55.4531 389.631 55.9017 389.521 56.418C389.419 56.9258 389.368 57.4844 389.368 58.0938V58.6016C389.368 59.1517 389.444 59.6595 389.597 60.125C389.757 60.5905 389.982 60.9925 390.27 61.3311C390.566 61.6696 390.921 61.932 391.336 62.1182C391.759 62.3044 392.237 62.3975 392.771 62.3975C393.431 62.3975 394.044 62.2705 394.611 62.0166C395.187 61.7542 395.682 61.3607 396.097 60.8359L397.874 62.7656C397.586 63.1803 397.193 63.5781 396.693 63.959C396.202 64.3398 395.61 64.653 394.916 64.8984C394.222 65.1354 393.431 65.2539 392.542 65.2539Z" fill="white"/>
<path d="M126.736 94.6279V99.3125C126.578 99.5469 126.326 99.8105 125.98 100.104C125.635 100.391 125.157 100.643 124.548 100.859C123.944 101.07 123.165 101.176 122.21 101.176C121.431 101.176 120.713 101.041 120.057 100.771C119.406 100.496 118.841 100.098 118.36 99.5762C117.886 99.0488 117.517 98.4102 117.253 97.6602C116.995 96.9043 116.866 96.0488 116.866 95.0938V94.1006C116.866 93.1455 116.978 92.293 117.2 91.543C117.429 90.793 117.763 90.1572 118.202 89.6357C118.642 89.1084 119.181 88.71 119.819 88.4404C120.458 88.165 121.19 88.0273 122.017 88.0273C122.995 88.0273 123.812 88.1973 124.469 88.5371C125.131 88.8711 125.646 89.334 126.016 89.9258C126.391 90.5176 126.631 91.1914 126.736 91.9473H125.04C124.964 91.4844 124.812 91.0625 124.583 90.6816C124.36 90.3008 124.041 89.9961 123.625 89.7676C123.209 89.5332 122.673 89.416 122.017 89.416C121.425 89.416 120.912 89.5244 120.479 89.7412C120.045 89.958 119.688 90.2686 119.406 90.6729C119.125 91.0771 118.914 91.5664 118.773 92.1406C118.639 92.7148 118.571 93.3623 118.571 94.083V95.0938C118.571 95.832 118.656 96.4912 118.826 97.0713C119.002 97.6514 119.251 98.1465 119.573 98.5566C119.896 98.9609 120.279 99.2686 120.725 99.4795C121.176 99.6904 121.674 99.7959 122.219 99.7959C122.822 99.7959 123.312 99.7461 123.687 99.6465C124.062 99.541 124.354 99.418 124.565 99.2773C124.776 99.1309 124.938 98.9932 125.049 98.8643V95.999H122.087V94.6279H126.736ZM133.249 101.176C132.587 101.176 131.986 101.064 131.447 100.842C130.914 100.613 130.454 100.294 130.067 99.8838C129.687 99.4736 129.394 98.9873 129.188 98.4248C128.983 97.8623 128.881 97.2471 128.881 96.5791V96.21C128.881 95.4365 128.995 94.748 129.224 94.1445C129.452 93.5352 129.763 93.0195 130.155 92.5977C130.548 92.1758 130.993 91.8564 131.491 91.6396C131.989 91.4229 132.505 91.3145 133.038 91.3145C133.718 91.3145 134.304 91.4316 134.796 91.666C135.294 91.9004 135.701 92.2285 136.018 92.6504C136.334 93.0664 136.568 93.5586 136.721 94.127C136.873 94.6895 136.949 95.3047 136.949 95.9727V96.7021H129.848V95.375H135.323V95.252C135.3 94.8301 135.212 94.4199 135.06 94.0215C134.913 93.623 134.679 93.2949 134.356 93.0371C134.034 92.7793 133.595 92.6504 133.038 92.6504C132.669 92.6504 132.329 92.7295 132.019 92.8877C131.708 93.04 131.441 93.2686 131.219 93.5732C130.996 93.8779 130.823 94.25 130.7 94.6895C130.577 95.1289 130.516 95.6357 130.516 96.21V96.5791C130.516 97.0303 130.577 97.4551 130.7 97.8535C130.829 98.2461 131.014 98.5918 131.254 98.8906C131.5 99.1895 131.796 99.4238 132.142 99.5938C132.493 99.7637 132.892 99.8486 133.337 99.8486C133.911 99.8486 134.397 99.7314 134.796 99.4971C135.194 99.2627 135.543 98.9492 135.842 98.5566L136.826 99.3389C136.621 99.6494 136.36 99.9453 136.044 100.227C135.728 100.508 135.338 100.736 134.875 100.912C134.418 101.088 133.876 101.176 133.249 101.176ZM140.474 93.5205V101H138.848V91.4902H140.386L140.474 93.5205ZM140.087 95.8848L139.41 95.8584C139.416 95.208 139.513 94.6074 139.7 94.0566C139.888 93.5 140.151 93.0166 140.491 92.6064C140.831 92.1963 141.235 91.8799 141.704 91.6572C142.179 91.4287 142.703 91.3145 143.277 91.3145C143.746 91.3145 144.168 91.3789 144.543 91.5078C144.918 91.6309 145.237 91.8301 145.501 92.1055C145.771 92.3809 145.976 92.7383 146.116 93.1777C146.257 93.6113 146.327 94.1416 146.327 94.7686V101H144.692V94.751C144.692 94.2529 144.619 93.8545 144.473 93.5557C144.326 93.251 144.112 93.0312 143.831 92.8965C143.55 92.7559 143.204 92.6855 142.794 92.6855C142.39 92.6855 142.021 92.7705 141.687 92.9404C141.358 93.1104 141.074 93.3447 140.834 93.6436C140.6 93.9424 140.415 94.2852 140.28 94.6719C140.151 95.0527 140.087 95.457 140.087 95.8848ZM152.743 101.176C152.081 101.176 151.48 101.064 150.941 100.842C150.408 100.613 149.948 100.294 149.562 99.8838C149.181 99.4736 148.888 98.9873 148.683 98.4248C148.478 97.8623 148.375 97.2471 148.375 96.5791V96.21C148.375 95.4365 148.489 94.748 148.718 94.1445C148.946 93.5352 149.257 93.0195 149.649 92.5977C150.042 92.1758 150.487 91.8564 150.985 91.6396C151.483 91.4229 151.999 91.3145 152.532 91.3145C153.212 91.3145 153.798 91.4316 154.29 91.666C154.788 91.9004 155.195 92.2285 155.512 92.6504C155.828 93.0664 156.062 93.5586 156.215 94.127C156.367 94.6895 156.443 95.3047 156.443 95.9727V96.7021H149.342V95.375H154.817V95.252C154.794 94.8301 154.706 94.4199 154.554 94.0215C154.407 93.623 154.173 93.2949 153.851 93.0371C153.528 92.7793 153.089 92.6504 152.532 92.6504C152.163 92.6504 151.823 92.7295 151.513 92.8877C151.202 93.04 150.936 93.2686 150.713 93.5732C150.49 93.8779 150.317 94.25 150.194 94.6895C150.071 95.1289 150.01 95.6357 150.01 96.21V96.5791C150.01 97.0303 150.071 97.4551 150.194 97.8535C150.323 98.2461 150.508 98.5918 150.748 98.8906C150.994 99.1895 151.29 99.4238 151.636 99.5938C151.987 99.7637 152.386 99.8486 152.831 99.8486C153.405 99.8486 153.892 99.7314 154.29 99.4971C154.688 99.2627 155.037 98.9492 155.336 98.5566L156.32 99.3389C156.115 99.6494 155.854 99.9453 155.538 100.227C155.222 100.508 154.832 100.736 154.369 100.912C153.912 101.088 153.37 101.176 152.743 101.176ZM159.968 92.9844V101H158.342V91.4902H159.924L159.968 92.9844ZM162.938 91.4375L162.93 92.9492C162.795 92.9199 162.666 92.9023 162.543 92.8965C162.426 92.8848 162.291 92.8789 162.139 92.8789C161.764 92.8789 161.433 92.9375 161.146 93.0547C160.858 93.1719 160.615 93.3359 160.416 93.5469C160.217 93.7578 160.059 94.0098 159.941 94.3027C159.83 94.5898 159.757 94.9062 159.722 95.252L159.265 95.5156C159.265 94.9414 159.32 94.4023 159.432 93.8984C159.549 93.3945 159.728 92.9492 159.968 92.5625C160.208 92.1699 160.513 91.8652 160.882 91.6484C161.257 91.4258 161.702 91.3145 162.218 91.3145C162.335 91.3145 162.47 91.3291 162.622 91.3584C162.774 91.3818 162.88 91.4082 162.938 91.4375ZM169.697 99.374V94.4785C169.697 94.1035 169.621 93.7783 169.469 93.5029C169.322 93.2217 169.1 93.0049 168.801 92.8525C168.502 92.7002 168.133 92.624 167.693 92.624C167.283 92.624 166.923 92.6943 166.612 92.835C166.308 92.9756 166.067 93.1602 165.892 93.3887C165.722 93.6172 165.637 93.8633 165.637 94.127H164.011C164.011 93.7871 164.099 93.4502 164.274 93.1162C164.45 92.7822 164.702 92.4805 165.03 92.2109C165.364 91.9355 165.763 91.7188 166.226 91.5605C166.694 91.3965 167.216 91.3145 167.79 91.3145C168.481 91.3145 169.091 91.4316 169.618 91.666C170.151 91.9004 170.567 92.2549 170.866 92.7295C171.171 93.1982 171.323 93.7871 171.323 94.4961V98.9258C171.323 99.2422 171.35 99.5791 171.402 99.9365C171.461 100.294 171.546 100.602 171.657 100.859V101H169.961C169.879 100.812 169.814 100.563 169.768 100.253C169.721 99.9365 169.697 99.6436 169.697 99.374ZM169.979 95.2344L169.996 96.377H168.353C167.89 96.377 167.477 96.415 167.113 96.4912C166.75 96.5615 166.445 96.6699 166.199 96.8164C165.953 96.9629 165.766 97.1475 165.637 97.3701C165.508 97.5869 165.443 97.8418 165.443 98.1348C165.443 98.4336 165.511 98.7061 165.646 98.9521C165.78 99.1982 165.982 99.3945 166.252 99.541C166.527 99.6816 166.864 99.752 167.263 99.752C167.761 99.752 168.2 99.6465 168.581 99.4355C168.962 99.2246 169.264 98.9668 169.486 98.6621C169.715 98.3574 169.838 98.0615 169.855 97.7744L170.55 98.5566C170.509 98.8027 170.397 99.0752 170.216 99.374C170.034 99.6729 169.791 99.96 169.486 100.235C169.188 100.505 168.83 100.73 168.414 100.912C168.004 101.088 167.541 101.176 167.025 101.176C166.381 101.176 165.815 101.05 165.329 100.798C164.849 100.546 164.474 100.209 164.204 99.7871C163.94 99.3594 163.809 98.8818 163.809 98.3545C163.809 97.8447 163.908 97.3965 164.107 97.0098C164.307 96.6172 164.594 96.292 164.969 96.0342C165.344 95.7705 165.795 95.5713 166.322 95.4365C166.85 95.3018 167.438 95.2344 168.089 95.2344H169.979ZM177.862 91.4902V92.7383H172.721V91.4902H177.862ZM174.461 89.1787H176.087V98.6445C176.087 98.9668 176.137 99.21 176.236 99.374C176.336 99.5381 176.465 99.6465 176.623 99.6992C176.781 99.752 176.951 99.7783 177.133 99.7783C177.268 99.7783 177.408 99.7666 177.555 99.7432C177.707 99.7139 177.821 99.6904 177.897 99.6729L177.906 101C177.777 101.041 177.607 101.079 177.396 101.114C177.191 101.155 176.942 101.176 176.649 101.176C176.251 101.176 175.885 101.097 175.551 100.938C175.217 100.78 174.95 100.517 174.751 100.147C174.558 99.7725 174.461 99.2686 174.461 98.6357V89.1787ZM183.716 101.176C183.054 101.176 182.453 101.064 181.914 100.842C181.381 100.613 180.921 100.294 180.534 99.8838C180.153 99.4736 179.86 98.9873 179.655 98.4248C179.45 97.8623 179.348 97.2471 179.348 96.5791V96.21C179.348 95.4365 179.462 94.748 179.69 94.1445C179.919 93.5352 180.229 93.0195 180.622 92.5977C181.015 92.1758 181.46 91.8564 181.958 91.6396C182.456 91.4229 182.972 91.3145 183.505 91.3145C184.185 91.3145 184.771 91.4316 185.263 91.666C185.761 91.9004 186.168 92.2285 186.484 92.6504C186.801 93.0664 187.035 93.5586 187.188 94.127C187.34 94.6895 187.416 95.3047 187.416 95.9727V96.7021H180.314V95.375H185.79V95.252C185.767 94.8301 185.679 94.4199 185.526 94.0215C185.38 93.623 185.146 93.2949 184.823 93.0371C184.501 92.7793 184.062 92.6504 183.505 92.6504C183.136 92.6504 182.796 92.7295 182.485 92.8877C182.175 93.04 181.908 93.2686 181.686 93.5732C181.463 93.8779 181.29 94.25 181.167 94.6895C181.044 95.1289 180.982 95.6357 180.982 96.21V96.5791C180.982 97.0303 181.044 97.4551 181.167 97.8535C181.296 98.2461 181.48 98.5918 181.721 98.8906C181.967 99.1895 182.263 99.4238 182.608 99.5938C182.96 99.7637 183.358 99.8486 183.804 99.8486C184.378 99.8486 184.864 99.7314 185.263 99.4971C185.661 99.2627 186.01 98.9492 186.309 98.5566L187.293 99.3389C187.088 99.6494 186.827 99.9453 186.511 100.227C186.194 100.508 185.805 100.736 185.342 100.912C184.885 101.088 184.343 101.176 183.716 101.176ZM196.451 100.016L199.097 91.4902H200.837L197.022 102.468C196.935 102.702 196.817 102.954 196.671 103.224C196.53 103.499 196.349 103.76 196.126 104.006C195.903 104.252 195.634 104.451 195.317 104.604C195.007 104.762 194.635 104.841 194.201 104.841C194.072 104.841 193.908 104.823 193.709 104.788C193.51 104.753 193.369 104.724 193.287 104.7L193.278 103.382C193.325 103.388 193.398 103.394 193.498 103.399C193.604 103.411 193.677 103.417 193.718 103.417C194.087 103.417 194.4 103.367 194.658 103.268C194.916 103.174 195.133 103.013 195.309 102.784C195.49 102.562 195.646 102.254 195.774 101.861L196.451 100.016ZM194.509 91.4902L196.979 98.873L197.4 100.587L196.231 101.185L192.733 91.4902H194.509ZM201.733 96.3506V96.1484C201.733 95.4629 201.833 94.8271 202.032 94.2412C202.231 93.6494 202.519 93.1367 202.894 92.7031C203.269 92.2637 203.723 91.9238 204.256 91.6836C204.789 91.4375 205.387 91.3145 206.049 91.3145C206.717 91.3145 207.317 91.4375 207.851 91.6836C208.39 91.9238 208.847 92.2637 209.222 92.7031C209.603 93.1367 209.893 93.6494 210.092 94.2412C210.291 94.8271 210.391 95.4629 210.391 96.1484V96.3506C210.391 97.0361 210.291 97.6719 210.092 98.2578C209.893 98.8438 209.603 99.3564 209.222 99.7959C208.847 100.229 208.393 100.569 207.859 100.815C207.332 101.056 206.734 101.176 206.066 101.176C205.398 101.176 204.798 101.056 204.265 100.815C203.731 100.569 203.274 100.229 202.894 99.7959C202.519 99.3564 202.231 98.8438 202.032 98.2578C201.833 97.6719 201.733 97.0361 201.733 96.3506ZM203.359 96.1484V96.3506C203.359 96.8252 203.415 97.2734 203.526 97.6953C203.638 98.1113 203.805 98.4805 204.027 98.8027C204.256 99.125 204.54 99.3799 204.88 99.5674C205.22 99.749 205.615 99.8398 206.066 99.8398C206.512 99.8398 206.901 99.749 207.235 99.5674C207.575 99.3799 207.856 99.125 208.079 98.8027C208.302 98.4805 208.469 98.1113 208.58 97.6953C208.697 97.2734 208.756 96.8252 208.756 96.3506V96.1484C208.756 95.6797 208.697 95.2373 208.58 94.8213C208.469 94.3994 208.299 94.0273 208.07 93.7051C207.848 93.377 207.566 93.1191 207.227 92.9316C206.893 92.7441 206.5 92.6504 206.049 92.6504C205.604 92.6504 205.211 92.7441 204.871 92.9316C204.537 93.1191 204.256 93.377 204.027 93.7051C203.805 94.0273 203.638 94.3994 203.526 94.8213C203.415 95.2373 203.359 95.6797 203.359 96.1484ZM218.248 98.8027V91.4902H219.883V101H218.327L218.248 98.8027ZM218.556 96.7988L219.232 96.7812C219.232 97.4141 219.165 98 219.03 98.5391C218.901 99.0723 218.69 99.5352 218.397 99.9277C218.104 100.32 217.721 100.628 217.246 100.851C216.771 101.067 216.194 101.176 215.515 101.176C215.052 101.176 214.627 101.108 214.24 100.974C213.859 100.839 213.531 100.631 213.256 100.35C212.98 100.068 212.767 99.7021 212.614 99.251C212.468 98.7998 212.395 98.2578 212.395 97.625V91.4902H214.021V97.6426C214.021 98.0703 214.067 98.4248 214.161 98.7061C214.261 98.9814 214.393 99.2012 214.557 99.3652C214.727 99.5234 214.914 99.6348 215.119 99.6992C215.33 99.7637 215.547 99.7959 215.77 99.7959C216.461 99.7959 217.009 99.6641 217.413 99.4004C217.817 99.1309 218.107 98.7705 218.283 98.3193C218.465 97.8623 218.556 97.3555 218.556 96.7988ZM223.987 92.9844V101H222.361V91.4902H223.943L223.987 92.9844ZM226.958 91.4375L226.949 92.9492C226.814 92.9199 226.686 92.9023 226.562 92.8965C226.445 92.8848 226.311 92.8789 226.158 92.8789C225.783 92.8789 225.452 92.9375 225.165 93.0547C224.878 93.1719 224.635 93.3359 224.436 93.5469C224.236 93.7578 224.078 94.0098 223.961 94.3027C223.85 94.5898 223.776 94.9062 223.741 95.252L223.284 95.5156C223.284 94.9414 223.34 94.4023 223.451 93.8984C223.568 93.3945 223.747 92.9492 223.987 92.5625C224.228 92.1699 224.532 91.8652 224.901 91.6484C225.276 91.4258 225.722 91.3145 226.237 91.3145C226.354 91.3145 226.489 91.3291 226.642 91.3584C226.794 91.3818 226.899 91.4082 226.958 91.4375ZM236.731 99.8398C237.118 99.8398 237.476 99.7607 237.804 99.6025C238.132 99.4443 238.401 99.2275 238.612 98.9521C238.823 98.6709 238.943 98.3516 238.973 97.9941H240.52C240.49 98.5566 240.3 99.0811 239.948 99.5674C239.603 100.048 239.148 100.438 238.586 100.736C238.023 101.029 237.405 101.176 236.731 101.176C236.017 101.176 235.393 101.05 234.859 100.798C234.332 100.546 233.893 100.2 233.541 99.7607C233.195 99.3213 232.935 98.8174 232.759 98.249C232.589 97.6748 232.504 97.0684 232.504 96.4297V96.0605C232.504 95.4219 232.589 94.8184 232.759 94.25C232.935 93.6758 233.195 93.1689 233.541 92.7295C233.893 92.29 234.332 91.9443 234.859 91.6924C235.393 91.4404 236.017 91.3145 236.731 91.3145C237.476 91.3145 238.126 91.4668 238.683 91.7715C239.239 92.0703 239.676 92.4805 239.992 93.002C240.314 93.5176 240.49 94.1035 240.52 94.7598H238.973C238.943 94.3672 238.832 94.0127 238.639 93.6963C238.451 93.3799 238.193 93.1279 237.865 92.9404C237.543 92.7471 237.165 92.6504 236.731 92.6504C236.233 92.6504 235.814 92.75 235.475 92.9492C235.141 93.1426 234.874 93.4062 234.675 93.7402C234.481 94.0684 234.341 94.4346 234.253 94.8389C234.171 95.2373 234.13 95.6445 234.13 96.0605V96.4297C234.13 96.8457 234.171 97.2559 234.253 97.6602C234.335 98.0645 234.473 98.4307 234.666 98.7588C234.865 99.0869 235.132 99.3506 235.466 99.5498C235.806 99.7432 236.228 99.8398 236.731 99.8398ZM241.917 96.3506V96.1484C241.917 95.4629 242.017 94.8271 242.216 94.2412C242.415 93.6494 242.702 93.1367 243.077 92.7031C243.452 92.2637 243.906 91.9238 244.439 91.6836C244.973 91.4375 245.57 91.3145 246.232 91.3145C246.9 91.3145 247.501 91.4375 248.034 91.6836C248.573 91.9238 249.03 92.2637 249.405 92.7031C249.786 93.1367 250.076 93.6494 250.275 94.2412C250.475 94.8271 250.574 95.4629 250.574 96.1484V96.3506C250.574 97.0361 250.475 97.6719 250.275 98.2578C250.076 98.8438 249.786 99.3564 249.405 99.7959C249.03 100.229 248.576 100.569 248.043 100.815C247.516 101.056 246.918 101.176 246.25 101.176C245.582 101.176 244.981 101.056 244.448 100.815C243.915 100.569 243.458 100.229 243.077 99.7959C242.702 99.3564 242.415 98.8438 242.216 98.2578C242.017 97.6719 241.917 97.0361 241.917 96.3506ZM243.543 96.1484V96.3506C243.543 96.8252 243.599 97.2734 243.71 97.6953C243.821 98.1113 243.988 98.4805 244.211 98.8027C244.439 99.125 244.724 99.3799 245.063 99.5674C245.403 99.749 245.799 99.8398 246.25 99.8398C246.695 99.8398 247.085 99.749 247.419 99.5674C247.759 99.3799 248.04 99.125 248.263 98.8027C248.485 98.4805 248.652 98.1113 248.764 97.6953C248.881 97.2734 248.939 96.8252 248.939 96.3506V96.1484C248.939 95.6797 248.881 95.2373 248.764 94.8213C248.652 94.3994 248.482 94.0273 248.254 93.7051C248.031 93.377 247.75 93.1191 247.41 92.9316C247.076 92.7441 246.684 92.6504 246.232 92.6504C245.787 92.6504 245.395 92.7441 245.055 92.9316C244.721 93.1191 244.439 93.377 244.211 93.7051C243.988 94.0273 243.821 94.3994 243.71 94.8213C243.599 95.2373 243.543 95.6797 243.543 96.1484ZM258.607 99.1543V87.5H260.242V101H258.748L258.607 99.1543ZM252.209 96.3506V96.166C252.209 95.4395 252.297 94.7803 252.473 94.1885C252.654 93.5908 252.909 93.0781 253.237 92.6504C253.571 92.2227 253.967 91.8945 254.424 91.666C254.887 91.4316 255.402 91.3145 255.971 91.3145C256.568 91.3145 257.09 91.4199 257.535 91.6309C257.986 91.8359 258.367 92.1377 258.678 92.5361C258.994 92.9287 259.243 93.4033 259.425 93.96C259.606 94.5166 259.732 95.1465 259.803 95.8496V96.6582C259.738 97.3555 259.612 97.9824 259.425 98.5391C259.243 99.0957 258.994 99.5703 258.678 99.9629C258.367 100.355 257.986 100.657 257.535 100.868C257.084 101.073 256.557 101.176 255.953 101.176C255.396 101.176 254.887 101.056 254.424 100.815C253.967 100.575 253.571 100.238 253.237 99.8047C252.909 99.3711 252.654 98.8613 252.473 98.2754C252.297 97.6836 252.209 97.042 252.209 96.3506ZM253.844 96.166V96.3506C253.844 96.8252 253.891 97.2705 253.984 97.6865C254.084 98.1025 254.236 98.4688 254.441 98.7852C254.646 99.1016 254.907 99.3506 255.224 99.5322C255.54 99.708 255.918 99.7959 256.357 99.7959C256.896 99.7959 257.339 99.6816 257.685 99.4531C258.036 99.2246 258.317 98.9229 258.528 98.5479C258.739 98.1729 258.903 97.7656 259.021 97.3262V95.208C258.95 94.8857 258.848 94.5752 258.713 94.2764C258.584 93.9717 258.414 93.7021 258.203 93.4678C257.998 93.2275 257.743 93.0371 257.438 92.8965C257.14 92.7559 256.785 92.6855 256.375 92.6855C255.93 92.6855 255.546 92.7793 255.224 92.9668C254.907 93.1484 254.646 93.4004 254.441 93.7227C254.236 94.0391 254.084 94.4082 253.984 94.8301C253.891 95.2461 253.844 95.6914 253.844 96.166ZM266.72 101.176C266.058 101.176 265.457 101.064 264.918 100.842C264.385 100.613 263.925 100.294 263.538 99.8838C263.157 99.4736 262.864 98.9873 262.659 98.4248C262.454 97.8623 262.352 97.2471 262.352 96.5791V96.21C262.352 95.4365 262.466 94.748 262.694 94.1445C262.923 93.5352 263.233 93.0195 263.626 92.5977C264.019 92.1758 264.464 91.8564 264.962 91.6396C265.46 91.4229 265.976 91.3145 266.509 91.3145C267.188 91.3145 267.774 91.4316 268.267 91.666C268.765 91.9004 269.172 92.2285 269.488 92.6504C269.805 93.0664 270.039 93.5586 270.191 94.127C270.344 94.6895 270.42 95.3047 270.42 95.9727V96.7021H263.318V95.375H268.794V95.252C268.771 94.8301 268.683 94.4199 268.53 94.0215C268.384 93.623 268.149 93.2949 267.827 93.0371C267.505 92.7793 267.065 92.6504 266.509 92.6504C266.14 92.6504 265.8 92.7295 265.489 92.8877C265.179 93.04 264.912 93.2686 264.689 93.5732C264.467 93.8779 264.294 94.25 264.171 94.6895C264.048 95.1289 263.986 95.6357 263.986 96.21V96.5791C263.986 97.0303 264.048 97.4551 264.171 97.8535C264.3 98.2461 264.484 98.5918 264.725 98.8906C264.971 99.1895 265.267 99.4238 265.612 99.5938C265.964 99.7637 266.362 99.8486 266.808 99.8486C267.382 99.8486 267.868 99.7314 268.267 99.4971C268.665 99.2627 269.014 98.9492 269.312 98.5566L270.297 99.3389C270.092 99.6494 269.831 99.9453 269.515 100.227C269.198 100.508 268.809 100.736 268.346 100.912C267.889 101.088 267.347 101.176 266.72 101.176ZM282.391 99.374V94.4785C282.391 94.1035 282.314 93.7783 282.162 93.5029C282.016 93.2217 281.793 93.0049 281.494 92.8525C281.195 92.7002 280.826 92.624 280.387 92.624C279.977 92.624 279.616 92.6943 279.306 92.835C279.001 92.9756 278.761 93.1602 278.585 93.3887C278.415 93.6172 278.33 93.8633 278.33 94.127H276.704C276.704 93.7871 276.792 93.4502 276.968 93.1162C277.144 92.7822 277.396 92.4805 277.724 92.2109C278.058 91.9355 278.456 91.7188 278.919 91.5605C279.388 91.3965 279.909 91.3145 280.483 91.3145C281.175 91.3145 281.784 91.4316 282.312 91.666C282.845 91.9004 283.261 92.2549 283.56 92.7295C283.864 93.1982 284.017 93.7871 284.017 94.4961V98.9258C284.017 99.2422 284.043 99.5791 284.096 99.9365C284.154 100.294 284.239 100.602 284.351 100.859V101H282.654C282.572 100.812 282.508 100.563 282.461 100.253C282.414 99.9365 282.391 99.6436 282.391 99.374ZM282.672 95.2344L282.689 96.377H281.046C280.583 96.377 280.17 96.415 279.807 96.4912C279.443 96.5615 279.139 96.6699 278.893 96.8164C278.646 96.9629 278.459 97.1475 278.33 97.3701C278.201 97.5869 278.137 97.8418 278.137 98.1348C278.137 98.4336 278.204 98.7061 278.339 98.9521C278.474 99.1982 278.676 99.3945 278.945 99.541C279.221 99.6816 279.558 99.752 279.956 99.752C280.454 99.752 280.894 99.6465 281.274 99.4355C281.655 99.2246 281.957 98.9668 282.18 98.6621C282.408 98.3574 282.531 98.0615 282.549 97.7744L283.243 98.5566C283.202 98.8027 283.091 99.0752 282.909 99.374C282.728 99.6729 282.484 99.96 282.18 100.235C281.881 100.505 281.523 100.73 281.107 100.912C280.697 101.088 280.234 101.176 279.719 101.176C279.074 101.176 278.509 101.05 278.022 100.798C277.542 100.546 277.167 100.209 276.897 99.7871C276.634 99.3594 276.502 98.8818 276.502 98.3545C276.502 97.8447 276.602 97.3965 276.801 97.0098C277 96.6172 277.287 96.292 277.662 96.0342C278.037 95.7705 278.488 95.5713 279.016 95.4365C279.543 95.3018 280.132 95.2344 280.782 95.2344H282.672ZM288.2 93.5205V101H286.574V91.4902H288.112L288.2 93.5205ZM287.813 95.8848L287.137 95.8584C287.143 95.208 287.239 94.6074 287.427 94.0566C287.614 93.5 287.878 93.0166 288.218 92.6064C288.558 92.1963 288.962 91.8799 289.431 91.6572C289.905 91.4287 290.43 91.3145 291.004 91.3145C291.473 91.3145 291.895 91.3789 292.27 91.5078C292.645 91.6309 292.964 91.8301 293.228 92.1055C293.497 92.3809 293.702 92.7383 293.843 93.1777C293.983 93.6113 294.054 94.1416 294.054 94.7686V101H292.419V94.751C292.419 94.2529 292.346 93.8545 292.199 93.5557C292.053 93.251 291.839 93.0312 291.558 92.8965C291.276 92.7559 290.931 92.6855 290.521 92.6855C290.116 92.6855 289.747 92.7705 289.413 92.9404C289.085 93.1104 288.801 93.3447 288.561 93.6436C288.326 93.9424 288.142 94.2852 288.007 94.6719C287.878 95.0527 287.813 95.457 287.813 95.8848ZM302.518 99.1543V87.5H304.152V101H302.658L302.518 99.1543ZM296.119 96.3506V96.166C296.119 95.4395 296.207 94.7803 296.383 94.1885C296.564 93.5908 296.819 93.0781 297.147 92.6504C297.481 92.2227 297.877 91.8945 298.334 91.666C298.797 91.4316 299.312 91.3145 299.881 91.3145C300.479 91.3145 301 91.4199 301.445 91.6309C301.896 91.8359 302.277 92.1377 302.588 92.5361C302.904 92.9287 303.153 93.4033 303.335 93.96C303.517 94.5166 303.643 95.1465 303.713 95.8496V96.6582C303.648 97.3555 303.522 97.9824 303.335 98.5391C303.153 99.0957 302.904 99.5703 302.588 99.9629C302.277 100.355 301.896 100.657 301.445 100.868C300.994 101.073 300.467 101.176 299.863 101.176C299.307 101.176 298.797 101.056 298.334 100.815C297.877 100.575 297.481 100.238 297.147 99.8047C296.819 99.3711 296.564 98.8613 296.383 98.2754C296.207 97.6836 296.119 97.042 296.119 96.3506ZM297.754 96.166V96.3506C297.754 96.8252 297.801 97.2705 297.895 97.6865C297.994 98.1025 298.146 98.4688 298.352 98.7852C298.557 99.1016 298.817 99.3506 299.134 99.5322C299.45 99.708 299.828 99.7959 300.268 99.7959C300.807 99.7959 301.249 99.6816 301.595 99.4531C301.946 99.2246 302.228 98.9229 302.438 98.5479C302.649 98.1729 302.813 97.7656 302.931 97.3262V95.208C302.86 94.8857 302.758 94.5752 302.623 94.2764C302.494 93.9717 302.324 93.7021 302.113 93.4678C301.908 93.2275 301.653 93.0371 301.349 92.8965C301.05 92.7559 300.695 92.6855 300.285 92.6855C299.84 92.6855 299.456 92.7793 299.134 92.9668C298.817 93.1484 298.557 93.4004 298.352 93.7227C298.146 94.0391 297.994 94.4082 297.895 94.8301C297.801 95.2461 297.754 95.6914 297.754 96.166ZM314.954 99.8398C315.341 99.8398 315.698 99.7607 316.026 99.6025C316.354 99.4443 316.624 99.2275 316.835 98.9521C317.046 98.6709 317.166 98.3516 317.195 97.9941H318.742C318.713 98.5566 318.522 99.0811 318.171 99.5674C317.825 100.048 317.371 100.438 316.809 100.736C316.246 101.029 315.628 101.176 314.954 101.176C314.239 101.176 313.615 101.05 313.082 100.798C312.555 100.546 312.115 100.2 311.764 99.7607C311.418 99.3213 311.157 98.8174 310.981 98.249C310.812 97.6748 310.727 97.0684 310.727 96.4297V96.0605C310.727 95.4219 310.812 94.8184 310.981 94.25C311.157 93.6758 311.418 93.1689 311.764 92.7295C312.115 92.29 312.555 91.9443 313.082 91.6924C313.615 91.4404 314.239 91.3145 314.954 91.3145C315.698 91.3145 316.349 91.4668 316.905 91.7715C317.462 92.0703 317.898 92.4805 318.215 93.002C318.537 93.5176 318.713 94.1035 318.742 94.7598H317.195C317.166 94.3672 317.055 94.0127 316.861 93.6963C316.674 93.3799 316.416 93.1279 316.088 92.9404C315.766 92.7471 315.388 92.6504 314.954 92.6504C314.456 92.6504 314.037 92.75 313.697 92.9492C313.363 93.1426 313.097 93.4062 312.897 93.7402C312.704 94.0684 312.563 94.4346 312.476 94.8389C312.394 95.2373 312.353 95.6445 312.353 96.0605V96.4297C312.353 96.8457 312.394 97.2559 312.476 97.6602C312.558 98.0645 312.695 98.4307 312.889 98.7588C313.088 99.0869 313.354 99.3506 313.688 99.5498C314.028 99.7432 314.45 99.8398 314.954 99.8398ZM320.14 96.3506V96.1484C320.14 95.4629 320.239 94.8271 320.438 94.2412C320.638 93.6494 320.925 93.1367 321.3 92.7031C321.675 92.2637 322.129 91.9238 322.662 91.6836C323.195 91.4375 323.793 91.3145 324.455 91.3145C325.123 91.3145 325.724 91.4375 326.257 91.6836C326.796 91.9238 327.253 92.2637 327.628 92.7031C328.009 93.1367 328.299 93.6494 328.498 94.2412C328.697 94.8271 328.797 95.4629 328.797 96.1484V96.3506C328.797 97.0361 328.697 97.6719 328.498 98.2578C328.299 98.8438 328.009 99.3564 327.628 99.7959C327.253 100.229 326.799 100.569 326.266 100.815C325.738 101.056 325.141 101.176 324.473 101.176C323.805 101.176 323.204 101.056 322.671 100.815C322.138 100.569 321.681 100.229 321.3 99.7959C320.925 99.3564 320.638 98.8438 320.438 98.2578C320.239 97.6719 320.14 97.0361 320.14 96.3506ZM321.766 96.1484V96.3506C321.766 96.8252 321.821 97.2734 321.933 97.6953C322.044 98.1113 322.211 98.4805 322.434 98.8027C322.662 99.125 322.946 99.3799 323.286 99.5674C323.626 99.749 324.021 99.8398 324.473 99.8398C324.918 99.8398 325.308 99.749 325.642 99.5674C325.981 99.3799 326.263 99.125 326.485 98.8027C326.708 98.4805 326.875 98.1113 326.986 97.6953C327.104 97.2734 327.162 96.8252 327.162 96.3506V96.1484C327.162 95.6797 327.104 95.2373 326.986 94.8213C326.875 94.3994 326.705 94.0273 326.477 93.7051C326.254 93.377 325.973 93.1191 325.633 92.9316C325.299 92.7441 324.906 92.6504 324.455 92.6504C324.01 92.6504 323.617 92.7441 323.277 92.9316C322.943 93.1191 322.662 93.377 322.434 93.7051C322.211 94.0273 322.044 94.3994 321.933 94.8213C321.821 95.2373 321.766 95.6797 321.766 96.1484ZM332.603 87.5V101H330.968V87.5H332.603ZM336.979 87.5V101H335.345V87.5H336.979ZM343.536 101.176C342.874 101.176 342.273 101.064 341.734 100.842C341.201 100.613 340.741 100.294 340.354 99.8838C339.974 99.4736 339.681 98.9873 339.476 98.4248C339.271 97.8623 339.168 97.2471 339.168 96.5791V96.21C339.168 95.4365 339.282 94.748 339.511 94.1445C339.739 93.5352 340.05 93.0195 340.442 92.5977C340.835 92.1758 341.28 91.8564 341.778 91.6396C342.276 91.4229 342.792 91.3145 343.325 91.3145C344.005 91.3145 344.591 91.4316 345.083 91.666C345.581 91.9004 345.988 92.2285 346.305 92.6504C346.621 93.0664 346.855 93.5586 347.008 94.127C347.16 94.6895 347.236 95.3047 347.236 95.9727V96.7021H340.135V95.375H345.61V95.252C345.587 94.8301 345.499 94.4199 345.347 94.0215C345.2 93.623 344.966 93.2949 344.644 93.0371C344.321 92.7793 343.882 92.6504 343.325 92.6504C342.956 92.6504 342.616 92.7295 342.306 92.8877C341.995 93.04 341.729 93.2686 341.506 93.5732C341.283 93.8779 341.11 94.25 340.987 94.6895C340.864 95.1289 340.803 95.6357 340.803 96.21V96.5791C340.803 97.0303 340.864 97.4551 340.987 97.8535C341.116 98.2461 341.301 98.5918 341.541 98.8906C341.787 99.1895 342.083 99.4238 342.429 99.5938C342.78 99.7637 343.179 99.8486 343.624 99.8486C344.198 99.8486 344.685 99.7314 345.083 99.4971C345.481 99.2627 345.83 98.9492 346.129 98.5566L347.113 99.3389C346.908 99.6494 346.647 99.9453 346.331 100.227C346.015 100.508 345.625 100.736 345.162 100.912C344.705 101.088 344.163 101.176 343.536 101.176ZM352.94 99.8398C353.327 99.8398 353.685 99.7607 354.013 99.6025C354.341 99.4443 354.61 99.2275 354.821 98.9521C355.032 98.6709 355.152 98.3516 355.182 97.9941H356.729C356.699 98.5566 356.509 99.0811 356.157 99.5674C355.812 100.048 355.357 100.438 354.795 100.736C354.232 101.029 353.614 101.176 352.94 101.176C352.226 101.176 351.602 101.05 351.068 100.798C350.541 100.546 350.102 100.2 349.75 99.7607C349.404 99.3213 349.144 98.8174 348.968 98.249C348.798 97.6748 348.713 97.0684 348.713 96.4297V96.0605C348.713 95.4219 348.798 94.8184 348.968 94.25C349.144 93.6758 349.404 93.1689 349.75 92.7295C350.102 92.29 350.541 91.9443 351.068 91.6924C351.602 91.4404 352.226 91.3145 352.94 91.3145C353.685 91.3145 354.335 91.4668 354.892 91.7715C355.448 92.0703 355.885 92.4805 356.201 93.002C356.523 93.5176 356.699 94.1035 356.729 94.7598H355.182C355.152 94.3672 355.041 94.0127 354.848 93.6963C354.66 93.3799 354.402 93.1279 354.074 92.9404C353.752 92.7471 353.374 92.6504 352.94 92.6504C352.442 92.6504 352.023 92.75 351.684 92.9492C351.35 93.1426 351.083 93.4062 350.884 93.7402C350.69 94.0684 350.55 94.4346 350.462 94.8389C350.38 95.2373 350.339 95.6445 350.339 96.0605V96.4297C350.339 96.8457 350.38 97.2559 350.462 97.6602C350.544 98.0645 350.682 98.4307 350.875 98.7588C351.074 99.0869 351.341 99.3506 351.675 99.5498C352.015 99.7432 352.437 99.8398 352.94 99.8398ZM362.538 91.4902V92.7383H357.396V91.4902H362.538ZM359.137 89.1787H360.763V98.6445C360.763 98.9668 360.812 99.21 360.912 99.374C361.012 99.5381 361.141 99.6465 361.299 99.6992C361.457 99.752 361.627 99.7783 361.809 99.7783C361.943 99.7783 362.084 99.7666 362.23 99.7432C362.383 99.7139 362.497 99.6904 362.573 99.6729L362.582 101C362.453 101.041 362.283 101.079 362.072 101.114C361.867 101.155 361.618 101.176 361.325 101.176C360.927 101.176 360.561 101.097 360.227 100.938C359.893 100.78 359.626 100.517 359.427 100.147C359.233 99.7725 359.137 99.2686 359.137 98.6357V89.1787ZM173.02 119.478C173.02 119.243 172.967 119.026 172.861 118.827C172.762 118.622 172.554 118.438 172.237 118.273C171.927 118.104 171.458 117.957 170.831 117.834C170.304 117.723 169.826 117.591 169.398 117.438C168.977 117.286 168.616 117.102 168.317 116.885C168.024 116.668 167.799 116.413 167.641 116.12C167.482 115.827 167.403 115.484 167.403 115.092C167.403 114.717 167.485 114.362 167.649 114.028C167.819 113.694 168.057 113.398 168.361 113.141C168.672 112.883 169.044 112.681 169.478 112.534C169.911 112.388 170.395 112.314 170.928 112.314C171.689 112.314 172.34 112.449 172.879 112.719C173.418 112.988 173.831 113.349 174.118 113.8C174.405 114.245 174.549 114.74 174.549 115.285H172.923C172.923 115.021 172.844 114.767 172.686 114.521C172.533 114.269 172.308 114.061 172.009 113.896C171.716 113.732 171.355 113.65 170.928 113.65C170.477 113.65 170.11 113.721 169.829 113.861C169.554 113.996 169.352 114.169 169.223 114.38C169.1 114.591 169.038 114.813 169.038 115.048C169.038 115.224 169.067 115.382 169.126 115.522C169.19 115.657 169.302 115.783 169.46 115.9C169.618 116.012 169.841 116.117 170.128 116.217C170.415 116.316 170.781 116.416 171.227 116.516C172.006 116.691 172.647 116.902 173.151 117.148C173.655 117.395 174.03 117.696 174.276 118.054C174.522 118.411 174.646 118.845 174.646 119.354C174.646 119.771 174.558 120.151 174.382 120.497C174.212 120.843 173.963 121.142 173.635 121.394C173.312 121.64 172.926 121.833 172.475 121.974C172.029 122.108 171.528 122.176 170.972 122.176C170.134 122.176 169.425 122.026 168.845 121.728C168.265 121.429 167.825 121.042 167.526 120.567C167.228 120.093 167.078 119.592 167.078 119.064H168.713C168.736 119.51 168.865 119.864 169.1 120.128C169.334 120.386 169.621 120.57 169.961 120.682C170.301 120.787 170.638 120.84 170.972 120.84C171.417 120.84 171.789 120.781 172.088 120.664C172.393 120.547 172.624 120.386 172.782 120.181C172.94 119.976 173.02 119.741 173.02 119.478ZM178.407 114.318V125.656H176.772V112.49H178.267L178.407 114.318ZM184.814 117.166V117.351C184.814 118.042 184.732 118.684 184.568 119.275C184.404 119.861 184.164 120.371 183.848 120.805C183.537 121.238 183.153 121.575 182.696 121.815C182.239 122.056 181.715 122.176 181.123 122.176C180.52 122.176 179.986 122.076 179.523 121.877C179.061 121.678 178.668 121.388 178.346 121.007C178.023 120.626 177.766 120.169 177.572 119.636C177.385 119.103 177.256 118.502 177.186 117.834V116.85C177.256 116.146 177.388 115.517 177.581 114.96C177.774 114.403 178.029 113.929 178.346 113.536C178.668 113.138 179.058 112.836 179.515 112.631C179.972 112.42 180.499 112.314 181.097 112.314C181.694 112.314 182.225 112.432 182.688 112.666C183.15 112.895 183.54 113.223 183.856 113.65C184.173 114.078 184.41 114.591 184.568 115.188C184.732 115.78 184.814 116.439 184.814 117.166ZM183.18 117.351V117.166C183.18 116.691 183.13 116.246 183.03 115.83C182.931 115.408 182.775 115.039 182.564 114.723C182.359 114.4 182.096 114.148 181.773 113.967C181.451 113.779 181.067 113.686 180.622 113.686C180.212 113.686 179.854 113.756 179.55 113.896C179.251 114.037 178.996 114.228 178.785 114.468C178.574 114.702 178.401 114.972 178.267 115.276C178.138 115.575 178.041 115.886 177.977 116.208V118.484C178.094 118.895 178.258 119.281 178.469 119.645C178.68 120.002 178.961 120.292 179.312 120.515C179.664 120.731 180.106 120.84 180.64 120.84C181.079 120.84 181.457 120.749 181.773 120.567C182.096 120.38 182.359 120.125 182.564 119.803C182.775 119.48 182.931 119.111 183.03 118.695C183.13 118.273 183.18 117.825 183.18 117.351ZM192.496 120.374V115.479C192.496 115.104 192.42 114.778 192.268 114.503C192.121 114.222 191.898 114.005 191.6 113.853C191.301 113.7 190.932 113.624 190.492 113.624C190.082 113.624 189.722 113.694 189.411 113.835C189.106 113.976 188.866 114.16 188.69 114.389C188.521 114.617 188.436 114.863 188.436 115.127H186.81C186.81 114.787 186.897 114.45 187.073 114.116C187.249 113.782 187.501 113.48 187.829 113.211C188.163 112.936 188.562 112.719 189.024 112.561C189.493 112.396 190.015 112.314 190.589 112.314C191.28 112.314 191.89 112.432 192.417 112.666C192.95 112.9 193.366 113.255 193.665 113.729C193.97 114.198 194.122 114.787 194.122 115.496V119.926C194.122 120.242 194.148 120.579 194.201 120.937C194.26 121.294 194.345 121.602 194.456 121.859V122H192.76C192.678 121.812 192.613 121.563 192.566 121.253C192.52 120.937 192.496 120.644 192.496 120.374ZM192.777 116.234L192.795 117.377H191.151C190.688 117.377 190.275 117.415 189.912 117.491C189.549 117.562 189.244 117.67 188.998 117.816C188.752 117.963 188.564 118.147 188.436 118.37C188.307 118.587 188.242 118.842 188.242 119.135C188.242 119.434 188.31 119.706 188.444 119.952C188.579 120.198 188.781 120.395 189.051 120.541C189.326 120.682 189.663 120.752 190.062 120.752C190.56 120.752 190.999 120.646 191.38 120.436C191.761 120.225 192.062 119.967 192.285 119.662C192.514 119.357 192.637 119.062 192.654 118.774L193.349 119.557C193.308 119.803 193.196 120.075 193.015 120.374C192.833 120.673 192.59 120.96 192.285 121.235C191.986 121.505 191.629 121.73 191.213 121.912C190.803 122.088 190.34 122.176 189.824 122.176C189.18 122.176 188.614 122.05 188.128 121.798C187.647 121.546 187.272 121.209 187.003 120.787C186.739 120.359 186.607 119.882 186.607 119.354C186.607 118.845 186.707 118.396 186.906 118.01C187.105 117.617 187.393 117.292 187.768 117.034C188.143 116.771 188.594 116.571 189.121 116.437C189.648 116.302 190.237 116.234 190.888 116.234H192.777ZM198.306 113.984V122H196.68V112.49H198.262L198.306 113.984ZM201.276 112.438L201.268 113.949C201.133 113.92 201.004 113.902 200.881 113.896C200.764 113.885 200.629 113.879 200.477 113.879C200.102 113.879 199.771 113.938 199.483 114.055C199.196 114.172 198.953 114.336 198.754 114.547C198.555 114.758 198.396 115.01 198.279 115.303C198.168 115.59 198.095 115.906 198.06 116.252L197.603 116.516C197.603 115.941 197.658 115.402 197.77 114.898C197.887 114.395 198.065 113.949 198.306 113.562C198.546 113.17 198.851 112.865 199.22 112.648C199.595 112.426 200.04 112.314 200.556 112.314C200.673 112.314 200.808 112.329 200.96 112.358C201.112 112.382 201.218 112.408 201.276 112.438ZM204.414 108.5V122H202.779V108.5H204.414ZM210.224 112.49L206.075 116.929L203.755 119.337L203.623 117.605L205.284 115.619L208.237 112.49H210.224ZM208.738 122L205.346 117.465L206.189 116.015L210.654 122H208.738ZM213.669 108.5V122H212.034V108.5H213.669ZM218.046 112.49V122H216.411V112.49H218.046ZM216.288 109.968C216.288 109.704 216.367 109.481 216.525 109.3C216.689 109.118 216.93 109.027 217.246 109.027C217.557 109.027 217.794 109.118 217.958 109.3C218.128 109.481 218.213 109.704 218.213 109.968C218.213 110.22 218.128 110.437 217.958 110.618C217.794 110.794 217.557 110.882 217.246 110.882C216.93 110.882 216.689 110.794 216.525 110.618C216.367 110.437 216.288 110.22 216.288 109.968ZM222.282 114.521V122H220.656V112.49H222.194L222.282 114.521ZM221.896 116.885L221.219 116.858C221.225 116.208 221.321 115.607 221.509 115.057C221.696 114.5 221.96 114.017 222.3 113.606C222.64 113.196 223.044 112.88 223.513 112.657C223.987 112.429 224.512 112.314 225.086 112.314C225.555 112.314 225.977 112.379 226.352 112.508C226.727 112.631 227.046 112.83 227.31 113.105C227.579 113.381 227.784 113.738 227.925 114.178C228.065 114.611 228.136 115.142 228.136 115.769V122H226.501V115.751C226.501 115.253 226.428 114.854 226.281 114.556C226.135 114.251 225.921 114.031 225.64 113.896C225.358 113.756 225.013 113.686 224.603 113.686C224.198 113.686 223.829 113.771 223.495 113.94C223.167 114.11 222.883 114.345 222.643 114.644C222.408 114.942 222.224 115.285 222.089 115.672C221.96 116.053 221.896 116.457 221.896 116.885ZM236.767 112.49H238.243V121.798C238.243 122.636 238.073 123.351 237.733 123.942C237.394 124.534 236.919 124.982 236.31 125.287C235.706 125.598 235.009 125.753 234.218 125.753C233.89 125.753 233.503 125.7 233.058 125.595C232.618 125.495 232.185 125.322 231.757 125.076C231.335 124.836 230.98 124.511 230.693 124.101L231.546 123.134C231.944 123.614 232.36 123.948 232.794 124.136C233.233 124.323 233.667 124.417 234.095 124.417C234.61 124.417 235.056 124.32 235.431 124.127C235.806 123.934 236.096 123.646 236.301 123.266C236.512 122.891 236.617 122.428 236.617 121.877V114.582L236.767 112.49ZM230.219 117.351V117.166C230.219 116.439 230.304 115.78 230.474 115.188C230.649 114.591 230.898 114.078 231.221 113.65C231.549 113.223 231.944 112.895 232.407 112.666C232.87 112.432 233.392 112.314 233.972 112.314C234.569 112.314 235.091 112.42 235.536 112.631C235.987 112.836 236.368 113.138 236.679 113.536C236.995 113.929 237.244 114.403 237.426 114.96C237.607 115.517 237.733 116.146 237.804 116.85V117.658C237.739 118.355 237.613 118.982 237.426 119.539C237.244 120.096 236.995 120.57 236.679 120.963C236.368 121.355 235.987 121.657 235.536 121.868C235.085 122.073 234.558 122.176 233.954 122.176C233.386 122.176 232.87 122.056 232.407 121.815C231.95 121.575 231.558 121.238 231.229 120.805C230.901 120.371 230.649 119.861 230.474 119.275C230.304 118.684 230.219 118.042 230.219 117.351ZM231.845 117.166V117.351C231.845 117.825 231.892 118.271 231.985 118.687C232.085 119.103 232.234 119.469 232.434 119.785C232.639 120.102 232.899 120.351 233.216 120.532C233.532 120.708 233.91 120.796 234.35 120.796C234.889 120.796 235.334 120.682 235.686 120.453C236.037 120.225 236.315 119.923 236.521 119.548C236.731 119.173 236.896 118.766 237.013 118.326V116.208C236.948 115.886 236.849 115.575 236.714 115.276C236.585 114.972 236.415 114.702 236.204 114.468C235.999 114.228 235.744 114.037 235.439 113.896C235.135 113.756 234.777 113.686 234.367 113.686C233.922 113.686 233.538 113.779 233.216 113.967C232.899 114.148 232.639 114.4 232.434 114.723C232.234 115.039 232.085 115.408 231.985 115.83C231.892 116.246 231.845 116.691 231.845 117.166ZM246.804 113.984V122H245.178V112.49H246.76L246.804 113.984ZM249.774 112.438L249.766 113.949C249.631 113.92 249.502 113.902 249.379 113.896C249.262 113.885 249.127 113.879 248.975 113.879C248.6 113.879 248.269 113.938 247.981 114.055C247.694 114.172 247.451 114.336 247.252 114.547C247.053 114.758 246.895 115.01 246.777 115.303C246.666 115.59 246.593 115.906 246.558 116.252L246.101 116.516C246.101 115.941 246.156 115.402 246.268 114.898C246.385 114.395 246.563 113.949 246.804 113.562C247.044 113.17 247.349 112.865 247.718 112.648C248.093 112.426 248.538 112.314 249.054 112.314C249.171 112.314 249.306 112.329 249.458 112.358C249.61 112.382 249.716 112.408 249.774 112.438ZM255.048 122.176C254.386 122.176 253.785 122.064 253.246 121.842C252.713 121.613 252.253 121.294 251.866 120.884C251.485 120.474 251.192 119.987 250.987 119.425C250.782 118.862 250.68 118.247 250.68 117.579V117.21C250.68 116.437 250.794 115.748 251.022 115.145C251.251 114.535 251.562 114.02 251.954 113.598C252.347 113.176 252.792 112.856 253.29 112.64C253.788 112.423 254.304 112.314 254.837 112.314C255.517 112.314 256.103 112.432 256.595 112.666C257.093 112.9 257.5 113.229 257.816 113.65C258.133 114.066 258.367 114.559 258.52 115.127C258.672 115.689 258.748 116.305 258.748 116.973V117.702H251.646V116.375H257.122V116.252C257.099 115.83 257.011 115.42 256.858 115.021C256.712 114.623 256.478 114.295 256.155 114.037C255.833 113.779 255.394 113.65 254.837 113.65C254.468 113.65 254.128 113.729 253.817 113.888C253.507 114.04 253.24 114.269 253.018 114.573C252.795 114.878 252.622 115.25 252.499 115.689C252.376 116.129 252.314 116.636 252.314 117.21V117.579C252.314 118.03 252.376 118.455 252.499 118.854C252.628 119.246 252.812 119.592 253.053 119.891C253.299 120.189 253.595 120.424 253.94 120.594C254.292 120.764 254.69 120.849 255.136 120.849C255.71 120.849 256.196 120.731 256.595 120.497C256.993 120.263 257.342 119.949 257.641 119.557L258.625 120.339C258.42 120.649 258.159 120.945 257.843 121.227C257.526 121.508 257.137 121.736 256.674 121.912C256.217 122.088 255.675 122.176 255.048 122.176ZM263.055 120.312L265.498 112.49H266.57L266.359 114.046L263.872 122H262.826L263.055 120.312ZM261.411 112.49L263.494 120.4L263.644 122H262.545L259.785 112.49H261.411ZM268.908 120.339L270.895 112.49H272.512L269.752 122H268.662L268.908 120.339ZM266.808 112.49L269.198 120.181L269.471 122H268.434L265.876 114.028L265.665 112.49H266.808ZM279.789 120.374V115.479C279.789 115.104 279.713 114.778 279.561 114.503C279.414 114.222 279.191 114.005 278.893 113.853C278.594 113.7 278.225 113.624 277.785 113.624C277.375 113.624 277.015 113.694 276.704 113.835C276.399 113.976 276.159 114.16 275.983 114.389C275.813 114.617 275.729 114.863 275.729 115.127H274.103C274.103 114.787 274.19 114.45 274.366 114.116C274.542 113.782 274.794 113.48 275.122 113.211C275.456 112.936 275.854 112.719 276.317 112.561C276.786 112.396 277.308 112.314 277.882 112.314C278.573 112.314 279.183 112.432 279.71 112.666C280.243 112.9 280.659 113.255 280.958 113.729C281.263 114.198 281.415 114.787 281.415 115.496V119.926C281.415 120.242 281.441 120.579 281.494 120.937C281.553 121.294 281.638 121.602 281.749 121.859V122H280.053C279.971 121.812 279.906 121.563 279.859 121.253C279.812 120.937 279.789 120.644 279.789 120.374ZM280.07 116.234L280.088 117.377H278.444C277.981 117.377 277.568 117.415 277.205 117.491C276.842 117.562 276.537 117.67 276.291 117.816C276.045 117.963 275.857 118.147 275.729 118.37C275.6 118.587 275.535 118.842 275.535 119.135C275.535 119.434 275.603 119.706 275.737 119.952C275.872 120.198 276.074 120.395 276.344 120.541C276.619 120.682 276.956 120.752 277.354 120.752C277.853 120.752 278.292 120.646 278.673 120.436C279.054 120.225 279.355 119.967 279.578 119.662C279.807 119.357 279.93 119.062 279.947 118.774L280.642 119.557C280.601 119.803 280.489 120.075 280.308 120.374C280.126 120.673 279.883 120.96 279.578 121.235C279.279 121.505 278.922 121.73 278.506 121.912C278.096 122.088 277.633 122.176 277.117 122.176C276.473 122.176 275.907 122.05 275.421 121.798C274.94 121.546 274.565 121.209 274.296 120.787C274.032 120.359 273.9 119.882 273.9 119.354C273.9 118.845 274 118.396 274.199 118.01C274.398 117.617 274.686 117.292 275.061 117.034C275.436 116.771 275.887 116.571 276.414 116.437C276.941 116.302 277.53 116.234 278.181 116.234H280.07ZM285.599 113.984V122H283.973V112.49H285.555L285.599 113.984ZM288.569 112.438L288.561 113.949C288.426 113.92 288.297 113.902 288.174 113.896C288.057 113.885 287.922 113.879 287.77 113.879C287.395 113.879 287.063 113.938 286.776 114.055C286.489 114.172 286.246 114.336 286.047 114.547C285.848 114.758 285.689 115.01 285.572 115.303C285.461 115.59 285.388 115.906 285.353 116.252L284.896 116.516C284.896 115.941 284.951 115.402 285.062 114.898C285.18 114.395 285.358 113.949 285.599 113.562C285.839 113.17 286.144 112.865 286.513 112.648C286.888 112.426 287.333 112.314 287.849 112.314C287.966 112.314 288.101 112.329 288.253 112.358C288.405 112.382 288.511 112.408 288.569 112.438ZM295.891 120.154V108.5H297.525V122H296.031L295.891 120.154ZM289.492 117.351V117.166C289.492 116.439 289.58 115.78 289.756 115.188C289.938 114.591 290.192 114.078 290.521 113.65C290.854 113.223 291.25 112.895 291.707 112.666C292.17 112.432 292.686 112.314 293.254 112.314C293.852 112.314 294.373 112.42 294.818 112.631C295.27 112.836 295.65 113.138 295.961 113.536C296.277 113.929 296.526 114.403 296.708 114.96C296.89 115.517 297.016 116.146 297.086 116.85V117.658C297.021 118.355 296.896 118.982 296.708 119.539C296.526 120.096 296.277 120.57 295.961 120.963C295.65 121.355 295.27 121.657 294.818 121.868C294.367 122.073 293.84 122.176 293.236 122.176C292.68 122.176 292.17 122.056 291.707 121.815C291.25 121.575 290.854 121.238 290.521 120.805C290.192 120.371 289.938 119.861 289.756 119.275C289.58 118.684 289.492 118.042 289.492 117.351ZM291.127 117.166V117.351C291.127 117.825 291.174 118.271 291.268 118.687C291.367 119.103 291.52 119.469 291.725 119.785C291.93 120.102 292.19 120.351 292.507 120.532C292.823 120.708 293.201 120.796 293.641 120.796C294.18 120.796 294.622 120.682 294.968 120.453C295.319 120.225 295.601 119.923 295.812 119.548C296.022 119.173 296.187 118.766 296.304 118.326V116.208C296.233 115.886 296.131 115.575 295.996 115.276C295.867 114.972 295.697 114.702 295.486 114.468C295.281 114.228 295.026 114.037 294.722 113.896C294.423 113.756 294.068 113.686 293.658 113.686C293.213 113.686 292.829 113.779 292.507 113.967C292.19 114.148 291.93 114.4 291.725 114.723C291.52 115.039 291.367 115.408 291.268 115.83C291.174 116.246 291.127 116.691 291.127 117.166ZM305.594 119.478C305.594 119.243 305.541 119.026 305.436 118.827C305.336 118.622 305.128 118.438 304.812 118.273C304.501 118.104 304.032 117.957 303.405 117.834C302.878 117.723 302.4 117.591 301.973 117.438C301.551 117.286 301.19 117.102 300.892 116.885C300.599 116.668 300.373 116.413 300.215 116.12C300.057 115.827 299.978 115.484 299.978 115.092C299.978 114.717 300.06 114.362 300.224 114.028C300.394 113.694 300.631 113.398 300.936 113.141C301.246 112.883 301.618 112.681 302.052 112.534C302.485 112.388 302.969 112.314 303.502 112.314C304.264 112.314 304.914 112.449 305.453 112.719C305.992 112.988 306.405 113.349 306.692 113.8C306.979 114.245 307.123 114.74 307.123 115.285H305.497C305.497 115.021 305.418 114.767 305.26 114.521C305.107 114.269 304.882 114.061 304.583 113.896C304.29 113.732 303.93 113.65 303.502 113.65C303.051 113.65 302.685 113.721 302.403 113.861C302.128 113.996 301.926 114.169 301.797 114.38C301.674 114.591 301.612 114.813 301.612 115.048C301.612 115.224 301.642 115.382 301.7 115.522C301.765 115.657 301.876 115.783 302.034 115.9C302.192 116.012 302.415 116.117 302.702 116.217C302.989 116.316 303.355 116.416 303.801 116.516C304.58 116.691 305.222 116.902 305.726 117.148C306.229 117.395 306.604 117.696 306.851 118.054C307.097 118.411 307.22 118.845 307.22 119.354C307.22 119.771 307.132 120.151 306.956 120.497C306.786 120.843 306.537 121.142 306.209 121.394C305.887 121.64 305.5 121.833 305.049 121.974C304.604 122.108 304.103 122.176 303.546 122.176C302.708 122.176 301.999 122.026 301.419 121.728C300.839 121.429 300.399 121.042 300.101 120.567C299.802 120.093 299.652 119.592 299.652 119.064H301.287C301.311 119.51 301.439 119.864 301.674 120.128C301.908 120.386 302.195 120.57 302.535 120.682C302.875 120.787 303.212 120.84 303.546 120.84C303.991 120.84 304.363 120.781 304.662 120.664C304.967 120.547 305.198 120.386 305.356 120.181C305.515 119.976 305.594 119.741 305.594 119.478ZM311.289 109.203L311.175 118.388H309.707L309.584 109.203H311.289ZM309.531 121.183C309.531 120.919 309.61 120.696 309.769 120.515C309.933 120.333 310.173 120.242 310.489 120.242C310.8 120.242 311.037 120.333 311.201 120.515C311.371 120.696 311.456 120.919 311.456 121.183C311.456 121.435 311.371 121.651 311.201 121.833C311.037 122.015 310.8 122.105 310.489 122.105C310.173 122.105 309.933 122.015 309.769 121.833C309.61 121.651 309.531 121.435 309.531 121.183Z" fill="white"/>
<path d="M228.593 180.094L208.785 173.287L220.935 159.326L228.593 180.094Z" fill="#385FE5"/>
<path d="M241.401 215.875L208.783 173.286L228.591 180.095L241.401 215.875Z" fill="#2245BA"/>
<path d="M241.402 215.875L228.592 180.095L242.481 180.535L256.368 180.944L256.382 180.959L241.402 215.875Z" fill="#385FE5"/>
<path d="M228.594 180.094L220.935 159.326L243.872 161.901L228.594 180.094Z" fill="#5077FF"/>
<path d="M241.453 215.672L256.381 180.96L276.164 175.282L241.453 215.672ZM256.367 180.945L242.48 180.536L228.59 180.096L243.034 162.408L256.367 180.945Z" fill="#2245BA"/>
<path d="M264.746 160.587L242.817 162.078L220.935 159.326L243.042 155.151L264.746 160.587Z" fill="#385FE5"/>
<path d="M241.453 215.672L242.261 180.206L256.148 180.619L256.161 180.632L241.453 215.672Z" fill="#5077FF"/>
<path d="M276.784 174.66L256.166 180.629L256.151 180.614L264.748 160.588L276.784 174.66Z" fill="#5077FF"/>
<path d="M241.365 215.801L256.151 180.625L276.786 174.66L241.365 215.801ZM256.33 180.874L242.442 180.461L243.009 162.349L256.33 180.874Z" fill="#3159DE"/>
<path d="M256.149 180.618L242.828 162.093L242.815 162.08L264.743 160.589L256.149 180.618Z" fill="#2245BA"/>
<path d="M264.744 160.589L242.816 162.08L243.041 155.153L264.744 160.589Z" fill="#5077FF"/>
<path d="M228.868 173.257L230.653 178.082L235.479 179.868L230.653 181.653L228.868 186.479L227.082 181.653L222.257 179.868L227.082 178.082L228.868 173.257Z" fill="white"/>
<path d="M265.008 156.509L266.317 160.048L269.856 161.357L266.317 162.667L265.008 166.205L263.699 162.667L260.16 161.357L263.699 160.048L265.008 156.509Z" fill="white"/>
<path d="M209.638 217.69L198.571 226.219L195.261 214.326L209.638 217.69Z" fill="#385FE5"/>
<path d="M234.266 223.7L198.571 226.219L209.638 217.69L234.266 223.7Z" fill="#2245BA"/>
<path d="M234.266 223.7L209.638 217.69L214.986 210.118L220.314 202.536L220.327 202.533L234.266 223.7Z" fill="#385FE5"/>
<path d="M209.638 217.689L195.261 214.326L205.119 202.5L209.638 217.689Z" fill="#5077FF"/>
<path d="M234.172 223.597L220.327 202.535L224.432 189.434L234.172 223.597ZM220.313 202.537L214.985 210.12L209.638 217.692L205.094 203.153L220.313 202.537Z" fill="#2245BA"/>
<path d="M212.055 190.395L204.831 203.152L195.261 214.326L201.057 200.483L212.055 190.395Z" fill="#385FE5"/>
<path d="M234.171 223.597L214.72 210.12L220.051 202.539L220.064 202.537L234.171 223.597Z" fill="#5077FF"/>
<path d="M224.313 188.861L220.063 202.534L220.05 202.536L212.057 190.394L224.313 188.861Z" fill="#5077FF"/>
<path d="M234.212 223.693L220.056 202.54L224.314 188.859L234.212 223.693ZM220.261 202.532L214.93 210.113L205.053 203.145L220.261 202.532Z" fill="#385FE5"/>
<path d="M220.052 202.539L204.844 203.151L204.832 203.154L212.056 190.396L220.052 202.539Z" fill="#2245BA"/>
<path d="M212.056 190.396L204.832 203.154L201.057 200.484L212.056 190.396Z" fill="#5077FF"/>
<path d="M205.933 215.025L209.276 215.803L212.042 213.772L211.264 217.115L213.295 219.881L209.952 219.103L207.186 221.134L207.964 217.792L205.933 215.025Z" fill="white"/>
<path d="M209.881 188.751L212.333 189.321L214.361 187.832L213.791 190.283L215.28 192.312L212.829 191.742L210.8 193.231L211.371 190.78L209.881 188.751Z" fill="white"/>
<path d="M261.127 203.63L256.706 190.872L268.62 191.487L261.127 203.63Z" fill="#385FE5"/>
<path d="M248.064 224.354L256.706 190.872L261.126 203.63L248.064 224.354Z" fill="#2245BA"/>
<path d="M248.065 224.355L261.128 203.63L266.426 210.853L271.74 218.062L271.738 218.075L248.065 224.355Z" fill="#385FE5"/>
<path d="M261.128 203.63L268.621 191.488L276.434 204.149L261.128 203.63Z" fill="#5077FF"/>
<path d="M248.188 224.3L271.736 218.074L282.483 225.855L248.188 224.3ZM271.738 218.061L266.425 210.852L261.126 203.629L275.843 203.926L271.738 218.061Z" fill="#2245BA"/>
<path d="M285.399 214.219L275.925 203.685L268.621 191.487L279.529 201.045L285.399 214.219Z" fill="#385FE5"/>
<path d="M248.188 224.3L266.505 210.61L271.817 217.82L271.815 217.833L248.188 224.3Z" fill="#5077FF"/>
<path d="M283.044 225.922L271.818 217.833L271.82 217.82L285.399 214.22L283.044 225.922Z" fill="#5077FF"/>
<path d="M248.088 224.307L271.814 217.824L283.045 225.923L248.088 224.307ZM271.759 218.014L266.448 210.803L275.863 203.89L271.759 218.014Z" fill="#385FE5"/>
<path d="M271.818 217.82L275.921 203.697L275.923 203.685L285.398 214.218L271.818 217.82Z" fill="#2245BA"/>
<path d="M285.397 214.219L275.923 203.685L279.527 201.045L285.397 214.219Z" fill="#5077FF"/>
<path d="M264.706 201.051L262.968 203.875L263.98 207.033L261.156 205.295L257.998 206.307L259.736 203.483L258.724 200.325L261.548 202.063L264.706 201.051Z" fill="white"/>
<path d="M287.572 212.73L286.297 214.801L287.039 217.117L284.968 215.842L282.652 216.585L283.927 214.513L283.185 212.197L285.256 213.472L287.572 212.73Z" fill="white"/>
</g>
<defs>
<filter id="filter0_f_383_2" x="286.584" y="-11.4159" width="250.832" height="255.832" filterUnits="userSpaceOnUse" color-interpolation-filters="sRGB">
<feFlood flood-opacity="0" result="BackgroundImageFix"/>
<feBlend mode="normal" in="SourceGraphic" in2="BackgroundImageFix" result="shape"/>
<feGaussianBlur stdDeviation="35.208" result="effect1_foregroundBlur_383_2"/>
</filter>
<filter id="filter1_f_383_2" x="-37.4159" y="60.5841" width="222.832" height="225.832" filterUnits="userSpaceOnUse" color-interpolation-filters="sRGB">
<feFlood flood-opacity="0" result="BackgroundImageFix"/>
<feBlend mode="normal" in="SourceGraphic" in2="BackgroundImageFix" result="shape"/>
<feGaussianBlur stdDeviation="35.208" result="effect1_foregroundBlur_383_2"/>
</filter>
<filter id="filter2_f_383_2" x="201" y="176.586" width="77" height="79" filterUnits="userSpaceOnUse" color-interpolation-filters="sRGB">
<feFlood flood-opacity="0" result="BackgroundImageFix"/>
<feBlend mode="normal" in="SourceGraphic" in2="BackgroundImageFix" result="shape"/>
<feGaussianBlur stdDeviation="10" result="effect1_foregroundBlur_383_2"/>
</filter>
<filter id="filter3_f_383_2" x="-89.4159" y="-104.83" width="250.832" height="255.832" filterUnits="userSpaceOnUse" color-interpolation-filters="sRGB">
<feFlood flood-opacity="0" result="BackgroundImageFix"/>
<feBlend mode="normal" in="SourceGraphic" in2="BackgroundImageFix" result="shape"/>
<feGaussianBlur stdDeviation="35.208" result="effect1_foregroundBlur_383_2"/>
</filter>
<filter id="filter4_f_383_2" x="209.584" y="184.584" width="222.832" height="222.832" filterUnits="userSpaceOnUse" color-interpolation-filters="sRGB">
<feFlood flood-opacity="0" result="BackgroundImageFix"/>
<feBlend mode="normal" in="SourceGraphic" in2="BackgroundImageFix" result="shape"/>
<feGaussianBlur stdDeviation="35.208" result="effect1_foregroundBlur_383_2"/>
</filter>
<clipPath id="clip0_383_2">
<rect width="480" height="320" fill="white"/>
</clipPath>
</defs>
</svg>
