<svg width="480" height="320" viewBox="0 0 480 320" fill="none" xmlns="http://www.w3.org/2000/svg">
<g clip-path="url(#clip0_383_72)">
<rect x="-1" width="481" height="320" fill="#162865"/>
<g opacity="0.4" filter="url(#filter0_f_383_72)">
<ellipse cx="55" cy="57.5" rx="55" ry="57.5" transform="matrix(1 0 0 -1 349 161.586)" fill="#356DF2"/>
</g>
<g opacity="0.5" filter="url(#filter1_f_383_72)">
<circle cx="16.5" cy="16.5" r="16.5" transform="matrix(1 0 0 -1 223 239)" fill="#030E32"/>
</g>
<path d="M442.931 67.2001C443.221 67.2869 443.534 67.2548 443.8 67.111C444.067 66.9671 444.265 66.7232 444.352 66.433L452.204 40.1699C452.594 38.8638 452.485 37.3755 451.895 35.9794L446.719 23.7199C446.456 23.0939 446.1 22.5115 445.662 21.9927C445.794 21.668 445.914 21.3358 446.016 20.9948L448.755 9.99995L449.266 7.49976L449.499 4.99976L449.266 -0.0787655C449.353 -0.36899 449.321 -0.681796 449.177 -0.94837C449.033 -1.21494 448.789 -1.41345 448.499 -1.50022C448.209 -1.58698 447.896 -1.55491 447.629 -1.41104C447.363 -1.26718 447.164 -1.02331 447.078 -0.733081C447.078 -0.733081 447.233 1.79782 447.146 4.49976C447.094 6.10423 446.956 7.76901 446.649 8.99995C445.258 14.5713 443.786 20.4687 443.777 20.4961C443.482 20.3474 443.174 20.2248 442.857 20.1299L428.704 15.8987C427.708 15.6008 426.647 15.5883 425.619 15.8407C425.577 15.8428 425.535 15.8472 425.493 15.8539L413.273 17.8607C411.909 18.1026 410.673 18.8112 409.774 19.8648C409.764 19.8763 409.755 19.888 409.746 19.8998L401.991 29.7681C401.809 30.0067 401.728 30.3074 401.766 30.6051C401.804 30.9029 401.957 31.1738 402.193 31.3592C402.429 31.5447 402.728 31.6298 403.027 31.5962C403.325 31.5626 403.598 31.4129 403.787 31.1796L411.527 21.3303C412.079 20.6897 412.839 20.2568 413.656 20.1126L420.113 19.0524L412.449 24.1865C411.302 24.9552 410.468 26.1231 410.037 27.5638L398.739 65.3534C398.608 65.7935 398.518 66.2359 398.462 66.6768L388.68 58.3093C386.47 56.4192 386.212 53.0761 388.105 50.8573L388.129 50.8281L400.561 35.2352C400.75 34.9983 400.837 34.6962 400.803 34.3951C400.769 34.0941 400.617 33.8189 400.38 33.6301C400.143 33.4412 399.841 33.3542 399.54 33.3881C399.239 33.4221 398.964 33.5742 398.775 33.8111L386.354 49.3894C383.659 52.5653 384.034 57.3413 387.195 60.0448L398.666 69.857C398.68 69.8689 398.695 69.8791 398.71 69.8903C399.425 72.3885 401.329 74.4722 403.963 75.2597L430.956 83.3296C435.108 84.5709 439.665 82.1118 440.906 77.9596L442.825 71.5398C442.912 71.2495 442.88 70.9367 442.736 70.6702C442.592 70.4036 442.349 70.2051 442.058 70.1183C441.768 70.0315 441.455 70.0636 441.189 70.2075C440.922 70.3513 440.724 70.5952 440.637 70.8854L438.718 77.3053C437.831 80.2711 434.576 82.0277 431.61 81.141L404.618 73.0711C401.681 72.1932 400.026 69.0245 400.928 66.0075L412.226 28.2178C412.507 27.2785 413.01 26.5605 413.721 26.0841L424.776 18.6773C425.805 17.988 426.999 17.7728 428.05 18.0871L442.203 22.3184C442.409 22.38 442.608 22.4623 442.799 22.5624C441.416 24.6937 439.136 26.1356 436.553 26.4274C436.253 25.246 435.359 24.2459 434.108 23.8722C432.218 23.3069 430.22 24.3852 429.655 26.2759C429.089 28.1665 430.168 30.1645 432.058 30.7297C433.807 31.2524 435.646 30.369 436.36 28.7379C439.641 28.5043 442.575 26.8086 444.43 24.2225C444.498 24.3482 444.559 24.477 444.615 24.6084L449.791 36.868C450.174 37.7765 450.254 38.7168 450.015 39.5158L442.164 65.7789C442.121 65.9226 442.106 66.0733 442.122 66.2225C442.137 66.3717 442.181 66.5164 442.253 66.6484C442.324 66.7804 442.42 66.897 442.537 66.9917C442.653 67.0864 442.787 67.1572 442.931 67.2001ZM432.713 28.5411C432.029 28.3367 431.639 27.614 431.843 26.9302C432.048 26.2463 432.77 25.8563 433.454 26.0607C434.138 26.2652 434.528 26.9879 434.324 27.6717C434.119 28.3556 433.396 28.7456 432.713 28.5411Z" fill="#4479F7"/>
<path d="M412.978 59.9935C413.122 60.0367 413.272 60.0511 413.422 60.0357C413.571 60.0204 413.716 59.9758 413.848 59.9043L438.107 46.8119C438.374 46.668 438.572 46.4241 438.659 46.1339C438.746 45.8437 438.713 45.5309 438.57 45.2644C438.426 44.9978 438.182 44.7993 437.892 44.7126C437.602 44.6258 437.289 44.6579 437.022 44.8017L412.763 57.8942C411.871 58.3359 412.032 59.7468 412.978 59.9935ZM418.759 49.1649C421.373 49.9466 424.136 48.4553 424.918 45.8407C425.7 43.226 424.209 40.4627 421.594 39.681L421.448 39.6374C418.833 38.8557 416.07 40.347 415.288 42.9617C414.507 45.5763 415.998 48.3396 418.613 49.1213L418.759 49.1649ZM417.477 43.616C417.898 42.2081 419.386 41.4051 420.794 41.826L420.94 41.8696C422.347 42.2905 423.15 43.7785 422.73 45.1863C422.309 46.5942 420.821 47.3972 419.413 46.9763L419.267 46.9327C417.859 46.5118 417.056 45.0238 417.477 43.616ZM429.465 64.9227L429.611 64.9663C432.226 65.748 434.989 64.2567 435.771 61.6421C436.553 59.0275 435.061 56.2642 432.447 55.4825L432.301 55.4388C429.686 54.6572 426.923 56.1485 426.141 58.7631C425.359 61.3777 426.851 64.141 429.465 64.9227ZM431.646 57.6274L431.792 57.6711C433.2 58.0919 434.003 59.5799 433.582 60.9878C433.161 62.3956 431.673 63.1987 430.266 62.7778L430.12 62.7341C428.712 62.3132 427.909 60.8253 428.33 59.4174C428.751 58.0096 430.239 57.2065 431.646 57.6274Z" fill="#4479F7"/>
<g opacity="0.4" filter="url(#filter2_f_383_72)">
<ellipse cx="55" cy="57.5" rx="55" ry="57.5" transform="matrix(1 0 0 -1 -19 80.5859)" fill="#356DF2"/>
</g>
<g opacity="0.4" filter="url(#filter3_f_383_72)">
<ellipse cx="55" cy="57.5" rx="55" ry="57.5" transform="matrix(1 0 0 -1 209 350.586)" fill="#356DF2"/>
</g>
<path d="M105.577 46.5156L109.437 54.9453L113.296 46.5156H117.447L111.366 58.2715V65H107.507V58.2715L101.413 46.5156H105.577ZM117.485 58.2715V58.0049C117.485 56.9977 117.629 56.071 117.917 55.2246C118.205 54.3698 118.624 53.6292 119.174 53.0029C119.724 52.3766 120.401 51.89 121.205 51.543C122.009 51.1875 122.932 51.0098 123.973 51.0098C125.014 51.0098 125.94 51.1875 126.753 51.543C127.565 51.89 128.247 52.3766 128.797 53.0029C129.355 53.6292 129.779 54.3698 130.066 55.2246C130.354 56.071 130.498 56.9977 130.498 58.0049V58.2715C130.498 59.2702 130.354 60.1969 130.066 61.0518C129.779 61.8981 129.355 62.6387 128.797 63.2734C128.247 63.8997 127.57 64.3864 126.766 64.7334C125.962 65.0804 125.039 65.2539 123.998 65.2539C122.957 65.2539 122.03 65.0804 121.218 64.7334C120.414 64.3864 119.732 63.8997 119.174 63.2734C118.624 62.6387 118.205 61.8981 117.917 61.0518C117.629 60.1969 117.485 59.2702 117.485 58.2715ZM121.142 58.0049V58.2715C121.142 58.847 121.192 59.3844 121.294 59.8838C121.396 60.3831 121.556 60.8232 121.776 61.2041C122.005 61.5765 122.301 61.8685 122.665 62.0801C123.029 62.2917 123.473 62.3975 123.998 62.3975C124.506 62.3975 124.942 62.2917 125.306 62.0801C125.67 61.8685 125.962 61.5765 126.182 61.2041C126.402 60.8232 126.562 60.3831 126.664 59.8838C126.774 59.3844 126.829 58.847 126.829 58.2715V58.0049C126.829 57.4463 126.774 56.9215 126.664 56.4307C126.562 55.9313 126.397 55.4912 126.169 55.1104C125.949 54.721 125.657 54.4163 125.293 54.1963C124.929 53.9762 124.489 53.8662 123.973 53.8662C123.456 53.8662 123.016 53.9762 122.652 54.1963C122.297 54.4163 122.005 54.721 121.776 55.1104C121.556 55.4912 121.396 55.9313 121.294 56.4307C121.192 56.9215 121.142 57.4463 121.142 58.0049ZM140.87 61.7119V51.2637H144.526V65H141.086L140.87 61.7119ZM141.276 58.8936L142.355 58.8682C142.355 59.7822 142.25 60.6328 142.038 61.4199C141.826 62.1986 141.509 62.8757 141.086 63.4512C140.663 64.0182 140.13 64.4626 139.486 64.7842C138.843 65.0973 138.086 65.2539 137.214 65.2539C136.545 65.2539 135.927 65.1608 135.36 64.9746C134.802 64.7799 134.319 64.4795 133.913 64.0732C133.515 63.6585 133.202 63.1296 132.974 62.4863C132.754 61.8346 132.644 61.0518 132.644 60.1377V51.2637H136.3V60.1631C136.3 60.5693 136.346 60.9121 136.439 61.1914C136.541 61.4707 136.681 61.6992 136.858 61.877C137.036 62.0547 137.243 62.1816 137.48 62.2578C137.726 62.334 137.997 62.3721 138.293 62.3721C139.046 62.3721 139.639 62.2197 140.07 61.915C140.51 61.6104 140.819 61.1956 140.997 60.6709C141.183 60.1377 141.276 59.5452 141.276 58.8936ZM150.976 54.2598V65H147.319V51.2637H150.76L150.976 54.2598ZM155.114 51.1748L155.051 54.5645C154.873 54.5391 154.657 54.5179 154.403 54.501C154.158 54.4756 153.934 54.4629 153.73 54.4629C153.214 54.4629 152.766 54.5306 152.385 54.666C152.012 54.793 151.699 54.9834 151.445 55.2373C151.2 55.4912 151.014 55.8001 150.887 56.1641C150.768 56.528 150.701 56.9427 150.684 57.4082L149.947 57.1797C149.947 56.291 150.036 55.4743 150.214 54.7295C150.392 53.9762 150.65 53.3203 150.988 52.7617C151.335 52.2031 151.758 51.7715 152.258 51.4668C152.757 51.1621 153.328 51.0098 153.972 51.0098C154.175 51.0098 154.382 51.0267 154.594 51.0605C154.805 51.0859 154.979 51.124 155.114 51.1748ZM174.259 58.8682H178.055C177.979 60.1123 177.636 61.2168 177.026 62.1816C176.425 63.1465 175.583 63.8997 174.5 64.4414C173.425 64.9831 172.13 65.2539 170.615 65.2539C169.43 65.2539 168.368 65.0508 167.429 64.6445C166.489 64.2298 165.685 63.6374 165.017 62.8672C164.356 62.097 163.853 61.166 163.506 60.0742C163.159 58.9824 162.985 57.7594 162.985 56.4053V55.123C162.985 53.7689 163.163 52.5459 163.519 51.4541C163.882 50.3538 164.399 49.4186 165.067 48.6484C165.744 47.8783 166.553 47.2858 167.492 46.8711C168.432 46.4564 169.481 46.249 170.641 46.249C172.181 46.249 173.48 46.5283 174.538 47.0869C175.604 47.6455 176.43 48.4157 177.014 49.3975C177.606 50.3792 177.962 51.4964 178.08 52.749H174.271C174.229 52.0042 174.081 51.3737 173.827 50.8574C173.573 50.3327 173.188 49.9391 172.672 49.6768C172.164 49.4059 171.487 49.2705 170.641 49.2705C170.006 49.2705 169.451 49.389 168.978 49.626C168.504 49.863 168.106 50.2227 167.784 50.7051C167.463 51.1875 167.221 51.7969 167.061 52.5332C166.908 53.2611 166.832 54.1159 166.832 55.0977V56.4053C166.832 57.3617 166.904 58.2038 167.048 58.9316C167.192 59.651 167.412 60.2604 167.708 60.7598C168.013 61.2507 168.402 61.623 168.876 61.877C169.358 62.1224 169.938 62.2451 170.615 62.2451C171.411 62.2451 172.067 62.1182 172.583 61.8643C173.099 61.6104 173.493 61.2337 173.764 60.7344C174.043 60.235 174.208 59.613 174.259 58.8682ZM179.743 58.2715V58.0049C179.743 56.9977 179.887 56.071 180.175 55.2246C180.463 54.3698 180.882 53.6292 181.432 53.0029C181.982 52.3766 182.659 51.89 183.463 51.543C184.267 51.1875 185.189 51.0098 186.23 51.0098C187.271 51.0098 188.198 51.1875 189.011 51.543C189.823 51.89 190.505 52.3766 191.055 53.0029C191.613 53.6292 192.036 54.3698 192.324 55.2246C192.612 56.071 192.756 56.9977 192.756 58.0049V58.2715C192.756 59.2702 192.612 60.1969 192.324 61.0518C192.036 61.8981 191.613 62.6387 191.055 63.2734C190.505 63.8997 189.827 64.3864 189.023 64.7334C188.219 65.0804 187.297 65.2539 186.256 65.2539C185.215 65.2539 184.288 65.0804 183.476 64.7334C182.672 64.3864 181.99 63.8997 181.432 63.2734C180.882 62.6387 180.463 61.8981 180.175 61.0518C179.887 60.1969 179.743 59.2702 179.743 58.2715ZM183.399 58.0049V58.2715C183.399 58.847 183.45 59.3844 183.552 59.8838C183.653 60.3831 183.814 60.8232 184.034 61.2041C184.263 61.5765 184.559 61.8685 184.923 62.0801C185.287 62.2917 185.731 62.3975 186.256 62.3975C186.764 62.3975 187.2 62.2917 187.563 62.0801C187.927 61.8685 188.219 61.5765 188.439 61.2041C188.66 60.8232 188.82 60.3831 188.922 59.8838C189.032 59.3844 189.087 58.847 189.087 58.2715V58.0049C189.087 57.4463 189.032 56.9215 188.922 56.4307C188.82 55.9313 188.655 55.4912 188.427 55.1104C188.207 54.721 187.915 54.4163 187.551 54.1963C187.187 53.9762 186.747 53.8662 186.23 53.8662C185.714 53.8662 185.274 53.9762 184.91 54.1963C184.555 54.4163 184.263 54.721 184.034 55.1104C183.814 55.4912 183.653 55.9313 183.552 56.4307C183.45 56.9215 183.399 57.4463 183.399 58.0049ZM203.128 61.7119V51.2637H206.784V65H203.344L203.128 61.7119ZM203.534 58.8936L204.613 58.8682C204.613 59.7822 204.507 60.6328 204.296 61.4199C204.084 62.1986 203.767 62.8757 203.344 63.4512C202.921 64.0182 202.387 64.4626 201.744 64.7842C201.101 65.0973 200.343 65.2539 199.472 65.2539C198.803 65.2539 198.185 65.1608 197.618 64.9746C197.06 64.7799 196.577 64.4795 196.171 64.0732C195.773 63.6585 195.46 63.1296 195.231 62.4863C195.011 61.8346 194.901 61.0518 194.901 60.1377V51.2637H198.558V60.1631C198.558 60.5693 198.604 60.9121 198.697 61.1914C198.799 61.4707 198.938 61.6992 199.116 61.877C199.294 62.0547 199.501 62.1816 199.738 62.2578C199.984 62.334 200.255 62.3721 200.551 62.3721C201.304 62.3721 201.896 62.2197 202.328 61.915C202.768 61.6104 203.077 61.1956 203.255 60.6709C203.441 60.1377 203.534 59.5452 203.534 58.8936ZM213.233 53.9043V70.2812H209.577V51.2637H212.967L213.233 53.9043ZM221.93 57.9795V58.2461C221.93 59.2448 221.811 60.1715 221.574 61.0264C221.346 61.8812 221.007 62.626 220.559 63.2607C220.11 63.887 219.551 64.3779 218.883 64.7334C218.223 65.0804 217.461 65.2539 216.598 65.2539C215.76 65.2539 215.032 65.0846 214.414 64.7461C213.796 64.4076 213.276 63.9336 212.853 63.3242C212.438 62.7064 212.104 61.9912 211.85 61.1787C211.596 60.3662 211.401 59.4945 211.266 58.5635V57.8652C211.401 56.8665 211.596 55.9525 211.85 55.123C212.104 54.2852 212.438 53.5615 212.853 52.9521C213.276 52.3343 213.792 51.8561 214.401 51.5176C215.019 51.179 215.743 51.0098 216.572 51.0098C217.444 51.0098 218.21 51.1748 218.87 51.5049C219.539 51.835 220.097 52.3089 220.546 52.9268C221.003 53.5446 221.346 54.2809 221.574 55.1357C221.811 55.9906 221.93 56.9385 221.93 57.9795ZM218.261 58.2461V57.9795C218.261 57.3955 218.21 56.8581 218.108 56.3672C218.015 55.8678 217.863 55.432 217.651 55.0596C217.448 54.6872 217.177 54.3994 216.839 54.1963C216.509 53.9847 216.107 53.8789 215.633 53.8789C215.133 53.8789 214.706 53.9593 214.351 54.1201C214.004 54.2809 213.72 54.5137 213.5 54.8184C213.28 55.123 213.115 55.487 213.005 55.9102C212.895 56.3333 212.827 56.8115 212.802 57.3447V59.1094C212.844 59.7357 212.963 60.2985 213.157 60.7979C213.352 61.2887 213.652 61.6781 214.059 61.9658C214.465 62.2536 214.998 62.3975 215.658 62.3975C216.141 62.3975 216.547 62.2917 216.877 62.0801C217.207 61.86 217.474 61.5596 217.677 61.1787C217.888 60.7979 218.036 60.3577 218.121 59.8584C218.214 59.359 218.261 58.8216 218.261 58.2461ZM223.618 58.2715V58.0049C223.618 56.9977 223.762 56.071 224.05 55.2246C224.338 54.3698 224.757 53.6292 225.307 53.0029C225.857 52.3766 226.534 51.89 227.338 51.543C228.142 51.1875 229.064 51.0098 230.105 51.0098C231.146 51.0098 232.073 51.1875 232.886 51.543C233.698 51.89 234.38 52.3766 234.93 53.0029C235.488 53.6292 235.911 54.3698 236.199 55.2246C236.487 56.071 236.631 56.9977 236.631 58.0049V58.2715C236.631 59.2702 236.487 60.1969 236.199 61.0518C235.911 61.8981 235.488 62.6387 234.93 63.2734C234.38 63.8997 233.702 64.3864 232.898 64.7334C232.094 65.0804 231.172 65.2539 230.131 65.2539C229.09 65.2539 228.163 65.0804 227.351 64.7334C226.547 64.3864 225.865 63.8997 225.307 63.2734C224.757 62.6387 224.338 61.8981 224.05 61.0518C223.762 60.1969 223.618 59.2702 223.618 58.2715ZM227.274 58.0049V58.2715C227.274 58.847 227.325 59.3844 227.427 59.8838C227.528 60.3831 227.689 60.8232 227.909 61.2041C228.138 61.5765 228.434 61.8685 228.798 62.0801C229.162 62.2917 229.606 62.3975 230.131 62.3975C230.639 62.3975 231.075 62.2917 231.438 62.0801C231.802 61.8685 232.094 61.5765 232.314 61.2041C232.535 60.8232 232.695 60.3831 232.797 59.8838C232.907 59.3844 232.962 58.847 232.962 58.2715V58.0049C232.962 57.4463 232.907 56.9215 232.797 56.4307C232.695 55.9313 232.53 55.4912 232.302 55.1104C232.082 54.721 231.79 54.4163 231.426 54.1963C231.062 53.9762 230.622 53.8662 230.105 53.8662C229.589 53.8662 229.149 53.9762 228.785 54.1963C228.43 54.4163 228.138 54.721 227.909 55.1104C227.689 55.4912 227.528 55.9313 227.427 56.4307C227.325 56.9215 227.274 57.4463 227.274 58.0049ZM242.458 54.1963V65H238.802V51.2637H242.229L242.458 54.1963ZM241.925 57.6494H240.935C240.935 56.6338 241.066 55.7197 241.328 54.9072C241.59 54.0863 241.959 53.388 242.433 52.8125C242.907 52.2285 243.469 51.7842 244.121 51.4795C244.781 51.1663 245.518 51.0098 246.33 51.0098C246.973 51.0098 247.562 51.1029 248.095 51.2891C248.628 51.4753 249.085 51.7715 249.466 52.1777C249.855 52.584 250.151 53.1214 250.354 53.79C250.566 54.4587 250.672 55.2754 250.672 56.2402V65H246.99V56.2275C246.99 55.6182 246.906 55.1442 246.736 54.8057C246.567 54.4671 246.317 54.2301 245.987 54.0947C245.666 53.9508 245.268 53.8789 244.794 53.8789C244.303 53.8789 243.876 53.9762 243.512 54.1709C243.156 54.3656 242.86 54.6364 242.623 54.9834C242.395 55.3219 242.221 55.7197 242.103 56.1768C241.984 56.6338 241.925 57.1247 241.925 57.6494ZM265.602 62.3975C266.05 62.3975 266.448 62.3128 266.795 62.1436C267.142 61.9658 267.413 61.7204 267.607 61.4072C267.811 61.0856 267.916 60.709 267.925 60.2773H271.365C271.357 61.2422 271.099 62.1012 270.591 62.8545C270.083 63.5993 269.402 64.1875 268.547 64.6191C267.692 65.0423 266.736 65.2539 265.678 65.2539C264.611 65.2539 263.68 65.0762 262.885 64.7207C262.098 64.3652 261.442 63.8743 260.917 63.248C260.392 62.6133 259.999 61.877 259.736 61.0391C259.474 60.1927 259.343 59.2871 259.343 58.3223V57.9541C259.343 56.9808 259.474 56.0752 259.736 55.2373C259.999 54.391 260.392 53.6546 260.917 53.0283C261.442 52.3936 262.098 51.8984 262.885 51.543C263.672 51.1875 264.594 51.0098 265.652 51.0098C266.778 51.0098 267.764 51.2256 268.61 51.6572C269.465 52.0889 270.134 52.7067 270.616 53.5107C271.107 54.3063 271.357 55.25 271.365 56.3418H267.925C267.916 55.8848 267.819 55.4701 267.633 55.0977C267.455 54.7253 267.193 54.429 266.846 54.209C266.507 53.9805 266.088 53.8662 265.589 53.8662C265.056 53.8662 264.62 53.9805 264.281 54.209C263.943 54.429 263.68 54.7337 263.494 55.123C263.308 55.5039 263.177 55.9398 263.101 56.4307C263.033 56.9131 262.999 57.4209 262.999 57.9541V58.3223C262.999 58.8555 263.033 59.3675 263.101 59.8584C263.168 60.3493 263.295 60.7852 263.481 61.166C263.676 61.5469 263.943 61.8473 264.281 62.0674C264.62 62.2874 265.06 62.3975 265.602 62.3975ZM272.901 58.2715V58.0049C272.901 56.9977 273.045 56.071 273.333 55.2246C273.621 54.3698 274.04 53.6292 274.59 53.0029C275.14 52.3766 275.817 51.89 276.621 51.543C277.425 51.1875 278.348 51.0098 279.389 51.0098C280.43 51.0098 281.356 51.1875 282.169 51.543C282.981 51.89 283.663 52.3766 284.213 53.0029C284.771 53.6292 285.195 54.3698 285.482 55.2246C285.77 56.071 285.914 56.9977 285.914 58.0049V58.2715C285.914 59.2702 285.77 60.1969 285.482 61.0518C285.195 61.8981 284.771 62.6387 284.213 63.2734C283.663 63.8997 282.986 64.3864 282.182 64.7334C281.378 65.0804 280.455 65.2539 279.414 65.2539C278.373 65.2539 277.446 65.0804 276.634 64.7334C275.83 64.3864 275.148 63.8997 274.59 63.2734C274.04 62.6387 273.621 61.8981 273.333 61.0518C273.045 60.1969 272.901 59.2702 272.901 58.2715ZM276.558 58.0049V58.2715C276.558 58.847 276.608 59.3844 276.71 59.8838C276.812 60.3831 276.972 60.8232 277.192 61.2041C277.421 61.5765 277.717 61.8685 278.081 62.0801C278.445 62.2917 278.889 62.3975 279.414 62.3975C279.922 62.3975 280.358 62.2917 280.722 62.0801C281.086 61.8685 281.378 61.5765 281.598 61.2041C281.818 60.8232 281.979 60.3831 282.08 59.8838C282.19 59.3844 282.245 58.847 282.245 58.2715V58.0049C282.245 57.4463 282.19 56.9215 282.08 56.4307C281.979 55.9313 281.813 55.4912 281.585 55.1104C281.365 54.721 281.073 54.4163 280.709 54.1963C280.345 53.9762 279.905 53.8662 279.389 53.8662C278.872 53.8662 278.432 53.9762 278.068 54.1963C277.713 54.4163 277.421 54.721 277.192 55.1104C276.972 55.4912 276.812 55.9313 276.71 56.4307C276.608 56.9215 276.558 57.4463 276.558 58.0049ZM296.273 62.0039V45.5H299.955V65H296.642L296.273 62.0039ZM287.59 58.2969V58.0303C287.59 56.9808 287.708 56.0286 287.945 55.1738C288.182 54.3105 288.529 53.57 288.986 52.9521C289.443 52.3343 290.006 51.8561 290.675 51.5176C291.343 51.179 292.105 51.0098 292.96 51.0098C293.764 51.0098 294.466 51.179 295.067 51.5176C295.677 51.8561 296.193 52.3385 296.616 52.9648C297.048 53.5827 297.395 54.3148 297.657 55.1611C297.92 55.999 298.11 56.9173 298.229 57.916V58.5C298.11 59.4564 297.92 60.3451 297.657 61.166C297.395 61.987 297.048 62.7064 296.616 63.3242C296.193 63.9336 295.677 64.4076 295.067 64.7461C294.458 65.0846 293.747 65.2539 292.935 65.2539C292.08 65.2539 291.318 65.0804 290.649 64.7334C289.989 64.3864 289.431 63.8997 288.974 63.2734C288.525 62.6471 288.182 61.9108 287.945 61.0645C287.708 60.2181 287.59 59.2956 287.59 58.2969ZM291.246 58.0303V58.2969C291.246 58.8639 291.288 59.3929 291.373 59.8838C291.466 60.3747 291.614 60.8105 291.817 61.1914C292.029 61.5638 292.3 61.8558 292.63 62.0674C292.968 62.2705 293.379 62.3721 293.861 62.3721C294.488 62.3721 295.004 62.2324 295.41 61.9531C295.816 61.6654 296.125 61.2718 296.337 60.7725C296.557 60.2731 296.684 59.6976 296.718 59.0459V57.3828C296.692 56.8496 296.616 56.3714 296.489 55.9482C296.371 55.5166 296.193 55.1484 295.956 54.8438C295.728 54.5391 295.44 54.3021 295.093 54.1328C294.754 53.9635 294.352 53.8789 293.887 53.8789C293.413 53.8789 293.007 53.9889 292.668 54.209C292.329 54.4206 292.054 54.7126 291.843 55.085C291.64 55.4574 291.487 55.8975 291.386 56.4053C291.293 56.9046 291.246 57.4463 291.246 58.0303ZM309.134 65.2539C308.067 65.2539 307.111 65.0846 306.265 64.7461C305.418 64.3991 304.699 63.9209 304.106 63.3115C303.522 62.7021 303.074 61.9954 302.761 61.1914C302.448 60.3789 302.291 59.5156 302.291 58.6016V58.0938C302.291 57.0527 302.439 56.1006 302.735 55.2373C303.032 54.374 303.455 53.625 304.005 52.9902C304.563 52.3555 305.241 51.8688 306.036 51.5303C306.832 51.1833 307.729 51.0098 308.728 51.0098C309.701 51.0098 310.564 51.1706 311.317 51.4922C312.071 51.8138 312.701 52.2708 313.209 52.8633C313.725 53.4557 314.115 54.1667 314.377 54.9961C314.639 55.8171 314.771 56.7311 314.771 57.7383V59.2617H303.853V56.8242H311.178V56.5449C311.178 56.0371 311.085 55.5843 310.898 55.1865C310.721 54.7803 310.45 54.4587 310.086 54.2217C309.722 53.9847 309.257 53.8662 308.689 53.8662C308.207 53.8662 307.792 53.972 307.445 54.1836C307.098 54.3952 306.815 54.6914 306.595 55.0723C306.383 55.4531 306.222 55.9017 306.112 56.418C306.011 56.9258 305.96 57.4844 305.96 58.0938V58.6016C305.96 59.1517 306.036 59.6595 306.188 60.125C306.349 60.5905 306.574 60.9925 306.861 61.3311C307.158 61.6696 307.513 61.932 307.928 62.1182C308.351 62.3044 308.829 62.3975 309.362 62.3975C310.022 62.3975 310.636 62.2705 311.203 62.0166C311.779 61.7542 312.274 61.3607 312.688 60.8359L314.466 62.7656C314.178 63.1803 313.785 63.5781 313.285 63.959C312.794 64.3398 312.202 64.653 311.508 64.8984C310.814 65.1354 310.022 65.2539 309.134 65.2539ZM335.883 54.0439V57.0146H326.234V54.0439H335.883ZM327.364 46.5156V65H323.556V46.5156H327.364ZM338.6 46.5156V65H334.804V46.5156H338.6ZM348.007 65.2539C346.94 65.2539 345.984 65.0846 345.138 64.7461C344.291 64.3991 343.572 63.9209 342.979 63.3115C342.396 62.7021 341.947 61.9954 341.634 61.1914C341.321 60.3789 341.164 59.5156 341.164 58.6016V58.0938C341.164 57.0527 341.312 56.1006 341.608 55.2373C341.905 54.374 342.328 53.625 342.878 52.9902C343.437 52.3555 344.114 51.8688 344.909 51.5303C345.705 51.1833 346.602 51.0098 347.601 51.0098C348.574 51.0098 349.437 51.1706 350.19 51.4922C350.944 51.8138 351.574 52.2708 352.082 52.8633C352.598 53.4557 352.988 54.1667 353.25 54.9961C353.512 55.8171 353.644 56.7311 353.644 57.7383V59.2617H342.726V56.8242H350.051V56.5449C350.051 56.0371 349.958 55.5843 349.771 55.1865C349.594 54.7803 349.323 54.4587 348.959 54.2217C348.595 53.9847 348.13 53.8662 347.562 53.8662C347.08 53.8662 346.665 53.972 346.318 54.1836C345.971 54.3952 345.688 54.6914 345.468 55.0723C345.256 55.4531 345.095 55.9017 344.985 56.418C344.884 56.9258 344.833 57.4844 344.833 58.0938V58.6016C344.833 59.1517 344.909 59.6595 345.062 60.125C345.222 60.5905 345.447 60.9925 345.734 61.3311C346.031 61.6696 346.386 61.932 346.801 62.1182C347.224 62.3044 347.702 62.3975 348.235 62.3975C348.896 62.3975 349.509 62.2705 350.076 62.0166C350.652 61.7542 351.147 61.3607 351.562 60.8359L353.339 62.7656C353.051 63.1803 352.658 63.5781 352.158 63.959C351.667 64.3398 351.075 64.653 350.381 64.8984C349.687 65.1354 348.896 65.2539 348.007 65.2539ZM359.382 54.2598V65H355.726V51.2637H359.166L359.382 54.2598ZM363.521 51.1748L363.457 54.5645C363.279 54.5391 363.063 54.5179 362.81 54.501C362.564 54.4756 362.34 54.4629 362.137 54.4629C361.62 54.4629 361.172 54.5306 360.791 54.666C360.419 54.793 360.105 54.9834 359.852 55.2373C359.606 55.4912 359.42 55.8001 359.293 56.1641C359.174 56.528 359.107 56.9427 359.09 57.4082L358.354 57.1797C358.354 56.291 358.442 55.4743 358.62 54.7295C358.798 53.9762 359.056 53.3203 359.395 52.7617C359.742 52.2031 360.165 51.7715 360.664 51.4668C361.163 51.1621 361.735 51.0098 362.378 51.0098C362.581 51.0098 362.788 51.0267 363 51.0605C363.212 51.0859 363.385 51.124 363.521 51.1748ZM371.315 65.2539C370.249 65.2539 369.293 65.0846 368.446 64.7461C367.6 64.3991 366.881 63.9209 366.288 63.3115C365.704 62.7021 365.256 61.9954 364.942 61.1914C364.629 60.3789 364.473 59.5156 364.473 58.6016V58.0938C364.473 57.0527 364.621 56.1006 364.917 55.2373C365.213 54.374 365.636 53.625 366.187 52.9902C366.745 52.3555 367.422 51.8688 368.218 51.5303C369.013 51.1833 369.91 51.0098 370.909 51.0098C371.882 51.0098 372.746 51.1706 373.499 51.4922C374.252 51.8138 374.883 52.2708 375.391 52.8633C375.907 53.4557 376.296 54.1667 376.559 54.9961C376.821 55.8171 376.952 56.7311 376.952 57.7383V59.2617H366.034V56.8242H373.359V56.5449C373.359 56.0371 373.266 55.5843 373.08 55.1865C372.902 54.7803 372.632 54.4587 372.268 54.2217C371.904 53.9847 371.438 53.8662 370.871 53.8662C370.389 53.8662 369.974 53.972 369.627 54.1836C369.28 54.3952 368.996 54.6914 368.776 55.0723C368.565 55.4531 368.404 55.9017 368.294 56.418C368.192 56.9258 368.142 57.4844 368.142 58.0938V58.6016C368.142 59.1517 368.218 59.6595 368.37 60.125C368.531 60.5905 368.755 60.9925 369.043 61.3311C369.339 61.6696 369.695 61.932 370.109 62.1182C370.533 62.3044 371.011 62.3975 371.544 62.3975C372.204 62.3975 372.818 62.2705 373.385 62.0166C373.96 61.7542 374.455 61.3607 374.87 60.8359L376.647 62.7656C376.36 63.1803 375.966 63.5781 375.467 63.959C374.976 64.3398 374.383 64.653 373.689 64.8984C372.995 65.1354 372.204 65.2539 371.315 65.2539Z" fill="white"/>
<path d="M137.274 102.931H138.962C138.874 103.739 138.643 104.463 138.268 105.102C137.893 105.74 137.362 106.247 136.677 106.622C135.991 106.991 135.136 107.176 134.11 107.176C133.36 107.176 132.678 107.035 132.062 106.754C131.453 106.473 130.929 106.074 130.489 105.559C130.05 105.037 129.71 104.413 129.47 103.687C129.235 102.954 129.118 102.14 129.118 101.243V99.9688C129.118 99.0723 129.235 98.2607 129.47 97.5342C129.71 96.8018 130.053 96.1748 130.498 95.6533C130.949 95.1318 131.491 94.7305 132.124 94.4492C132.757 94.168 133.469 94.0273 134.26 94.0273C135.227 94.0273 136.044 94.209 136.712 94.5723C137.38 94.9355 137.898 95.4395 138.268 96.084C138.643 96.7227 138.874 97.4639 138.962 98.3076H137.274C137.192 97.71 137.04 97.1973 136.817 96.7695C136.595 96.3359 136.278 96.002 135.868 95.7676C135.458 95.5332 134.922 95.416 134.26 95.416C133.691 95.416 133.19 95.5244 132.757 95.7412C132.329 95.958 131.969 96.2656 131.676 96.6641C131.389 97.0625 131.172 97.54 131.025 98.0967C130.879 98.6533 130.806 99.2715 130.806 99.9512V101.243C130.806 101.87 130.87 102.459 130.999 103.01C131.134 103.561 131.336 104.044 131.605 104.46C131.875 104.876 132.218 105.204 132.634 105.444C133.05 105.679 133.542 105.796 134.11 105.796C134.831 105.796 135.405 105.682 135.833 105.453C136.261 105.225 136.583 104.896 136.8 104.469C137.022 104.041 137.181 103.528 137.274 102.931ZM140.597 102.351V102.148C140.597 101.463 140.696 100.827 140.896 100.241C141.095 99.6494 141.382 99.1367 141.757 98.7031C142.132 98.2637 142.586 97.9238 143.119 97.6836C143.652 97.4375 144.25 97.3145 144.912 97.3145C145.58 97.3145 146.181 97.4375 146.714 97.6836C147.253 97.9238 147.71 98.2637 148.085 98.7031C148.466 99.1367 148.756 99.6494 148.955 100.241C149.154 100.827 149.254 101.463 149.254 102.148V102.351C149.254 103.036 149.154 103.672 148.955 104.258C148.756 104.844 148.466 105.356 148.085 105.796C147.71 106.229 147.256 106.569 146.723 106.815C146.195 107.056 145.598 107.176 144.93 107.176C144.262 107.176 143.661 107.056 143.128 106.815C142.595 106.569 142.138 106.229 141.757 105.796C141.382 105.356 141.095 104.844 140.896 104.258C140.696 103.672 140.597 103.036 140.597 102.351ZM142.223 102.148V102.351C142.223 102.825 142.278 103.273 142.39 103.695C142.501 104.111 142.668 104.48 142.891 104.803C143.119 105.125 143.403 105.38 143.743 105.567C144.083 105.749 144.479 105.84 144.93 105.84C145.375 105.84 145.765 105.749 146.099 105.567C146.438 105.38 146.72 105.125 146.942 104.803C147.165 104.48 147.332 104.111 147.443 103.695C147.561 103.273 147.619 102.825 147.619 102.351V102.148C147.619 101.68 147.561 101.237 147.443 100.821C147.332 100.399 147.162 100.027 146.934 99.7051C146.711 99.377 146.43 99.1191 146.09 98.9316C145.756 98.7441 145.363 98.6504 144.912 98.6504C144.467 98.6504 144.074 98.7441 143.734 98.9316C143.4 99.1191 143.119 99.377 142.891 99.7051C142.668 100.027 142.501 100.399 142.39 100.821C142.278 101.237 142.223 101.68 142.223 102.148ZM152.919 99.5205V107H151.293V97.4902H152.831L152.919 99.5205ZM152.532 101.885L151.855 101.858C151.861 101.208 151.958 100.607 152.146 100.057C152.333 99.5 152.597 99.0166 152.937 98.6064C153.276 98.1963 153.681 97.8799 154.149 97.6572C154.624 97.4287 155.148 97.3145 155.723 97.3145C156.191 97.3145 156.613 97.3789 156.988 97.5078C157.363 97.6309 157.683 97.8301 157.946 98.1055C158.216 98.3809 158.421 98.7383 158.562 99.1777C158.702 99.6113 158.772 100.142 158.772 100.769V107H157.138V100.751C157.138 100.253 157.064 99.8545 156.918 99.5557C156.771 99.251 156.558 99.0312 156.276 98.8965C155.995 98.7559 155.649 98.6855 155.239 98.6855C154.835 98.6855 154.466 98.7705 154.132 98.9404C153.804 99.1104 153.52 99.3447 153.279 99.6436C153.045 99.9424 152.86 100.285 152.726 100.672C152.597 101.053 152.532 101.457 152.532 101.885ZM167.403 97.4902H168.88V106.798C168.88 107.636 168.71 108.351 168.37 108.942C168.03 109.534 167.556 109.982 166.946 110.287C166.343 110.598 165.646 110.753 164.854 110.753C164.526 110.753 164.14 110.7 163.694 110.595C163.255 110.495 162.821 110.322 162.394 110.076C161.972 109.836 161.617 109.511 161.33 109.101L162.183 108.134C162.581 108.614 162.997 108.948 163.431 109.136C163.87 109.323 164.304 109.417 164.731 109.417C165.247 109.417 165.692 109.32 166.067 109.127C166.442 108.934 166.732 108.646 166.938 108.266C167.148 107.891 167.254 107.428 167.254 106.877V99.582L167.403 97.4902ZM160.855 102.351V102.166C160.855 101.439 160.94 100.78 161.11 100.188C161.286 99.5908 161.535 99.0781 161.857 98.6504C162.186 98.2227 162.581 97.8945 163.044 97.666C163.507 97.4316 164.028 97.3145 164.608 97.3145C165.206 97.3145 165.728 97.4199 166.173 97.6309C166.624 97.8359 167.005 98.1377 167.315 98.5361C167.632 98.9287 167.881 99.4033 168.062 99.96C168.244 100.517 168.37 101.146 168.44 101.85V102.658C168.376 103.355 168.25 103.982 168.062 104.539C167.881 105.096 167.632 105.57 167.315 105.963C167.005 106.355 166.624 106.657 166.173 106.868C165.722 107.073 165.194 107.176 164.591 107.176C164.022 107.176 163.507 107.056 163.044 106.815C162.587 106.575 162.194 106.238 161.866 105.805C161.538 105.371 161.286 104.861 161.11 104.275C160.94 103.684 160.855 103.042 160.855 102.351ZM162.481 102.166V102.351C162.481 102.825 162.528 103.271 162.622 103.687C162.722 104.103 162.871 104.469 163.07 104.785C163.275 105.102 163.536 105.351 163.853 105.532C164.169 105.708 164.547 105.796 164.986 105.796C165.525 105.796 165.971 105.682 166.322 105.453C166.674 105.225 166.952 104.923 167.157 104.548C167.368 104.173 167.532 103.766 167.649 103.326V101.208C167.585 100.886 167.485 100.575 167.351 100.276C167.222 99.9717 167.052 99.7021 166.841 99.4678C166.636 99.2275 166.381 99.0371 166.076 98.8965C165.771 98.7559 165.414 98.6855 165.004 98.6855C164.559 98.6855 164.175 98.7793 163.853 98.9668C163.536 99.1484 163.275 99.4004 163.07 99.7227C162.871 100.039 162.722 100.408 162.622 100.83C162.528 101.246 162.481 101.691 162.481 102.166ZM172.976 98.9844V107H171.35V97.4902H172.932L172.976 98.9844ZM175.946 97.4375L175.938 98.9492C175.803 98.9199 175.674 98.9023 175.551 98.8965C175.434 98.8848 175.299 98.8789 175.146 98.8789C174.771 98.8789 174.44 98.9375 174.153 99.0547C173.866 99.1719 173.623 99.3359 173.424 99.5469C173.225 99.7578 173.066 100.01 172.949 100.303C172.838 100.59 172.765 100.906 172.729 101.252L172.272 101.516C172.272 100.941 172.328 100.402 172.439 99.8984C172.557 99.3945 172.735 98.9492 172.976 98.5625C173.216 98.1699 173.521 97.8652 173.89 97.6484C174.265 97.4258 174.71 97.3145 175.226 97.3145C175.343 97.3145 175.478 97.3291 175.63 97.3584C175.782 97.3818 175.888 97.4082 175.946 97.4375ZM182.705 105.374V100.479C182.705 100.104 182.629 99.7783 182.477 99.5029C182.33 99.2217 182.107 99.0049 181.809 98.8525C181.51 98.7002 181.141 98.624 180.701 98.624C180.291 98.624 179.931 98.6943 179.62 98.835C179.315 98.9756 179.075 99.1602 178.899 99.3887C178.729 99.6172 178.645 99.8633 178.645 100.127H177.019C177.019 99.7871 177.106 99.4502 177.282 99.1162C177.458 98.7822 177.71 98.4805 178.038 98.2109C178.372 97.9355 178.771 97.7188 179.233 97.5605C179.702 97.3965 180.224 97.3145 180.798 97.3145C181.489 97.3145 182.099 97.4316 182.626 97.666C183.159 97.9004 183.575 98.2549 183.874 98.7295C184.179 99.1982 184.331 99.7871 184.331 100.496V104.926C184.331 105.242 184.357 105.579 184.41 105.937C184.469 106.294 184.554 106.602 184.665 106.859V107H182.969C182.887 106.812 182.822 106.563 182.775 106.253C182.729 105.937 182.705 105.644 182.705 105.374ZM182.986 101.234L183.004 102.377H181.36C180.897 102.377 180.484 102.415 180.121 102.491C179.758 102.562 179.453 102.67 179.207 102.816C178.961 102.963 178.773 103.147 178.645 103.37C178.516 103.587 178.451 103.842 178.451 104.135C178.451 104.434 178.519 104.706 178.653 104.952C178.788 105.198 178.99 105.395 179.26 105.541C179.535 105.682 179.872 105.752 180.271 105.752C180.769 105.752 181.208 105.646 181.589 105.436C181.97 105.225 182.271 104.967 182.494 104.662C182.723 104.357 182.846 104.062 182.863 103.774L183.558 104.557C183.517 104.803 183.405 105.075 183.224 105.374C183.042 105.673 182.799 105.96 182.494 106.235C182.195 106.505 181.838 106.73 181.422 106.912C181.012 107.088 180.549 107.176 180.033 107.176C179.389 107.176 178.823 107.05 178.337 106.798C177.856 106.546 177.481 106.209 177.212 105.787C176.948 105.359 176.816 104.882 176.816 104.354C176.816 103.845 176.916 103.396 177.115 103.01C177.314 102.617 177.602 102.292 177.977 102.034C178.352 101.771 178.803 101.571 179.33 101.437C179.857 101.302 180.446 101.234 181.097 101.234H182.986ZM190.87 97.4902V98.7383H185.729V97.4902H190.87ZM187.469 95.1787H189.095V104.645C189.095 104.967 189.145 105.21 189.244 105.374C189.344 105.538 189.473 105.646 189.631 105.699C189.789 105.752 189.959 105.778 190.141 105.778C190.275 105.778 190.416 105.767 190.562 105.743C190.715 105.714 190.829 105.69 190.905 105.673L190.914 107C190.785 107.041 190.615 107.079 190.404 107.114C190.199 107.155 189.95 107.176 189.657 107.176C189.259 107.176 188.893 107.097 188.559 106.938C188.225 106.78 187.958 106.517 187.759 106.147C187.565 105.772 187.469 105.269 187.469 104.636V95.1787ZM198.596 104.803V97.4902H200.23V107H198.675L198.596 104.803ZM198.903 102.799L199.58 102.781C199.58 103.414 199.513 104 199.378 104.539C199.249 105.072 199.038 105.535 198.745 105.928C198.452 106.32 198.068 106.628 197.594 106.851C197.119 107.067 196.542 107.176 195.862 107.176C195.399 107.176 194.975 107.108 194.588 106.974C194.207 106.839 193.879 106.631 193.604 106.35C193.328 106.068 193.114 105.702 192.962 105.251C192.815 104.8 192.742 104.258 192.742 103.625V97.4902H194.368V103.643C194.368 104.07 194.415 104.425 194.509 104.706C194.608 104.981 194.74 105.201 194.904 105.365C195.074 105.523 195.262 105.635 195.467 105.699C195.678 105.764 195.895 105.796 196.117 105.796C196.809 105.796 197.356 105.664 197.761 105.4C198.165 105.131 198.455 104.771 198.631 104.319C198.812 103.862 198.903 103.355 198.903 102.799ZM204.476 93.5V107H202.841V93.5H204.476ZM212.693 105.374V100.479C212.693 100.104 212.617 99.7783 212.465 99.5029C212.318 99.2217 212.096 99.0049 211.797 98.8525C211.498 98.7002 211.129 98.624 210.689 98.624C210.279 98.624 209.919 98.6943 209.608 98.835C209.304 98.9756 209.063 99.1602 208.888 99.3887C208.718 99.6172 208.633 99.8633 208.633 100.127H207.007C207.007 99.7871 207.095 99.4502 207.271 99.1162C207.446 98.7822 207.698 98.4805 208.026 98.2109C208.36 97.9355 208.759 97.7188 209.222 97.5605C209.69 97.3965 210.212 97.3145 210.786 97.3145C211.478 97.3145 212.087 97.4316 212.614 97.666C213.147 97.9004 213.563 98.2549 213.862 98.7295C214.167 99.1982 214.319 99.7871 214.319 100.496V104.926C214.319 105.242 214.346 105.579 214.398 105.937C214.457 106.294 214.542 106.602 214.653 106.859V107H212.957C212.875 106.812 212.811 106.563 212.764 106.253C212.717 105.937 212.693 105.644 212.693 105.374ZM212.975 101.234L212.992 102.377H211.349C210.886 102.377 210.473 102.415 210.109 102.491C209.746 102.562 209.441 102.67 209.195 102.816C208.949 102.963 208.762 103.147 208.633 103.37C208.504 103.587 208.439 103.842 208.439 104.135C208.439 104.434 208.507 104.706 208.642 104.952C208.776 105.198 208.979 105.395 209.248 105.541C209.523 105.682 209.86 105.752 210.259 105.752C210.757 105.752 211.196 105.646 211.577 105.436C211.958 105.225 212.26 104.967 212.482 104.662C212.711 104.357 212.834 104.062 212.852 103.774L213.546 104.557C213.505 104.803 213.394 105.075 213.212 105.374C213.03 105.673 212.787 105.96 212.482 106.235C212.184 106.505 211.826 106.73 211.41 106.912C211 107.088 210.537 107.176 210.021 107.176C209.377 107.176 208.812 107.05 208.325 106.798C207.845 106.546 207.47 106.209 207.2 105.787C206.937 105.359 206.805 104.882 206.805 104.354C206.805 103.845 206.904 103.396 207.104 103.01C207.303 102.617 207.59 102.292 207.965 102.034C208.34 101.771 208.791 101.571 209.318 101.437C209.846 101.302 210.435 101.234 211.085 101.234H212.975ZM220.858 97.4902V98.7383H215.717V97.4902H220.858ZM217.457 95.1787H219.083V104.645C219.083 104.967 219.133 105.21 219.232 105.374C219.332 105.538 219.461 105.646 219.619 105.699C219.777 105.752 219.947 105.778 220.129 105.778C220.264 105.778 220.404 105.767 220.551 105.743C220.703 105.714 220.817 105.69 220.894 105.673L220.902 107C220.773 107.041 220.604 107.079 220.393 107.114C220.188 107.155 219.938 107.176 219.646 107.176C219.247 107.176 218.881 107.097 218.547 106.938C218.213 106.78 217.946 106.517 217.747 106.147C217.554 105.772 217.457 105.269 217.457 104.636V95.1787ZM224.532 97.4902V107H222.897V97.4902H224.532ZM222.774 94.9678C222.774 94.7041 222.854 94.4814 223.012 94.2998C223.176 94.1182 223.416 94.0273 223.732 94.0273C224.043 94.0273 224.28 94.1182 224.444 94.2998C224.614 94.4814 224.699 94.7041 224.699 94.9678C224.699 95.2197 224.614 95.4365 224.444 95.6182C224.28 95.7939 224.043 95.8818 223.732 95.8818C223.416 95.8818 223.176 95.7939 223.012 95.6182C222.854 95.4365 222.774 95.2197 222.774 94.9678ZM226.712 102.351V102.148C226.712 101.463 226.812 100.827 227.011 100.241C227.21 99.6494 227.497 99.1367 227.872 98.7031C228.247 98.2637 228.701 97.9238 229.234 97.6836C229.768 97.4375 230.365 97.3145 231.027 97.3145C231.695 97.3145 232.296 97.4375 232.829 97.6836C233.368 97.9238 233.825 98.2637 234.2 98.7031C234.581 99.1367 234.871 99.6494 235.07 100.241C235.27 100.827 235.369 101.463 235.369 102.148V102.351C235.369 103.036 235.27 103.672 235.07 104.258C234.871 104.844 234.581 105.356 234.2 105.796C233.825 106.229 233.371 106.569 232.838 106.815C232.311 107.056 231.713 107.176 231.045 107.176C230.377 107.176 229.776 107.056 229.243 106.815C228.71 106.569 228.253 106.229 227.872 105.796C227.497 105.356 227.21 104.844 227.011 104.258C226.812 103.672 226.712 103.036 226.712 102.351ZM228.338 102.148V102.351C228.338 102.825 228.394 103.273 228.505 103.695C228.616 104.111 228.783 104.48 229.006 104.803C229.234 105.125 229.519 105.38 229.858 105.567C230.198 105.749 230.594 105.84 231.045 105.84C231.49 105.84 231.88 105.749 232.214 105.567C232.554 105.38 232.835 105.125 233.058 104.803C233.28 104.48 233.447 104.111 233.559 103.695C233.676 103.273 233.734 102.825 233.734 102.351V102.148C233.734 101.68 233.676 101.237 233.559 100.821C233.447 100.399 233.277 100.027 233.049 99.7051C232.826 99.377 232.545 99.1191 232.205 98.9316C231.871 98.7441 231.479 98.6504 231.027 98.6504C230.582 98.6504 230.189 98.7441 229.85 98.9316C229.516 99.1191 229.234 99.377 229.006 99.7051C228.783 100.027 228.616 100.399 228.505 100.821C228.394 101.237 228.338 101.68 228.338 102.148ZM239.034 99.5205V107H237.408V97.4902H238.946L239.034 99.5205ZM238.647 101.885L237.971 101.858C237.977 101.208 238.073 100.607 238.261 100.057C238.448 99.5 238.712 99.0166 239.052 98.6064C239.392 98.1963 239.796 97.8799 240.265 97.6572C240.739 97.4287 241.264 97.3145 241.838 97.3145C242.307 97.3145 242.729 97.3789 243.104 97.5078C243.479 97.6309 243.798 97.8301 244.062 98.1055C244.331 98.3809 244.536 98.7383 244.677 99.1777C244.817 99.6113 244.888 100.142 244.888 100.769V107H243.253V100.751C243.253 100.253 243.18 99.8545 243.033 99.5557C242.887 99.251 242.673 99.0312 242.392 98.8965C242.11 98.7559 241.765 98.6855 241.354 98.6855C240.95 98.6855 240.581 98.7705 240.247 98.9404C239.919 99.1104 239.635 99.3447 239.395 99.6436C239.16 99.9424 238.976 100.285 238.841 100.672C238.712 101.053 238.647 101.457 238.647 101.885ZM252.895 104.478C252.895 104.243 252.842 104.026 252.736 103.827C252.637 103.622 252.429 103.438 252.112 103.273C251.802 103.104 251.333 102.957 250.706 102.834C250.179 102.723 249.701 102.591 249.273 102.438C248.852 102.286 248.491 102.102 248.192 101.885C247.899 101.668 247.674 101.413 247.516 101.12C247.357 100.827 247.278 100.484 247.278 100.092C247.278 99.7168 247.36 99.3623 247.524 99.0283C247.694 98.6943 247.932 98.3984 248.236 98.1406C248.547 97.8828 248.919 97.6807 249.353 97.5342C249.786 97.3877 250.27 97.3145 250.803 97.3145C251.564 97.3145 252.215 97.4492 252.754 97.7188C253.293 97.9883 253.706 98.3486 253.993 98.7998C254.28 99.2451 254.424 99.7402 254.424 100.285H252.798C252.798 100.021 252.719 99.7666 252.561 99.5205C252.408 99.2686 252.183 99.0605 251.884 98.8965C251.591 98.7324 251.23 98.6504 250.803 98.6504C250.352 98.6504 249.985 98.7207 249.704 98.8613C249.429 98.9961 249.227 99.1689 249.098 99.3799C248.975 99.5908 248.913 99.8135 248.913 100.048C248.913 100.224 248.942 100.382 249.001 100.522C249.065 100.657 249.177 100.783 249.335 100.9C249.493 101.012 249.716 101.117 250.003 101.217C250.29 101.316 250.656 101.416 251.102 101.516C251.881 101.691 252.522 101.902 253.026 102.148C253.53 102.395 253.905 102.696 254.151 103.054C254.397 103.411 254.521 103.845 254.521 104.354C254.521 104.771 254.433 105.151 254.257 105.497C254.087 105.843 253.838 106.142 253.51 106.394C253.188 106.64 252.801 106.833 252.35 106.974C251.904 107.108 251.403 107.176 250.847 107.176C250.009 107.176 249.3 107.026 248.72 106.728C248.14 106.429 247.7 106.042 247.401 105.567C247.103 105.093 246.953 104.592 246.953 104.064H248.588C248.611 104.51 248.74 104.864 248.975 105.128C249.209 105.386 249.496 105.57 249.836 105.682C250.176 105.787 250.513 105.84 250.847 105.84C251.292 105.84 251.664 105.781 251.963 105.664C252.268 105.547 252.499 105.386 252.657 105.181C252.815 104.976 252.895 104.741 252.895 104.478ZM258.59 94.2031L258.476 103.388H257.008L256.885 94.2031H258.59ZM256.832 106.183C256.832 105.919 256.911 105.696 257.069 105.515C257.233 105.333 257.474 105.242 257.79 105.242C258.101 105.242 258.338 105.333 258.502 105.515C258.672 105.696 258.757 105.919 258.757 106.183C258.757 106.435 258.672 106.651 258.502 106.833C258.338 107.015 258.101 107.105 257.79 107.105C257.474 107.105 257.233 107.015 257.069 106.833C256.911 106.651 256.832 106.435 256.832 106.183ZM261.323 106.139C261.323 105.863 261.408 105.632 261.578 105.444C261.754 105.251 262.006 105.154 262.334 105.154C262.662 105.154 262.911 105.251 263.081 105.444C263.257 105.632 263.345 105.863 263.345 106.139C263.345 106.408 263.257 106.637 263.081 106.824C262.911 107.012 262.662 107.105 262.334 107.105C262.006 107.105 261.754 107.012 261.578 106.824C261.408 106.637 261.323 106.408 261.323 106.139ZM274.12 103.133L276.66 94.2031H277.891L277.179 97.6748L274.445 107H273.224L274.12 103.133ZM271.492 94.2031L273.514 102.957L274.12 107H272.907L269.805 94.2031H271.492ZM281.178 102.948L283.155 94.2031H284.852L281.758 107H280.545L281.178 102.948ZM278.075 94.2031L280.545 103.133L281.441 107H280.22L277.583 97.6748L276.862 94.2031H278.075ZM290.151 107.176C289.489 107.176 288.889 107.064 288.35 106.842C287.816 106.613 287.356 106.294 286.97 105.884C286.589 105.474 286.296 104.987 286.091 104.425C285.886 103.862 285.783 103.247 285.783 102.579V102.21C285.783 101.437 285.897 100.748 286.126 100.145C286.354 99.5352 286.665 99.0195 287.058 98.5977C287.45 98.1758 287.896 97.8564 288.394 97.6396C288.892 97.4229 289.407 97.3145 289.94 97.3145C290.62 97.3145 291.206 97.4316 291.698 97.666C292.196 97.9004 292.604 98.2285 292.92 98.6504C293.236 99.0664 293.471 99.5586 293.623 100.127C293.775 100.689 293.852 101.305 293.852 101.973V102.702H286.75V101.375H292.226V101.252C292.202 100.83 292.114 100.42 291.962 100.021C291.815 99.623 291.581 99.2949 291.259 99.0371C290.937 98.7793 290.497 98.6504 289.94 98.6504C289.571 98.6504 289.231 98.7295 288.921 98.8877C288.61 99.04 288.344 99.2686 288.121 99.5732C287.898 99.8779 287.726 100.25 287.603 100.689C287.479 101.129 287.418 101.636 287.418 102.21V102.579C287.418 103.03 287.479 103.455 287.603 103.854C287.731 104.246 287.916 104.592 288.156 104.891C288.402 105.189 288.698 105.424 289.044 105.594C289.396 105.764 289.794 105.849 290.239 105.849C290.813 105.849 291.3 105.731 291.698 105.497C292.097 105.263 292.445 104.949 292.744 104.557L293.729 105.339C293.523 105.649 293.263 105.945 292.946 106.227C292.63 106.508 292.24 106.736 291.777 106.912C291.32 107.088 290.778 107.176 290.151 107.176ZM301.841 93.5V107H300.215V93.5H301.841ZM301.454 101.885L300.777 101.858C300.783 101.208 300.88 100.607 301.067 100.057C301.255 99.5 301.519 99.0166 301.858 98.6064C302.198 98.1963 302.603 97.8799 303.071 97.6572C303.546 97.4287 304.07 97.3145 304.645 97.3145C305.113 97.3145 305.535 97.3789 305.91 97.5078C306.285 97.6309 306.604 97.8301 306.868 98.1055C307.138 98.3809 307.343 98.7383 307.483 99.1777C307.624 99.6113 307.694 100.142 307.694 100.769V107H306.06V100.751C306.06 100.253 305.986 99.8545 305.84 99.5557C305.693 99.251 305.479 99.0312 305.198 98.8965C304.917 98.7559 304.571 98.6855 304.161 98.6855C303.757 98.6855 303.388 98.7705 303.054 98.9404C302.726 99.1104 302.441 99.3447 302.201 99.6436C301.967 99.9424 301.782 100.285 301.647 100.672C301.519 101.053 301.454 101.457 301.454 101.885ZM315.736 105.374V100.479C315.736 100.104 315.66 99.7783 315.508 99.5029C315.361 99.2217 315.139 99.0049 314.84 98.8525C314.541 98.7002 314.172 98.624 313.732 98.624C313.322 98.624 312.962 98.6943 312.651 98.835C312.347 98.9756 312.106 99.1602 311.931 99.3887C311.761 99.6172 311.676 99.8633 311.676 100.127H310.05C310.05 99.7871 310.138 99.4502 310.313 99.1162C310.489 98.7822 310.741 98.4805 311.069 98.2109C311.403 97.9355 311.802 97.7188 312.265 97.5605C312.733 97.3965 313.255 97.3145 313.829 97.3145C314.521 97.3145 315.13 97.4316 315.657 97.666C316.19 97.9004 316.606 98.2549 316.905 98.7295C317.21 99.1982 317.362 99.7871 317.362 100.496V104.926C317.362 105.242 317.389 105.579 317.441 105.937C317.5 106.294 317.585 106.602 317.696 106.859V107H316C315.918 106.812 315.854 106.563 315.807 106.253C315.76 105.937 315.736 105.644 315.736 105.374ZM316.018 101.234L316.035 102.377H314.392C313.929 102.377 313.516 102.415 313.152 102.491C312.789 102.562 312.484 102.67 312.238 102.816C311.992 102.963 311.805 103.147 311.676 103.37C311.547 103.587 311.482 103.842 311.482 104.135C311.482 104.434 311.55 104.706 311.685 104.952C311.819 105.198 312.021 105.395 312.291 105.541C312.566 105.682 312.903 105.752 313.302 105.752C313.8 105.752 314.239 105.646 314.62 105.436C315.001 105.225 315.303 104.967 315.525 104.662C315.754 104.357 315.877 104.062 315.895 103.774L316.589 104.557C316.548 104.803 316.437 105.075 316.255 105.374C316.073 105.673 315.83 105.96 315.525 106.235C315.227 106.505 314.869 106.73 314.453 106.912C314.043 107.088 313.58 107.176 313.064 107.176C312.42 107.176 311.854 107.05 311.368 106.798C310.888 106.546 310.513 106.209 310.243 105.787C309.979 105.359 309.848 104.882 309.848 104.354C309.848 103.845 309.947 103.396 310.146 103.01C310.346 102.617 310.633 102.292 311.008 102.034C311.383 101.771 311.834 101.571 312.361 101.437C312.889 101.302 313.478 101.234 314.128 101.234H316.018ZM322.671 105.532L325.272 97.4902H326.934L323.515 107H322.425L322.671 105.532ZM320.5 97.4902L323.181 105.576L323.365 107H322.275L318.83 97.4902H320.5ZM332.321 107.176C331.659 107.176 331.059 107.064 330.52 106.842C329.986 106.613 329.526 106.294 329.14 105.884C328.759 105.474 328.466 104.987 328.261 104.425C328.056 103.862 327.953 103.247 327.953 102.579V102.21C327.953 101.437 328.067 100.748 328.296 100.145C328.524 99.5352 328.835 99.0195 329.228 98.5977C329.62 98.1758 330.065 97.8564 330.563 97.6396C331.062 97.4229 331.577 97.3145 332.11 97.3145C332.79 97.3145 333.376 97.4316 333.868 97.666C334.366 97.9004 334.773 98.2285 335.09 98.6504C335.406 99.0664 335.641 99.5586 335.793 100.127C335.945 100.689 336.021 101.305 336.021 101.973V102.702H328.92V101.375H334.396V101.252C334.372 100.83 334.284 100.42 334.132 100.021C333.985 99.623 333.751 99.2949 333.429 99.0371C333.106 98.7793 332.667 98.6504 332.11 98.6504C331.741 98.6504 331.401 98.7295 331.091 98.8877C330.78 99.04 330.514 99.2686 330.291 99.5732C330.068 99.8779 329.896 100.25 329.772 100.689C329.649 101.129 329.588 101.636 329.588 102.21V102.579C329.588 103.03 329.649 103.455 329.772 103.854C329.901 104.246 330.086 104.592 330.326 104.891C330.572 105.189 330.868 105.424 331.214 105.594C331.565 105.764 331.964 105.849 332.409 105.849C332.983 105.849 333.47 105.731 333.868 105.497C334.267 105.263 334.615 104.949 334.914 104.557L335.898 105.339C335.693 105.649 335.433 105.945 335.116 106.227C334.8 106.508 334.41 106.736 333.947 106.912C333.49 107.088 332.948 107.176 332.321 107.176ZM347.992 105.374V100.479C347.992 100.104 347.916 99.7783 347.764 99.5029C347.617 99.2217 347.395 99.0049 347.096 98.8525C346.797 98.7002 346.428 98.624 345.988 98.624C345.578 98.624 345.218 98.6943 344.907 98.835C344.603 98.9756 344.362 99.1602 344.187 99.3887C344.017 99.6172 343.932 99.8633 343.932 100.127H342.306C342.306 99.7871 342.394 99.4502 342.569 99.1162C342.745 98.7822 342.997 98.4805 343.325 98.2109C343.659 97.9355 344.058 97.7188 344.521 97.5605C344.989 97.3965 345.511 97.3145 346.085 97.3145C346.776 97.3145 347.386 97.4316 347.913 97.666C348.446 97.9004 348.862 98.2549 349.161 98.7295C349.466 99.1982 349.618 99.7871 349.618 100.496V104.926C349.618 105.242 349.645 105.579 349.697 105.937C349.756 106.294 349.841 106.602 349.952 106.859V107H348.256C348.174 106.812 348.109 106.563 348.062 106.253C348.016 105.937 347.992 105.644 347.992 105.374ZM348.273 101.234L348.291 102.377H346.647C346.185 102.377 345.771 102.415 345.408 102.491C345.045 102.562 344.74 102.67 344.494 102.816C344.248 102.963 344.061 103.147 343.932 103.37C343.803 103.587 343.738 103.842 343.738 104.135C343.738 104.434 343.806 104.706 343.94 104.952C344.075 105.198 344.277 105.395 344.547 105.541C344.822 105.682 345.159 105.752 345.558 105.752C346.056 105.752 346.495 105.646 346.876 105.436C347.257 105.225 347.559 104.967 347.781 104.662C348.01 104.357 348.133 104.062 348.15 103.774L348.845 104.557C348.804 104.803 348.692 105.075 348.511 105.374C348.329 105.673 348.086 105.96 347.781 106.235C347.482 106.505 347.125 106.73 346.709 106.912C346.299 107.088 345.836 107.176 345.32 107.176C344.676 107.176 344.11 107.05 343.624 106.798C343.144 106.546 342.769 106.209 342.499 105.787C342.235 105.359 342.104 104.882 342.104 104.354C342.104 103.845 342.203 103.396 342.402 103.01C342.602 102.617 342.889 102.292 343.264 102.034C343.639 101.771 344.09 101.571 344.617 101.437C345.145 101.302 345.733 101.234 346.384 101.234H348.273ZM182.134 126.84C182.521 126.84 182.878 126.761 183.206 126.603C183.534 126.444 183.804 126.228 184.015 125.952C184.226 125.671 184.346 125.352 184.375 124.994H185.922C185.893 125.557 185.702 126.081 185.351 126.567C185.005 127.048 184.551 127.438 183.988 127.736C183.426 128.029 182.808 128.176 182.134 128.176C181.419 128.176 180.795 128.05 180.262 127.798C179.734 127.546 179.295 127.2 178.943 126.761C178.598 126.321 178.337 125.817 178.161 125.249C177.991 124.675 177.906 124.068 177.906 123.43V123.061C177.906 122.422 177.991 121.818 178.161 121.25C178.337 120.676 178.598 120.169 178.943 119.729C179.295 119.29 179.734 118.944 180.262 118.692C180.795 118.44 181.419 118.314 182.134 118.314C182.878 118.314 183.528 118.467 184.085 118.771C184.642 119.07 185.078 119.48 185.395 120.002C185.717 120.518 185.893 121.104 185.922 121.76H184.375C184.346 121.367 184.234 121.013 184.041 120.696C183.854 120.38 183.596 120.128 183.268 119.94C182.945 119.747 182.567 119.65 182.134 119.65C181.636 119.65 181.217 119.75 180.877 119.949C180.543 120.143 180.276 120.406 180.077 120.74C179.884 121.068 179.743 121.435 179.655 121.839C179.573 122.237 179.532 122.645 179.532 123.061V123.43C179.532 123.846 179.573 124.256 179.655 124.66C179.737 125.064 179.875 125.431 180.068 125.759C180.268 126.087 180.534 126.351 180.868 126.55C181.208 126.743 181.63 126.84 182.134 126.84ZM187.319 123.351V123.148C187.319 122.463 187.419 121.827 187.618 121.241C187.817 120.649 188.104 120.137 188.479 119.703C188.854 119.264 189.309 118.924 189.842 118.684C190.375 118.438 190.973 118.314 191.635 118.314C192.303 118.314 192.903 118.438 193.437 118.684C193.976 118.924 194.433 119.264 194.808 119.703C195.188 120.137 195.479 120.649 195.678 121.241C195.877 121.827 195.977 122.463 195.977 123.148V123.351C195.977 124.036 195.877 124.672 195.678 125.258C195.479 125.844 195.188 126.356 194.808 126.796C194.433 127.229 193.979 127.569 193.445 127.815C192.918 128.056 192.32 128.176 191.652 128.176C190.984 128.176 190.384 128.056 189.851 127.815C189.317 127.569 188.86 127.229 188.479 126.796C188.104 126.356 187.817 125.844 187.618 125.258C187.419 124.672 187.319 124.036 187.319 123.351ZM188.945 123.148V123.351C188.945 123.825 189.001 124.273 189.112 124.695C189.224 125.111 189.391 125.48 189.613 125.803C189.842 126.125 190.126 126.38 190.466 126.567C190.806 126.749 191.201 126.84 191.652 126.84C192.098 126.84 192.487 126.749 192.821 126.567C193.161 126.38 193.442 126.125 193.665 125.803C193.888 125.48 194.055 125.111 194.166 124.695C194.283 124.273 194.342 123.825 194.342 123.351V123.148C194.342 122.68 194.283 122.237 194.166 121.821C194.055 121.399 193.885 121.027 193.656 120.705C193.434 120.377 193.152 120.119 192.812 119.932C192.479 119.744 192.086 119.65 191.635 119.65C191.189 119.65 190.797 119.744 190.457 119.932C190.123 120.119 189.842 120.377 189.613 120.705C189.391 121.027 189.224 121.399 189.112 121.821C189.001 122.237 188.945 122.68 188.945 123.148ZM203.834 125.803V118.49H205.469V128H203.913L203.834 125.803ZM204.142 123.799L204.818 123.781C204.818 124.414 204.751 125 204.616 125.539C204.487 126.072 204.276 126.535 203.983 126.928C203.69 127.32 203.307 127.628 202.832 127.851C202.357 128.067 201.78 128.176 201.101 128.176C200.638 128.176 200.213 128.108 199.826 127.974C199.445 127.839 199.117 127.631 198.842 127.35C198.566 127.068 198.353 126.702 198.2 126.251C198.054 125.8 197.98 125.258 197.98 124.625V118.49H199.606V124.643C199.606 125.07 199.653 125.425 199.747 125.706C199.847 125.981 199.979 126.201 200.143 126.365C200.312 126.523 200.5 126.635 200.705 126.699C200.916 126.764 201.133 126.796 201.355 126.796C202.047 126.796 202.595 126.664 202.999 126.4C203.403 126.131 203.693 125.771 203.869 125.319C204.051 124.862 204.142 124.355 204.142 123.799ZM209.573 120.318V131.656H207.938V118.49H209.433L209.573 120.318ZM215.98 123.166V123.351C215.98 124.042 215.898 124.684 215.734 125.275C215.57 125.861 215.33 126.371 215.014 126.805C214.703 127.238 214.319 127.575 213.862 127.815C213.405 128.056 212.881 128.176 212.289 128.176C211.686 128.176 211.152 128.076 210.689 127.877C210.227 127.678 209.834 127.388 209.512 127.007C209.189 126.626 208.932 126.169 208.738 125.636C208.551 125.103 208.422 124.502 208.352 123.834V122.85C208.422 122.146 208.554 121.517 208.747 120.96C208.94 120.403 209.195 119.929 209.512 119.536C209.834 119.138 210.224 118.836 210.681 118.631C211.138 118.42 211.665 118.314 212.263 118.314C212.86 118.314 213.391 118.432 213.854 118.666C214.316 118.895 214.706 119.223 215.022 119.65C215.339 120.078 215.576 120.591 215.734 121.188C215.898 121.78 215.98 122.439 215.98 123.166ZM214.346 123.351V123.166C214.346 122.691 214.296 122.246 214.196 121.83C214.097 121.408 213.941 121.039 213.73 120.723C213.525 120.4 213.262 120.148 212.939 119.967C212.617 119.779 212.233 119.686 211.788 119.686C211.378 119.686 211.021 119.756 210.716 119.896C210.417 120.037 210.162 120.228 209.951 120.468C209.74 120.702 209.567 120.972 209.433 121.276C209.304 121.575 209.207 121.886 209.143 122.208V124.484C209.26 124.895 209.424 125.281 209.635 125.645C209.846 126.002 210.127 126.292 210.479 126.515C210.83 126.731 211.272 126.84 211.806 126.84C212.245 126.84 212.623 126.749 212.939 126.567C213.262 126.38 213.525 126.125 213.73 125.803C213.941 125.48 214.097 125.111 214.196 124.695C214.296 124.273 214.346 123.825 214.346 123.351ZM217.624 123.351V123.148C217.624 122.463 217.724 121.827 217.923 121.241C218.122 120.649 218.409 120.137 218.784 119.703C219.159 119.264 219.613 118.924 220.146 118.684C220.68 118.438 221.277 118.314 221.939 118.314C222.607 118.314 223.208 118.438 223.741 118.684C224.28 118.924 224.737 119.264 225.112 119.703C225.493 120.137 225.783 120.649 225.982 121.241C226.182 121.827 226.281 122.463 226.281 123.148V123.351C226.281 124.036 226.182 124.672 225.982 125.258C225.783 125.844 225.493 126.356 225.112 126.796C224.737 127.229 224.283 127.569 223.75 127.815C223.223 128.056 222.625 128.176 221.957 128.176C221.289 128.176 220.688 128.056 220.155 127.815C219.622 127.569 219.165 127.229 218.784 126.796C218.409 126.356 218.122 125.844 217.923 125.258C217.724 124.672 217.624 124.036 217.624 123.351ZM219.25 123.148V123.351C219.25 123.825 219.306 124.273 219.417 124.695C219.528 125.111 219.695 125.48 219.918 125.803C220.146 126.125 220.431 126.38 220.771 126.567C221.11 126.749 221.506 126.84 221.957 126.84C222.402 126.84 222.792 126.749 223.126 126.567C223.466 126.38 223.747 126.125 223.97 125.803C224.192 125.48 224.359 125.111 224.471 124.695C224.588 124.273 224.646 123.825 224.646 123.351V123.148C224.646 122.68 224.588 122.237 224.471 121.821C224.359 121.399 224.189 121.027 223.961 120.705C223.738 120.377 223.457 120.119 223.117 119.932C222.783 119.744 222.391 119.65 221.939 119.65C221.494 119.65 221.102 119.744 220.762 119.932C220.428 120.119 220.146 120.377 219.918 120.705C219.695 121.027 219.528 121.399 219.417 121.821C219.306 122.237 219.25 122.68 219.25 123.148ZM229.946 120.521V128H228.32V118.49H229.858L229.946 120.521ZM229.56 122.885L228.883 122.858C228.889 122.208 228.985 121.607 229.173 121.057C229.36 120.5 229.624 120.017 229.964 119.606C230.304 119.196 230.708 118.88 231.177 118.657C231.651 118.429 232.176 118.314 232.75 118.314C233.219 118.314 233.641 118.379 234.016 118.508C234.391 118.631 234.71 118.83 234.974 119.105C235.243 119.381 235.448 119.738 235.589 120.178C235.729 120.611 235.8 121.142 235.8 121.769V128H234.165V121.751C234.165 121.253 234.092 120.854 233.945 120.556C233.799 120.251 233.585 120.031 233.304 119.896C233.022 119.756 232.677 119.686 232.267 119.686C231.862 119.686 231.493 119.771 231.159 119.94C230.831 120.11 230.547 120.345 230.307 120.644C230.072 120.942 229.888 121.285 229.753 121.672C229.624 122.053 229.56 122.457 229.56 122.885ZM245.16 128H243.534V117.488C243.534 116.803 243.657 116.226 243.903 115.757C244.155 115.282 244.516 114.925 244.984 114.685C245.453 114.438 246.01 114.315 246.654 114.315C246.842 114.315 247.029 114.327 247.217 114.351C247.41 114.374 247.598 114.409 247.779 114.456L247.691 115.783C247.568 115.754 247.428 115.733 247.27 115.722C247.117 115.71 246.965 115.704 246.812 115.704C246.467 115.704 246.168 115.774 245.916 115.915C245.67 116.05 245.482 116.249 245.354 116.513C245.225 116.776 245.16 117.102 245.16 117.488V128ZM247.182 118.49V119.738H242.031V118.49H247.182ZM248.562 123.351V123.148C248.562 122.463 248.661 121.827 248.86 121.241C249.06 120.649 249.347 120.137 249.722 119.703C250.097 119.264 250.551 118.924 251.084 118.684C251.617 118.438 252.215 118.314 252.877 118.314C253.545 118.314 254.146 118.438 254.679 118.684C255.218 118.924 255.675 119.264 256.05 119.703C256.431 120.137 256.721 120.649 256.92 121.241C257.119 121.827 257.219 122.463 257.219 123.148V123.351C257.219 124.036 257.119 124.672 256.92 125.258C256.721 125.844 256.431 126.356 256.05 126.796C255.675 127.229 255.221 127.569 254.688 127.815C254.16 128.056 253.562 128.176 252.895 128.176C252.227 128.176 251.626 128.056 251.093 127.815C250.56 127.569 250.103 127.229 249.722 126.796C249.347 126.356 249.06 125.844 248.86 125.258C248.661 124.672 248.562 124.036 248.562 123.351ZM250.188 123.148V123.351C250.188 123.825 250.243 124.273 250.354 124.695C250.466 125.111 250.633 125.48 250.855 125.803C251.084 126.125 251.368 126.38 251.708 126.567C252.048 126.749 252.443 126.84 252.895 126.84C253.34 126.84 253.729 126.749 254.063 126.567C254.403 126.38 254.685 126.125 254.907 125.803C255.13 125.48 255.297 125.111 255.408 124.695C255.525 124.273 255.584 123.825 255.584 123.351V123.148C255.584 122.68 255.525 122.237 255.408 121.821C255.297 121.399 255.127 121.027 254.898 120.705C254.676 120.377 254.395 120.119 254.055 119.932C253.721 119.744 253.328 119.65 252.877 119.65C252.432 119.65 252.039 119.744 251.699 119.932C251.365 120.119 251.084 120.377 250.855 120.705C250.633 121.027 250.466 121.399 250.354 121.821C250.243 122.237 250.188 122.68 250.188 123.148ZM260.884 119.984V128H259.258V118.49H260.84L260.884 119.984ZM263.854 118.438L263.846 119.949C263.711 119.92 263.582 119.902 263.459 119.896C263.342 119.885 263.207 119.879 263.055 119.879C262.68 119.879 262.349 119.938 262.062 120.055C261.774 120.172 261.531 120.336 261.332 120.547C261.133 120.758 260.975 121.01 260.857 121.303C260.746 121.59 260.673 121.906 260.638 122.252L260.181 122.516C260.181 121.941 260.236 121.402 260.348 120.898C260.465 120.395 260.644 119.949 260.884 119.562C261.124 119.17 261.429 118.865 261.798 118.648C262.173 118.426 262.618 118.314 263.134 118.314C263.251 118.314 263.386 118.329 263.538 118.358C263.69 118.382 263.796 118.408 263.854 118.438ZM272.494 127.016L275.14 118.49H276.88L273.065 129.468C272.978 129.702 272.86 129.954 272.714 130.224C272.573 130.499 272.392 130.76 272.169 131.006C271.946 131.252 271.677 131.451 271.36 131.604C271.05 131.762 270.678 131.841 270.244 131.841C270.115 131.841 269.951 131.823 269.752 131.788C269.553 131.753 269.412 131.724 269.33 131.7L269.321 130.382C269.368 130.388 269.441 130.394 269.541 130.399C269.646 130.411 269.72 130.417 269.761 130.417C270.13 130.417 270.443 130.367 270.701 130.268C270.959 130.174 271.176 130.013 271.352 129.784C271.533 129.562 271.688 129.254 271.817 128.861L272.494 127.016ZM270.552 118.49L273.021 125.873L273.443 127.587L272.274 128.185L268.776 118.49H270.552ZM277.776 123.351V123.148C277.776 122.463 277.876 121.827 278.075 121.241C278.274 120.649 278.562 120.137 278.937 119.703C279.312 119.264 279.766 118.924 280.299 118.684C280.832 118.438 281.43 118.314 282.092 118.314C282.76 118.314 283.36 118.438 283.894 118.684C284.433 118.924 284.89 119.264 285.265 119.703C285.646 120.137 285.936 120.649 286.135 121.241C286.334 121.827 286.434 122.463 286.434 123.148V123.351C286.434 124.036 286.334 124.672 286.135 125.258C285.936 125.844 285.646 126.356 285.265 126.796C284.89 127.229 284.436 127.569 283.902 127.815C283.375 128.056 282.777 128.176 282.109 128.176C281.441 128.176 280.841 128.056 280.308 127.815C279.774 127.569 279.317 127.229 278.937 126.796C278.562 126.356 278.274 125.844 278.075 125.258C277.876 124.672 277.776 124.036 277.776 123.351ZM279.402 123.148V123.351C279.402 123.825 279.458 124.273 279.569 124.695C279.681 125.111 279.848 125.48 280.07 125.803C280.299 126.125 280.583 126.38 280.923 126.567C281.263 126.749 281.658 126.84 282.109 126.84C282.555 126.84 282.944 126.749 283.278 126.567C283.618 126.38 283.899 126.125 284.122 125.803C284.345 125.48 284.512 125.111 284.623 124.695C284.74 124.273 284.799 123.825 284.799 123.351V123.148C284.799 122.68 284.74 122.237 284.623 121.821C284.512 121.399 284.342 121.027 284.113 120.705C283.891 120.377 283.609 120.119 283.27 119.932C282.936 119.744 282.543 119.65 282.092 119.65C281.646 119.65 281.254 119.744 280.914 119.932C280.58 120.119 280.299 120.377 280.07 120.705C279.848 121.027 279.681 121.399 279.569 121.821C279.458 122.237 279.402 122.68 279.402 123.148ZM294.291 125.803V118.49H295.926V128H294.37L294.291 125.803ZM294.599 123.799L295.275 123.781C295.275 124.414 295.208 125 295.073 125.539C294.944 126.072 294.733 126.535 294.44 126.928C294.147 127.32 293.764 127.628 293.289 127.851C292.814 128.067 292.237 128.176 291.558 128.176C291.095 128.176 290.67 128.108 290.283 127.974C289.902 127.839 289.574 127.631 289.299 127.35C289.023 127.068 288.81 126.702 288.657 126.251C288.511 125.8 288.438 125.258 288.438 124.625V118.49H290.063V124.643C290.063 125.07 290.11 125.425 290.204 125.706C290.304 125.981 290.436 126.201 290.6 126.365C290.77 126.523 290.957 126.635 291.162 126.699C291.373 126.764 291.59 126.796 291.812 126.796C292.504 126.796 293.052 126.664 293.456 126.4C293.86 126.131 294.15 125.771 294.326 125.319C294.508 124.862 294.599 124.355 294.599 123.799ZM298.431 127.139C298.431 126.863 298.516 126.632 298.686 126.444C298.861 126.251 299.113 126.154 299.441 126.154C299.77 126.154 300.019 126.251 300.188 126.444C300.364 126.632 300.452 126.863 300.452 127.139C300.452 127.408 300.364 127.637 300.188 127.824C300.019 128.012 299.77 128.105 299.441 128.105C299.113 128.105 298.861 128.012 298.686 127.824C298.516 127.637 298.431 127.408 298.431 127.139Z" fill="white"/>
<path d="M228.593 180.094L208.785 173.287L220.935 159.326L228.593 180.094Z" fill="#385FE5"/>
<path d="M241.401 215.875L208.783 173.286L228.591 180.095L241.401 215.875Z" fill="#2245BA"/>
<path d="M241.402 215.875L228.592 180.095L242.481 180.535L256.368 180.944L256.382 180.959L241.402 215.875Z" fill="#385FE5"/>
<path d="M228.594 180.094L220.935 159.326L243.872 161.901L228.594 180.094Z" fill="#5077FF"/>
<path d="M241.453 215.672L256.381 180.96L276.164 175.282L241.453 215.672ZM256.367 180.945L242.48 180.536L228.59 180.096L243.034 162.408L256.367 180.945Z" fill="#2245BA"/>
<path d="M264.746 160.587L242.817 162.078L220.935 159.326L243.042 155.151L264.746 160.587Z" fill="#385FE5"/>
<path d="M241.453 215.672L242.261 180.206L256.148 180.619L256.161 180.632L241.453 215.672Z" fill="#5077FF"/>
<path d="M276.784 174.66L256.166 180.629L256.151 180.614L264.748 160.588L276.784 174.66Z" fill="#5077FF"/>
<path d="M241.365 215.801L256.151 180.625L276.786 174.66L241.365 215.801ZM256.33 180.874L242.442 180.461L243.009 162.349L256.33 180.874Z" fill="#3159DE"/>
<path d="M256.149 180.618L242.828 162.093L242.815 162.08L264.743 160.589L256.149 180.618Z" fill="#2245BA"/>
<path d="M264.744 160.589L242.816 162.08L243.041 155.153L264.744 160.589Z" fill="#5077FF"/>
<path d="M228.868 173.257L230.653 178.082L235.479 179.868L230.653 181.653L228.868 186.479L227.082 181.653L222.257 179.868L227.082 178.082L228.868 173.257Z" fill="white"/>
<path d="M265.008 156.509L266.317 160.048L269.856 161.357L266.317 162.667L265.008 166.205L263.699 162.667L260.16 161.357L263.699 160.048L265.008 156.509Z" fill="white"/>
<path d="M209.638 217.69L198.571 226.219L195.261 214.326L209.638 217.69Z" fill="#385FE5"/>
<path d="M234.266 223.7L198.571 226.219L209.638 217.69L234.266 223.7Z" fill="#2245BA"/>
<path d="M234.266 223.7L209.638 217.69L214.986 210.118L220.314 202.536L220.327 202.533L234.266 223.7Z" fill="#385FE5"/>
<path d="M209.638 217.689L195.261 214.326L205.119 202.5L209.638 217.689Z" fill="#5077FF"/>
<path d="M234.172 223.597L220.327 202.535L224.432 189.434L234.172 223.597ZM220.313 202.537L214.985 210.12L209.638 217.692L205.094 203.153L220.313 202.537Z" fill="#2245BA"/>
<path d="M212.055 190.395L204.831 203.152L195.261 214.326L201.057 200.483L212.055 190.395Z" fill="#385FE5"/>
<path d="M234.171 223.597L214.72 210.12L220.051 202.539L220.064 202.537L234.171 223.597Z" fill="#5077FF"/>
<path d="M224.313 188.861L220.063 202.534L220.05 202.536L212.057 190.394L224.313 188.861Z" fill="#5077FF"/>
<path d="M234.212 223.693L220.056 202.54L224.314 188.859L234.212 223.693ZM220.261 202.532L214.93 210.113L205.053 203.145L220.261 202.532Z" fill="#385FE5"/>
<path d="M220.052 202.539L204.844 203.151L204.832 203.154L212.056 190.396L220.052 202.539Z" fill="#2245BA"/>
<path d="M212.056 190.396L204.832 203.154L201.057 200.484L212.056 190.396Z" fill="#5077FF"/>
<path d="M205.933 215.025L209.276 215.803L212.042 213.772L211.264 217.115L213.295 219.881L209.952 219.103L207.186 221.134L207.964 217.792L205.933 215.025Z" fill="white"/>
<path d="M209.881 188.751L212.333 189.321L214.361 187.832L213.791 190.283L215.28 192.312L212.829 191.742L210.8 193.231L211.371 190.78L209.881 188.751Z" fill="white"/>
<path d="M261.127 203.63L256.706 190.872L268.62 191.487L261.127 203.63Z" fill="#385FE5"/>
<path d="M248.064 224.354L256.706 190.872L261.126 203.63L248.064 224.354Z" fill="#2245BA"/>
<path d="M248.065 224.355L261.128 203.63L266.426 210.853L271.74 218.062L271.738 218.075L248.065 224.355Z" fill="#385FE5"/>
<path d="M261.128 203.63L268.621 191.488L276.434 204.149L261.128 203.63Z" fill="#5077FF"/>
<path d="M248.188 224.3L271.736 218.074L282.483 225.855L248.188 224.3ZM271.738 218.061L266.425 210.852L261.126 203.629L275.843 203.926L271.738 218.061Z" fill="#2245BA"/>
<path d="M285.399 214.219L275.925 203.685L268.621 191.487L279.529 201.045L285.399 214.219Z" fill="#385FE5"/>
<path d="M248.188 224.3L266.505 210.61L271.817 217.82L271.815 217.833L248.188 224.3Z" fill="#5077FF"/>
<path d="M283.044 225.922L271.818 217.833L271.82 217.82L285.399 214.22L283.044 225.922Z" fill="#5077FF"/>
<path d="M248.088 224.307L271.814 217.824L283.045 225.923L248.088 224.307ZM271.759 218.014L266.448 210.803L275.863 203.89L271.759 218.014Z" fill="#385FE5"/>
<path d="M271.818 217.82L275.921 203.697L275.923 203.685L285.398 214.218L271.818 217.82Z" fill="#2245BA"/>
<path d="M285.397 214.219L275.923 203.685L279.527 201.045L285.397 214.219Z" fill="#5077FF"/>
<path d="M264.706 201.051L262.968 203.875L263.98 207.033L261.156 205.295L257.998 206.307L259.736 203.483L258.724 200.325L261.548 202.063L264.706 201.051Z" fill="white"/>
<path d="M287.572 212.73L286.297 214.801L287.039 217.117L284.968 215.842L282.652 216.585L283.927 214.513L283.185 212.197L285.256 213.472L287.572 212.73Z" fill="white"/>
</g>
<defs>
<filter id="filter0_f_383_72" x="278.584" y="-23.83" width="250.832" height="255.832" filterUnits="userSpaceOnUse" color-interpolation-filters="sRGB">
<feFlood flood-opacity="0" result="BackgroundImageFix"/>
<feBlend mode="normal" in="SourceGraphic" in2="BackgroundImageFix" result="shape"/>
<feGaussianBlur stdDeviation="35.208" result="effect1_foregroundBlur_383_72"/>
</filter>
<filter id="filter1_f_383_72" x="209" y="192" width="61" height="61" filterUnits="userSpaceOnUse" color-interpolation-filters="sRGB">
<feFlood flood-opacity="0" result="BackgroundImageFix"/>
<feBlend mode="normal" in="SourceGraphic" in2="BackgroundImageFix" result="shape"/>
<feGaussianBlur stdDeviation="7" result="effect1_foregroundBlur_383_72"/>
</filter>
<filter id="filter2_f_383_72" x="-89.4159" y="-104.83" width="250.832" height="255.832" filterUnits="userSpaceOnUse" color-interpolation-filters="sRGB">
<feFlood flood-opacity="0" result="BackgroundImageFix"/>
<feBlend mode="normal" in="SourceGraphic" in2="BackgroundImageFix" result="shape"/>
<feGaussianBlur stdDeviation="35.208" result="effect1_foregroundBlur_383_72"/>
</filter>
<filter id="filter3_f_383_72" x="138.584" y="165.17" width="250.832" height="255.832" filterUnits="userSpaceOnUse" color-interpolation-filters="sRGB">
<feFlood flood-opacity="0" result="BackgroundImageFix"/>
<feBlend mode="normal" in="SourceGraphic" in2="BackgroundImageFix" result="shape"/>
<feGaussianBlur stdDeviation="35.208" result="effect1_foregroundBlur_383_72"/>
</filter>
<clipPath id="clip0_383_72">
<rect width="480" height="320" fill="white"/>
</clipPath>
</defs>
</svg>
