<svg width="427" height="214" viewBox="0 0 427 214" fill="none" xmlns="http://www.w3.org/2000/svg">
<path d="M395.009 0.333313H31.7026C14.2062 0.333313 0.022583 14.5169 0.022583 32.0133V181.987C0.022583 199.483 14.2062 213.667 31.7026 213.667H395.009C412.506 213.667 426.689 199.483 426.689 181.987V32.0133C426.689 14.5169 412.506 0.333313 395.009 0.333313Z" fill="url(#paint0_linear_7_84)"/>
<path d="M128.023 149.667H85.3559V53.6667C85.3559 50.8377 84.2321 48.1246 82.2317 46.1242C80.2313 44.1238 77.5182 43 74.6892 43C71.8603 43 69.1472 44.1238 67.1468 46.1242C65.1464 48.1246 64.0226 50.8377 64.0226 53.6667V160.333C64.0226 163.162 65.1464 165.875 67.1468 167.876C69.1472 169.876 71.8603 171 74.6892 171H128.023C130.852 171 133.565 169.876 135.565 167.876C137.565 165.875 138.689 163.162 138.689 160.333C138.689 157.504 137.565 154.791 135.565 152.791C133.565 150.79 130.852 149.667 128.023 149.667ZM170.689 43C167.86 43 165.147 44.1238 163.147 46.1242C161.146 48.1246 160.023 50.8377 160.023 53.6667V160.333C160.023 163.162 161.146 165.875 163.147 167.876C165.147 169.876 167.86 171 170.689 171C173.518 171 176.231 169.876 178.232 167.876C180.232 165.875 181.356 163.162 181.356 160.333V53.6667C181.356 50.8377 180.232 48.1246 178.232 46.1242C176.231 44.1238 173.518 43 170.689 43ZM280.417 43.448C279.076 43.0442 277.668 42.9088 276.275 43.0495C274.881 43.1902 273.529 43.6043 272.296 44.2681C271.062 44.9319 269.972 45.8323 269.087 46.9179C268.201 48.0034 267.539 49.2528 267.137 50.5946L245.356 123.213L223.575 50.6053C222.763 47.8952 220.907 45.6185 218.417 44.2763C215.926 42.934 213.005 42.6361 210.295 43.448C207.584 44.2599 205.308 46.1152 203.966 48.6057C202.623 51.0961 202.325 54.0178 203.137 56.728L235.137 163.395C235.795 165.593 237.145 167.521 238.986 168.892C240.827 170.262 243.061 171.002 245.356 171.002C247.651 171.002 249.885 170.262 251.726 168.892C253.567 167.521 254.916 165.593 255.575 163.395L287.575 56.728C288.387 54.0193 288.091 51.0987 286.751 48.6084C285.41 46.1181 283.126 44.262 280.417 43.448ZM373.356 149.667H330.689V117.667H362.689C365.518 117.667 368.231 116.543 370.232 114.542C372.232 112.542 373.356 109.829 373.356 107C373.356 104.171 372.232 101.458 370.232 99.4575C368.231 97.4571 365.518 96.3333 362.689 96.3333H330.689V64.3333H373.356C376.185 64.3333 378.898 63.2095 380.898 61.2091C382.899 59.2087 384.023 56.4956 384.023 53.6667C384.023 50.8377 382.899 48.1246 380.898 46.1242C378.898 44.1238 376.185 43 373.356 43H320.023C317.194 43 314.48 44.1238 312.48 46.1242C310.48 48.1246 309.356 50.8377 309.356 53.6667V160.333C309.356 163.162 310.48 165.875 312.48 167.876C314.48 169.876 317.194 171 320.023 171H373.356C376.185 171 378.898 169.876 380.898 167.876C382.899 165.875 384.023 163.162 384.023 160.333C384.023 157.504 382.899 154.791 380.898 152.791C378.898 150.79 376.185 149.667 373.356 149.667Z" fill="white"/>
<defs>
<linearGradient id="paint0_linear_7_84" x1="213.356" y1="213.667" x2="213.356" y2="0.333313" gradientUnits="userSpaceOnUse">
<stop stop-color="#E62344"/>
<stop offset="1" stop-color="#FA6A85"/>
</linearGradient>
</defs>
</svg>
